G75*
G70*
%OFA0B0*%
%FSLAX24Y24*%
%IPPOS*%
%LPD*%
%AMOC8*
5,1,8,0,0,1.08239X$1,22.5*
%
%ADD10R,0.0472X0.0217*%
%ADD11R,0.0217X0.0472*%
%ADD12R,0.0276X0.0354*%
%ADD13R,0.0433X0.0394*%
%ADD14R,0.0354X0.0276*%
%ADD15R,0.0394X0.0433*%
%ADD16R,0.0551X0.0394*%
%ADD17R,0.0701X0.1378*%
%ADD18R,0.0610X0.0236*%
%ADD19R,0.0709X0.0472*%
D10*
X010745Y005147D03*
X010745Y005521D03*
X010745Y005895D03*
X011769Y005895D03*
X011769Y005147D03*
D11*
X012113Y016771D03*
X012487Y016771D03*
X012861Y016771D03*
X012861Y017795D03*
X012113Y017795D03*
D12*
X012232Y018366D03*
X012743Y018366D03*
X013167Y011525D03*
X013678Y011525D03*
X013678Y010344D03*
X013167Y010344D03*
X011710Y008474D03*
X011198Y008474D03*
X009545Y008671D03*
X009033Y008671D03*
D13*
X008954Y009458D03*
X009623Y009458D03*
X010923Y006604D03*
X011592Y006604D03*
X011592Y004439D03*
X010923Y004439D03*
X013088Y010935D03*
X013757Y010935D03*
D14*
X012340Y005777D03*
X012340Y005265D03*
X008108Y005856D03*
X008108Y006368D03*
D15*
X009510Y005118D03*
X009510Y004448D03*
X011306Y016948D03*
X011306Y017618D03*
X013570Y017618D03*
X013570Y016948D03*
D16*
X009052Y006486D03*
X009052Y005738D03*
X009919Y006112D03*
D17*
X006389Y004685D03*
X008448Y004685D03*
X007316Y006702D03*
X005257Y006702D03*
D18*
X002793Y007834D03*
X002793Y008228D03*
X002793Y008622D03*
X002793Y009015D03*
X002793Y010689D03*
X002793Y011082D03*
X002793Y011476D03*
X002793Y011870D03*
X002793Y012263D03*
X002793Y012657D03*
D19*
X001267Y013169D03*
X001267Y010177D03*
X001267Y009527D03*
X001267Y007322D03*
M02*
