G75*
G70*
%OFA0B0*%
%FSLAX24Y24*%
%IPPOS*%
%LPD*%
%AMOC8*
5,1,8,0,0,1.08239X$1,22.5*
%
%ADD10C,0.0070*%
%ADD11R,0.0472X0.0217*%
%ADD12R,0.0217X0.0472*%
%ADD13R,0.0276X0.0354*%
%ADD14R,0.0433X0.0394*%
%ADD15R,0.0354X0.0276*%
%ADD16R,0.0394X0.0433*%
%ADD17R,0.0551X0.0394*%
%ADD18R,0.0701X0.1378*%
%ADD19C,0.0740*%
%ADD20R,0.0610X0.0236*%
%ADD21R,0.0709X0.0472*%
%ADD22C,0.0337*%
%ADD23C,0.0280*%
%ADD24C,0.0120*%
%ADD25C,0.0240*%
%ADD26C,0.0160*%
%ADD27C,0.0080*%
%ADD28C,0.0400*%
D10*
X002232Y002573D02*
X002347Y002459D01*
X002423Y002459D01*
X002423Y002535D01*
X002309Y002650D01*
X002347Y002688D02*
X002232Y002573D01*
X002129Y002677D02*
X002282Y002830D01*
X002205Y002906D02*
X002167Y002944D01*
X002205Y002906D02*
X002205Y002753D01*
X002347Y002688D02*
X002423Y002688D01*
X002500Y002611D01*
X002641Y002470D02*
X002756Y002355D01*
X002756Y002279D01*
X002680Y002202D01*
X002603Y002202D01*
X002489Y002317D01*
X002799Y002720D02*
X002913Y002835D01*
X002990Y002835D01*
X003104Y002720D01*
X002952Y002568D01*
X003055Y002464D02*
X003170Y002349D01*
X003246Y002349D01*
X003246Y002426D01*
X003132Y002540D01*
X003170Y002579D02*
X003055Y002464D01*
X003170Y002579D02*
X003246Y002579D01*
X003323Y002502D01*
X003585Y002746D02*
X003471Y002860D01*
X003471Y002937D01*
X003547Y002937D01*
X003624Y002860D01*
X003700Y002860D01*
X003700Y002937D01*
X003585Y003051D01*
X003824Y003043D02*
X003863Y003005D01*
X003824Y003043D02*
X003824Y003119D01*
X004015Y003310D01*
X004130Y003196D01*
X004130Y003119D01*
X004053Y003043D01*
X003977Y003043D01*
X003863Y003158D01*
X003759Y003261D02*
X003912Y003414D01*
X003797Y003529D01*
X003721Y003529D01*
X003606Y003414D01*
X003541Y003556D02*
X003464Y003556D01*
X003388Y003632D01*
X003426Y003747D02*
X003579Y003594D01*
X003617Y003632D02*
X003617Y003708D01*
X003541Y003785D01*
X003464Y003785D01*
X003426Y003747D01*
X003361Y003888D02*
X003361Y003965D01*
X003246Y004079D01*
X003323Y004156D02*
X003094Y003927D01*
X003208Y003812D01*
X003285Y003812D01*
X003361Y003888D01*
X003617Y003632D02*
X003541Y003556D01*
X003225Y003411D02*
X003111Y003526D01*
X003035Y003526D01*
X002958Y003449D01*
X002958Y003373D01*
X003073Y003259D01*
X002996Y003182D02*
X003225Y003411D01*
X002931Y003629D02*
X002931Y003706D01*
X002855Y003782D01*
X002778Y003782D01*
X002740Y003744D01*
X002893Y003591D01*
X002855Y003553D02*
X002931Y003629D01*
X002855Y003553D02*
X002778Y003553D01*
X002702Y003629D01*
X002598Y003809D02*
X002598Y003886D01*
X002484Y004000D01*
X002522Y004038D02*
X002407Y003924D01*
X002522Y003809D01*
X002598Y003809D01*
X002675Y003962D02*
X002598Y004038D01*
X002522Y004038D01*
X002380Y004104D02*
X002380Y004256D01*
X002342Y004295D01*
X002243Y004394D02*
X002167Y004470D01*
X002243Y004470D02*
X002090Y004317D01*
X002014Y004317D01*
X002287Y004581D02*
X002287Y004657D01*
X002477Y004848D01*
X002325Y004695D02*
X002439Y004581D01*
X002516Y004581D01*
X002630Y004695D01*
X002696Y004554D02*
X002619Y004477D01*
X002619Y004401D01*
X002734Y004286D01*
X002963Y004516D01*
X002886Y004439D02*
X002772Y004554D01*
X002696Y004554D01*
X002325Y004543D02*
X002287Y004581D01*
X002457Y004180D02*
X002304Y004027D01*
X001744Y003367D02*
X001859Y003252D01*
X001859Y003176D01*
X001783Y003176D01*
X001706Y003252D01*
X001630Y003252D01*
X001630Y003176D01*
X001744Y003061D01*
X001839Y002967D02*
X001915Y002890D01*
X001877Y002929D02*
X002106Y003158D01*
X002144Y003119D01*
X002543Y002977D02*
X002657Y002862D01*
X002734Y002862D01*
X002810Y002938D01*
X002810Y003015D01*
X002695Y003129D01*
X002772Y003206D02*
X002543Y002977D01*
X003230Y002033D02*
X003001Y001804D01*
X003116Y001690D01*
X003192Y001690D01*
X003269Y001766D01*
X003269Y001842D01*
X003154Y001957D01*
X003439Y001672D02*
X003287Y001519D01*
X003325Y001481D02*
X003249Y001557D01*
X003439Y001672D02*
X003478Y001633D01*
X003516Y001748D02*
X003554Y001786D01*
X003581Y001530D02*
X003505Y001301D01*
X003734Y001377D01*
X003799Y001235D02*
X003685Y001121D01*
X003799Y001006D01*
X003876Y001006D01*
X003876Y001083D01*
X003761Y001197D01*
X003799Y001235D02*
X003876Y001235D01*
X003952Y001159D01*
X004094Y001017D02*
X004208Y000903D01*
X004208Y000826D01*
X004132Y000750D01*
X004056Y000750D01*
X003941Y000865D01*
X004170Y001094D01*
X004572Y001759D02*
X004649Y001759D01*
X004649Y001835D01*
X004534Y001950D01*
X004572Y001988D02*
X004458Y001873D01*
X004572Y001759D01*
X004725Y001912D02*
X004649Y001988D01*
X004572Y001988D01*
X004507Y002130D02*
X004392Y002244D01*
X004316Y002244D01*
X004201Y002130D01*
X004136Y002271D02*
X004060Y002271D01*
X003945Y002386D01*
X003907Y002348D02*
X004098Y002539D01*
X004212Y002424D01*
X004212Y002348D01*
X004136Y002271D01*
X003945Y002233D02*
X003907Y002271D01*
X003907Y002348D01*
X003880Y002528D02*
X003803Y002528D01*
X003689Y002642D01*
X003842Y002795D01*
X003994Y002642D02*
X003880Y002528D01*
X004186Y002834D02*
X004110Y002910D01*
X004148Y002872D02*
X004301Y003025D01*
X004339Y002987D01*
X004377Y003101D02*
X004415Y003139D01*
X004442Y002883D02*
X004557Y002769D01*
X004557Y002692D01*
X004481Y002692D01*
X004404Y002769D01*
X004328Y002769D01*
X004328Y002692D01*
X004442Y002578D01*
X004622Y002551D02*
X004775Y002398D01*
X004737Y002360D02*
X004813Y002436D01*
X004813Y002512D01*
X004737Y002589D01*
X004661Y002589D01*
X004622Y002551D01*
X004584Y002436D02*
X004661Y002360D01*
X004737Y002360D01*
X004802Y002218D02*
X004917Y002103D01*
X004993Y002103D01*
X005070Y002180D01*
X005070Y002256D01*
X004955Y002371D01*
X005031Y002447D02*
X004802Y002218D01*
X004507Y002130D02*
X004354Y001977D01*
X001603Y003432D02*
X001526Y003356D01*
X001450Y003356D01*
X001374Y003432D01*
X001374Y003508D01*
X001450Y003585D01*
X001526Y003585D01*
X001603Y003508D01*
X001603Y003432D01*
X001385Y003727D02*
X001270Y003841D01*
X001194Y003841D01*
X001079Y003727D01*
X001232Y003574D02*
X001385Y003727D01*
X016853Y002038D02*
X017082Y001809D01*
X017158Y001885D02*
X017005Y001732D01*
X017262Y001989D02*
X017414Y002141D01*
X017338Y002065D02*
X017109Y002294D01*
X017262Y002294D01*
X017327Y002436D02*
X017632Y002436D01*
X017632Y002359D01*
X017556Y002283D01*
X017480Y002283D01*
X017327Y002436D01*
X017327Y002512D01*
X017403Y002589D01*
X017480Y002589D01*
X017632Y002436D01*
X017774Y002501D02*
X017927Y002654D01*
X017621Y002654D01*
X017583Y002692D01*
X017583Y002769D01*
X017660Y002845D01*
X017736Y002845D01*
X018235Y003038D02*
X018273Y003000D01*
X018311Y003038D01*
X018273Y003077D01*
X018235Y003038D01*
X018406Y003133D02*
X018406Y003209D01*
X018253Y003362D01*
X018329Y003362D02*
X018253Y003286D01*
X018433Y003466D02*
X018548Y003580D01*
X018624Y003580D01*
X018700Y003504D01*
X018700Y003428D01*
X018586Y003313D01*
X018804Y003607D02*
X018727Y003684D01*
X018727Y003760D01*
X018804Y003837D01*
X018880Y003837D01*
X018957Y003760D01*
X018957Y003684D01*
X018880Y003607D01*
X018804Y003607D01*
X017005Y002038D02*
X016853Y002038D01*
D11*
X011769Y005147D03*
X011769Y005895D03*
X010745Y005895D03*
X010745Y005521D03*
X010745Y005147D03*
D12*
X012113Y016771D03*
X012487Y016771D03*
X012861Y016771D03*
X012861Y017795D03*
X012113Y017795D03*
D13*
X012232Y018366D03*
X012743Y018366D03*
X013167Y011525D03*
X013678Y011525D03*
X013678Y010344D03*
X013167Y010344D03*
X011710Y008474D03*
X011198Y008474D03*
X009545Y008671D03*
X009033Y008671D03*
D14*
X008954Y009458D03*
X009623Y009458D03*
X010923Y006604D03*
X011592Y006604D03*
X011592Y004439D03*
X010923Y004439D03*
X013088Y010935D03*
X013757Y010935D03*
D15*
X012340Y005777D03*
X012340Y005265D03*
X008108Y005856D03*
X008108Y006368D03*
D16*
X009510Y005118D03*
X009510Y004448D03*
X011306Y016948D03*
X011306Y017618D03*
X013570Y017618D03*
X013570Y016948D03*
D17*
X009052Y006486D03*
X009052Y005738D03*
X009919Y006112D03*
D18*
X008448Y004685D03*
X006389Y004685D03*
X007316Y006702D03*
X005257Y006702D03*
D19*
X006828Y002962D03*
X007812Y002962D03*
X008797Y002962D03*
X009781Y002962D03*
X009781Y001962D03*
X008797Y001962D03*
X007812Y001962D03*
X006828Y001962D03*
X006828Y000962D03*
X007812Y000962D03*
X008797Y000962D03*
X009781Y000962D03*
X011356Y000962D03*
X012340Y000962D03*
X013324Y000962D03*
X014308Y000962D03*
X014308Y001962D03*
X013324Y001962D03*
X012340Y001962D03*
X011356Y001962D03*
X011356Y002962D03*
X012340Y002962D03*
X013324Y002962D03*
X014308Y002962D03*
D20*
X002793Y007834D03*
X002793Y008228D03*
X002793Y008622D03*
X002793Y009015D03*
X002793Y010689D03*
X002793Y011082D03*
X002793Y011476D03*
X002793Y011870D03*
X002793Y012263D03*
X002793Y012657D03*
D21*
X001267Y013169D03*
X001267Y010177D03*
X001267Y009527D03*
X001267Y007322D03*
D22*
X002005Y007834D03*
X002989Y006407D03*
X004958Y005669D03*
X006533Y006358D03*
X007419Y004685D03*
X008403Y006702D03*
X009549Y006112D03*
X010174Y005472D03*
X012340Y004832D03*
X012241Y004340D03*
X012709Y004340D03*
X013127Y005251D03*
X013127Y006259D03*
X012512Y006210D03*
X012143Y006604D03*
X017261Y009360D03*
X019082Y009261D03*
X019082Y012608D03*
X019082Y013198D03*
X014800Y013543D03*
X014161Y011919D03*
X012389Y016004D03*
X011799Y017234D03*
X011799Y018612D03*
X012340Y018907D03*
X014062Y017578D03*
X014062Y017037D03*
X009928Y017874D03*
X009904Y018366D03*
X008477Y016816D03*
X009289Y015511D03*
X006779Y014921D03*
X002104Y014281D03*
X002104Y013666D03*
X002104Y012485D03*
X001513Y011156D03*
X002104Y009655D03*
X003949Y009089D03*
X005106Y010147D03*
D23*
X005450Y009827D03*
X005450Y009335D03*
X005425Y008794D03*
X004860Y008720D03*
X005991Y006899D03*
X006828Y008769D03*
X007369Y008917D03*
X008600Y008277D03*
X008452Y007613D03*
X009289Y007194D03*
X009682Y006899D03*
X010125Y006998D03*
X010199Y007367D03*
X010125Y006555D03*
X011331Y007145D03*
X012241Y007441D03*
X012832Y006948D03*
X013718Y006407D03*
X014702Y007687D03*
X015268Y007465D03*
X015662Y007071D03*
X015391Y008966D03*
X015391Y009754D03*
X014210Y010959D03*
X015539Y011919D03*
X015932Y011919D03*
X017089Y011870D03*
X015243Y014429D03*
X013964Y013444D03*
X013472Y013444D03*
X013127Y013297D03*
X012832Y013691D03*
X012389Y013297D03*
X011602Y013543D03*
X011110Y013543D03*
X011110Y014380D03*
X009928Y013838D03*
X009436Y014035D03*
X009732Y014429D03*
X010273Y015856D03*
X010765Y016446D03*
X011356Y016446D03*
X011897Y015757D03*
X012832Y015659D03*
X013127Y016250D03*
X013718Y016250D03*
X014259Y016422D03*
X012635Y014576D03*
X013816Y012903D03*
X014111Y012509D03*
X012537Y011968D03*
X011946Y011820D03*
X012241Y011131D03*
X012241Y010738D03*
X011257Y011525D03*
X010863Y011820D03*
X010470Y011476D03*
X009978Y011722D03*
X009141Y011722D03*
X008698Y012017D03*
X007615Y013100D03*
X007517Y012509D03*
X006730Y011968D03*
X006041Y010935D03*
X006533Y010639D03*
X007099Y010516D03*
X008993Y010738D03*
X010568Y009212D03*
X010273Y008572D03*
X009879Y009065D03*
X009289Y009065D03*
X011454Y008868D03*
X011552Y009360D03*
X011946Y009655D03*
X012094Y008769D03*
X012241Y008376D03*
X013865Y005054D03*
X019771Y005620D03*
X019771Y014872D03*
X018984Y014872D03*
X018787Y015757D03*
X013988Y019055D03*
X010371Y018858D03*
X009879Y017283D03*
X009387Y017185D03*
X008698Y017209D03*
X009092Y016397D03*
X009436Y016053D03*
X007419Y016397D03*
X006976Y016840D03*
X007591Y017209D03*
X007468Y018120D03*
X004343Y013863D03*
X005056Y013469D03*
X005032Y012829D03*
X004392Y012017D03*
X004048Y011624D03*
X003875Y012313D03*
X003752Y012829D03*
X004761Y011328D03*
X005253Y011328D03*
X004810Y010787D03*
X006730Y013248D03*
X008403Y013494D03*
X002079Y010369D03*
X001587Y010689D03*
D24*
X008600Y008277D02*
X008639Y008277D01*
X009033Y008671D01*
X009289Y009065D02*
X009289Y009124D01*
X008954Y009458D01*
X009623Y009458D02*
X009623Y009320D01*
X009879Y009065D01*
X009545Y008730D01*
X009545Y008671D01*
X011198Y008474D02*
X011454Y008730D01*
X011454Y008868D01*
X011710Y008474D02*
X011808Y008376D01*
X012241Y008376D01*
X013167Y010344D02*
X013167Y010856D01*
X013088Y010935D01*
X012891Y011131D01*
X012241Y011131D01*
X013167Y011525D02*
X013757Y010935D01*
X014210Y011230D02*
X013915Y011525D01*
X013678Y011525D01*
X014210Y011230D02*
X014210Y010959D01*
X014210Y010639D01*
X013915Y010344D01*
X013678Y010344D01*
D25*
X012143Y006604D02*
X011592Y006604D01*
X012512Y006210D02*
X012709Y006013D01*
X012709Y004340D01*
X012241Y004340D01*
X012143Y004439D01*
X011592Y004439D01*
X010923Y004439D02*
X010913Y004448D01*
X009510Y004448D01*
X009510Y005118D02*
X008881Y005118D01*
X008448Y004685D01*
X007419Y004685D01*
X006389Y004685D02*
X006389Y004369D01*
X006090Y004069D01*
X006090Y002700D01*
X006828Y001962D01*
X009781Y001962D02*
X009863Y001962D01*
X011257Y001978D02*
X011356Y001978D01*
X011356Y001962D01*
X012340Y004832D02*
X012340Y005265D01*
X009919Y006112D02*
X009549Y006112D01*
X009052Y006486D02*
X008974Y006486D01*
X008344Y005856D01*
X008108Y005856D01*
X008098Y005866D01*
X007714Y005866D01*
X007316Y006263D01*
X007316Y006702D01*
X008108Y006407D02*
X008403Y006702D01*
X008108Y006407D02*
X008108Y006368D01*
X009052Y005738D02*
X009510Y005280D01*
X009510Y005118D01*
X005257Y006702D02*
X005204Y006702D01*
X005007Y006899D01*
X002940Y006899D01*
X002005Y007834D01*
D26*
X002793Y008622D02*
X003482Y008622D01*
X003949Y009089D01*
X002793Y009015D02*
X002399Y009015D01*
X002104Y009311D01*
X002104Y009655D01*
X002300Y012263D02*
X002104Y012460D01*
X002104Y013666D01*
X002104Y014281D02*
X002448Y014281D01*
X002793Y013863D01*
X002793Y012657D01*
X002793Y012263D02*
X002300Y012263D01*
X009919Y006112D02*
X010135Y005895D01*
X010745Y005895D01*
X010765Y005915D01*
X011257Y005915D01*
X011257Y006112D01*
X010923Y006446D01*
X010923Y006604D01*
X011257Y005915D02*
X011257Y005324D01*
X011060Y005128D01*
X010765Y005128D01*
X010745Y005147D01*
X010745Y005521D02*
X010224Y005521D01*
X010174Y005472D01*
X010174Y005029D01*
X010470Y004734D01*
X010627Y004734D01*
X010923Y004439D01*
X011592Y004439D02*
X011769Y004616D01*
X011769Y005147D01*
X012340Y005777D02*
X012222Y005895D01*
X011769Y005895D01*
X013167Y011525D02*
X013167Y011663D01*
X013423Y011919D01*
X014161Y011919D01*
X013167Y011614D02*
X013167Y011525D01*
X012389Y016004D02*
X012487Y016102D01*
X012487Y016771D01*
X012113Y016771D02*
X012113Y017106D01*
X012241Y017234D01*
X012734Y017234D01*
X012861Y017106D01*
X012861Y016771D01*
X013570Y016948D02*
X013974Y016948D01*
X014062Y017037D01*
X014062Y017578D02*
X014023Y017618D01*
X013570Y017618D01*
X013393Y017795D01*
X012861Y017795D01*
X012743Y018366D02*
X012743Y018504D01*
X012340Y018907D01*
X011799Y018612D02*
X011306Y018120D01*
X011306Y017618D01*
X011799Y017234D02*
X011799Y016791D01*
X011897Y016771D02*
X012113Y016771D01*
X011897Y016771D02*
X011484Y016771D01*
X011306Y016948D01*
X012113Y017795D02*
X012113Y018248D01*
X012232Y018366D01*
D27*
X011877Y016791D02*
X011897Y016771D01*
X011877Y016791D02*
X011799Y016791D01*
X012832Y015659D02*
X012291Y015118D01*
X010421Y015118D01*
X009732Y014429D01*
X011257Y012903D01*
X011257Y011525D01*
X011356Y011230D02*
X011060Y011230D01*
X010863Y011427D01*
X010863Y011820D01*
X010863Y012903D01*
X009928Y013838D01*
X009436Y014035D02*
X009436Y014822D01*
X009781Y015167D01*
X009781Y016791D01*
X009387Y017185D01*
X008698Y017209D02*
X008280Y017209D01*
X007911Y016840D01*
X007911Y016053D01*
X007173Y015315D01*
X007173Y012411D01*
X006730Y011968D01*
X007222Y011722D02*
X009141Y011722D01*
X007222Y011722D02*
X006090Y010590D01*
X006090Y010467D01*
X005450Y009827D01*
X004515Y009065D02*
X004860Y008720D01*
X004810Y008769D01*
X004860Y008720D01*
X004515Y009065D02*
X003211Y010369D01*
X002079Y010369D01*
X002793Y010689D02*
X003580Y010689D01*
X003924Y011033D01*
X005942Y011033D01*
X006041Y010935D01*
X006533Y010639D02*
X006533Y009065D01*
X006828Y008769D01*
X007099Y009188D02*
X007099Y010516D01*
X007099Y009188D02*
X007369Y008917D01*
X007419Y008228D02*
X008354Y007293D01*
X009190Y007293D01*
X009289Y007194D01*
X009092Y006899D02*
X009682Y006899D01*
X010125Y006555D02*
X010568Y006998D01*
X010568Y009212D01*
X010273Y008572D02*
X009313Y007613D01*
X008452Y007613D01*
X008206Y007096D02*
X007468Y007834D01*
X002793Y007834D01*
X002793Y008228D02*
X007419Y008228D01*
X008206Y007096D02*
X008895Y007096D01*
X009092Y006899D01*
X011331Y007145D02*
X012241Y007145D01*
X013127Y006259D01*
X013718Y006407D02*
X013718Y007391D01*
X012340Y008769D01*
X012094Y008769D01*
X011552Y009360D02*
X013669Y009360D01*
X015932Y011624D01*
X015932Y011919D01*
X015539Y011919D02*
X015539Y011525D01*
X013669Y009655D01*
X011946Y009655D01*
X011356Y011230D02*
X011552Y011427D01*
X011552Y012067D01*
X012832Y013346D01*
X012832Y013691D01*
X013127Y013986D01*
X013127Y016250D01*
X012635Y014576D02*
X011602Y013543D01*
X011110Y013543D02*
X011110Y014380D01*
X009436Y016053D02*
X009190Y016053D01*
X008403Y015265D01*
X008403Y013494D01*
X005253Y012608D02*
X005253Y011328D01*
X004761Y011328D02*
X004761Y013444D01*
X004343Y013863D01*
X005032Y012829D02*
X005253Y012608D01*
X004392Y012017D02*
X004343Y011968D01*
X003924Y011968D01*
X003432Y011476D01*
X002793Y011476D01*
X002793Y011082D02*
X003506Y011082D01*
X004048Y011624D01*
X003432Y011870D02*
X003875Y012313D01*
X003432Y011870D02*
X002793Y011870D01*
X005991Y006899D02*
X005795Y006702D01*
X005257Y006702D01*
X012537Y011968D02*
X012783Y012214D01*
X016744Y012214D01*
X017089Y011870D01*
X018393Y014281D02*
X018984Y014872D01*
X018393Y014281D02*
X018393Y008425D01*
X017040Y007071D01*
X015662Y007071D01*
X015268Y007465D02*
X016646Y007465D01*
X017975Y008794D01*
X017975Y014945D01*
X018787Y015757D01*
D28*
X014308Y001962D02*
X013324Y001962D01*
X012340Y001962D01*
X011356Y001962D01*
X009781Y001962D01*
X008797Y001962D01*
X007812Y001962D01*
X006828Y001962D01*
M02*
