G75*
G70*
%OFA0B0*%
%FSLAX24Y24*%
%IPPOS*%
%LPD*%
%AMOC8*
5,1,8,0,0,1.08239X$1,22.5*
%
%ADD10C,0.0600*%
%ADD11C,0.0337*%
%ADD12C,0.0280*%
%ADD13C,0.0080*%
%ADD14C,0.0160*%
%ADD15C,0.0240*%
%ADD16C,0.0400*%
D10*
X006828Y000962D03*
X007812Y000962D03*
X008797Y000962D03*
X009781Y000962D03*
X009781Y001962D03*
X008797Y001962D03*
X007812Y001962D03*
X006828Y001962D03*
X006828Y002962D03*
X007812Y002962D03*
X008797Y002962D03*
X009781Y002962D03*
X011356Y002962D03*
X012340Y002962D03*
X013324Y002962D03*
X014308Y002962D03*
X014308Y001962D03*
X013324Y001962D03*
X012340Y001962D03*
X011356Y001962D03*
X011356Y000962D03*
X012340Y000962D03*
X013324Y000962D03*
X014308Y000962D03*
D11*
X012709Y004340D03*
X012241Y004340D03*
X012340Y004832D03*
X013127Y005251D03*
X013127Y006259D03*
X012512Y006210D03*
X012143Y006604D03*
X010174Y005472D03*
X009549Y006112D03*
X008403Y006702D03*
X006533Y006358D03*
X004958Y005669D03*
X002989Y006407D03*
X002005Y007834D03*
X002104Y009655D03*
X003949Y009089D03*
X005106Y010147D03*
X002104Y012854D03*
X002104Y013395D03*
X006779Y014921D03*
X008477Y016816D03*
X009289Y015511D03*
X009928Y017874D03*
X009904Y018366D03*
X011799Y018612D03*
X012340Y018907D03*
X011799Y017234D03*
X012389Y016004D03*
X014062Y017037D03*
X014062Y017578D03*
X014800Y013543D03*
X014161Y011919D03*
X017261Y009360D03*
X019082Y009261D03*
X019082Y012608D03*
X019082Y013198D03*
X007419Y004685D03*
D12*
X005991Y006899D03*
X005425Y008794D03*
X005450Y009335D03*
X005450Y009827D03*
X004810Y010762D03*
X004761Y011328D03*
X005253Y011328D03*
X006041Y010935D03*
X006533Y010639D03*
X007099Y010516D03*
X007369Y008917D03*
X006828Y008769D03*
X008600Y008277D03*
X008452Y007613D03*
X009289Y007194D03*
X009682Y006899D03*
X010125Y006998D03*
X010199Y007367D03*
X010125Y006555D03*
X011331Y007145D03*
X012241Y007441D03*
X012832Y006948D03*
X013718Y006407D03*
X014702Y007687D03*
X015268Y007465D03*
X015662Y007071D03*
X015391Y008966D03*
X015391Y009754D03*
X014210Y010959D03*
X015539Y011919D03*
X015932Y011919D03*
X017089Y011870D03*
X015243Y014429D03*
X013964Y013444D03*
X013472Y013444D03*
X013127Y013297D03*
X012832Y013691D03*
X012389Y013297D03*
X011602Y013543D03*
X011110Y013543D03*
X011110Y014380D03*
X009928Y013838D03*
X009436Y014035D03*
X009732Y014429D03*
X010273Y015856D03*
X010765Y016446D03*
X011356Y016446D03*
X011897Y015757D03*
X012832Y015659D03*
X013127Y016250D03*
X013718Y016250D03*
X014259Y016422D03*
X012635Y014576D03*
X013816Y012903D03*
X014111Y012509D03*
X012537Y011968D03*
X011946Y011820D03*
X012241Y011131D03*
X012241Y010738D03*
X011257Y011525D03*
X010863Y011820D03*
X010470Y011476D03*
X009978Y011722D03*
X009141Y011722D03*
X008698Y012017D03*
X007615Y013100D03*
X007517Y012509D03*
X006730Y011968D03*
X006730Y013248D03*
X005056Y013469D03*
X005032Y012829D03*
X004392Y012017D03*
X004048Y011624D03*
X003875Y012313D03*
X003752Y012829D03*
X004343Y013863D03*
X006976Y016840D03*
X007419Y016397D03*
X007591Y017209D03*
X007468Y018120D03*
X008698Y017209D03*
X009387Y017185D03*
X009879Y017283D03*
X009092Y016397D03*
X009436Y016053D03*
X008108Y014970D03*
X008403Y013494D03*
X010076Y012952D03*
X008993Y010738D03*
X010568Y009212D03*
X010273Y008572D03*
X009879Y009065D03*
X009289Y009065D03*
X011454Y008868D03*
X011552Y009360D03*
X011946Y009655D03*
X012094Y008769D03*
X012241Y008376D03*
X013865Y005054D03*
X019771Y005620D03*
X019771Y014872D03*
X018984Y014872D03*
X018787Y015757D03*
X013988Y019055D03*
X010371Y018858D03*
X004860Y008720D03*
D13*
X001002Y001027D02*
X001148Y000826D01*
X001349Y000680D01*
X001586Y000603D01*
X001710Y000593D01*
X006674Y000593D01*
X006601Y000623D01*
X006489Y000736D01*
X006428Y000883D01*
X006428Y001042D01*
X006489Y001189D01*
X006601Y001301D01*
X006748Y001362D01*
X006908Y001362D01*
X007055Y001301D01*
X007167Y001189D01*
X007228Y001042D01*
X007228Y000883D01*
X007167Y000736D01*
X007055Y000623D01*
X006982Y000593D01*
X007658Y000593D01*
X007586Y000623D01*
X007473Y000736D01*
X007412Y000883D01*
X007412Y001042D01*
X007473Y001189D01*
X007586Y001301D01*
X007733Y001362D01*
X007892Y001362D01*
X008039Y001301D01*
X008151Y001189D01*
X008212Y001042D01*
X008212Y000883D01*
X008151Y000736D01*
X008039Y000623D01*
X007966Y000593D01*
X008642Y000593D01*
X008570Y000623D01*
X008457Y000736D01*
X008397Y000883D01*
X008397Y001042D01*
X008457Y001189D01*
X008570Y001301D01*
X008717Y001362D01*
X008876Y001362D01*
X009023Y001301D01*
X009136Y001189D01*
X009196Y001042D01*
X009196Y000883D01*
X009136Y000736D01*
X009023Y000623D01*
X008951Y000593D01*
X009627Y000593D01*
X009554Y000623D01*
X009442Y000736D01*
X009381Y000883D01*
X009381Y001042D01*
X009442Y001189D01*
X009554Y001301D01*
X009701Y001362D01*
X009860Y001362D01*
X010007Y001301D01*
X010120Y001189D01*
X010181Y001042D01*
X010181Y000883D01*
X010120Y000736D01*
X010007Y000623D01*
X009935Y000593D01*
X011201Y000593D01*
X011129Y000623D01*
X011016Y000736D01*
X010956Y000883D01*
X010956Y001042D01*
X011016Y001189D01*
X011129Y001301D01*
X011276Y001362D01*
X011435Y001362D01*
X011582Y001301D01*
X011695Y001189D01*
X011756Y001042D01*
X011756Y000883D01*
X011695Y000736D01*
X011582Y000623D01*
X011510Y000593D01*
X012186Y000593D01*
X012113Y000623D01*
X012001Y000736D01*
X011940Y000883D01*
X011940Y001042D01*
X012001Y001189D01*
X012113Y001301D01*
X012260Y001362D01*
X012419Y001362D01*
X012566Y001301D01*
X012679Y001189D01*
X012740Y001042D01*
X012740Y000883D01*
X012679Y000736D01*
X012566Y000623D01*
X012494Y000593D01*
X013170Y000593D01*
X013097Y000623D01*
X012985Y000736D01*
X012924Y000883D01*
X012924Y001042D01*
X012985Y001189D01*
X013097Y001301D01*
X013244Y001362D01*
X013404Y001362D01*
X013551Y001301D01*
X013663Y001189D01*
X013724Y001042D01*
X013724Y000883D01*
X013663Y000736D01*
X013551Y000623D01*
X013478Y000593D01*
X014154Y000593D01*
X014082Y000623D01*
X013969Y000736D01*
X013908Y000883D01*
X013908Y001042D01*
X013969Y001189D01*
X014082Y001301D01*
X014229Y001362D01*
X014388Y001362D01*
X014535Y001301D01*
X014647Y001189D01*
X014708Y001042D01*
X014708Y000883D01*
X014647Y000736D01*
X014535Y000623D01*
X014462Y000593D01*
X019348Y000593D01*
X019360Y000593D01*
X019426Y000593D01*
X019551Y000603D01*
X019787Y000680D01*
X019988Y000826D01*
X020134Y001027D01*
X020211Y001263D01*
X020221Y001387D01*
X020221Y019104D01*
X020211Y019228D01*
X020134Y019464D01*
X019988Y019666D01*
X019787Y019812D01*
X019551Y019888D01*
X019426Y019898D01*
X010723Y019898D01*
X009239Y018415D01*
X009239Y017833D01*
X009355Y017948D01*
X009460Y018054D01*
X009729Y018054D01*
X009776Y018101D01*
X009809Y018115D01*
X009752Y018138D01*
X009676Y018214D01*
X009635Y018312D01*
X009635Y018419D01*
X009676Y018518D01*
X009752Y018593D01*
X009850Y018634D01*
X009957Y018634D01*
X010056Y018593D01*
X010131Y018518D01*
X010172Y018419D01*
X010172Y018312D01*
X010131Y018214D01*
X010056Y018138D01*
X010023Y018125D01*
X010080Y018101D01*
X010128Y018054D01*
X010987Y018054D01*
X011093Y017948D01*
X011184Y017857D01*
X011184Y017857D01*
X011289Y017751D01*
X011289Y017308D01*
X011676Y016922D01*
X013151Y016922D01*
X013794Y017564D01*
X013794Y017632D01*
X013835Y017730D01*
X013910Y017806D01*
X014009Y017847D01*
X014116Y017847D01*
X014214Y017806D01*
X014262Y017758D01*
X014283Y017758D01*
X014432Y017758D01*
X014875Y017315D01*
X014980Y017210D01*
X014980Y013742D01*
X015028Y013695D01*
X015069Y013596D01*
X015069Y013489D01*
X015028Y013391D01*
X014953Y013315D01*
X014882Y013286D01*
X014882Y011993D01*
X017247Y009628D01*
X017314Y009628D01*
X017413Y009587D01*
X017489Y009512D01*
X017529Y009413D01*
X017529Y009306D01*
X017489Y009208D01*
X017413Y009132D01*
X017314Y009091D01*
X017208Y009091D01*
X017109Y009132D01*
X017034Y009208D01*
X016993Y009306D01*
X016993Y009374D01*
X014628Y011739D01*
X014627Y011739D01*
X014360Y011739D01*
X014313Y011691D01*
X014214Y011650D01*
X014107Y011650D01*
X014009Y011691D01*
X013933Y011767D01*
X013892Y011865D01*
X013892Y011972D01*
X013933Y012071D01*
X014009Y012146D01*
X014107Y012187D01*
X014214Y012187D01*
X014313Y012146D01*
X014360Y012099D01*
X014522Y012099D01*
X014522Y013370D01*
X014522Y013519D01*
X014532Y013529D01*
X014532Y013596D01*
X014573Y013695D01*
X014620Y013742D01*
X014620Y017061D01*
X014283Y017398D01*
X014262Y017398D01*
X014214Y017351D01*
X014116Y017310D01*
X014048Y017310D01*
X014044Y017305D01*
X014116Y017305D01*
X014214Y017265D01*
X014290Y017189D01*
X014331Y017090D01*
X014331Y016984D01*
X014290Y016885D01*
X014214Y016809D01*
X014116Y016769D01*
X014009Y016769D01*
X013910Y016809D01*
X013835Y016885D01*
X013794Y016984D01*
X013794Y017055D01*
X013300Y016562D01*
X013151Y016562D01*
X011527Y016562D01*
X011422Y016667D01*
X010930Y017159D01*
X010930Y017308D01*
X010930Y017602D01*
X010838Y017694D01*
X010128Y017694D01*
X010080Y017646D01*
X009982Y017605D01*
X009875Y017605D01*
X009776Y017646D01*
X009729Y017694D01*
X009609Y017694D01*
X009340Y017425D01*
X009435Y017425D01*
X009523Y017388D01*
X009591Y017321D01*
X009627Y017232D01*
X009627Y017137D01*
X009591Y017049D01*
X009523Y016981D01*
X009435Y016945D01*
X009339Y016945D01*
X009251Y016981D01*
X009223Y017010D01*
X009223Y016962D01*
X009117Y016857D01*
X008896Y016636D01*
X008747Y016636D01*
X008676Y016636D01*
X008629Y016588D01*
X008530Y016547D01*
X008423Y016547D01*
X008325Y016588D01*
X008249Y016663D01*
X008208Y016762D01*
X008208Y016869D01*
X008249Y016968D01*
X008325Y017043D01*
X008423Y017084D01*
X008490Y017084D01*
X008458Y017161D01*
X008458Y017257D01*
X008489Y017332D01*
X007665Y017332D01*
X007665Y017977D01*
X007604Y017916D01*
X007516Y017880D01*
X007420Y017880D01*
X007332Y017916D01*
X007264Y017984D01*
X007228Y018072D01*
X007228Y018167D01*
X007264Y018256D01*
X007332Y018323D01*
X007420Y018360D01*
X007516Y018360D01*
X007604Y018323D01*
X007665Y018262D01*
X007665Y018415D01*
X006181Y019898D01*
X001789Y019898D01*
X001743Y019898D01*
X001710Y019898D01*
X001586Y019888D01*
X001349Y019812D01*
X001148Y019666D01*
X001002Y019464D01*
X000925Y019228D01*
X000916Y019104D01*
X000916Y001466D01*
X000916Y001450D01*
X000916Y001387D01*
X000925Y001263D01*
X001002Y001027D01*
X001001Y001031D02*
X001159Y001031D01*
X001147Y001044D02*
X001366Y000824D01*
X001653Y000705D01*
X001964Y000705D01*
X002250Y000824D01*
X002470Y001044D01*
X002589Y001331D01*
X002589Y001641D01*
X002470Y001928D01*
X002250Y002148D01*
X001964Y002266D01*
X001653Y002266D01*
X001366Y002148D01*
X001147Y001928D01*
X001028Y001641D01*
X001028Y001331D01*
X001147Y001044D01*
X001119Y001110D02*
X000975Y001110D01*
X000950Y001189D02*
X001087Y001189D01*
X001054Y001267D02*
X000925Y001267D01*
X000919Y001346D02*
X001028Y001346D01*
X001028Y001424D02*
X000916Y001424D01*
X000916Y001503D02*
X001028Y001503D01*
X001028Y001581D02*
X000916Y001581D01*
X000916Y001660D02*
X001036Y001660D01*
X001068Y001738D02*
X000916Y001738D01*
X000916Y001817D02*
X001101Y001817D01*
X001133Y001895D02*
X000916Y001895D01*
X000916Y001974D02*
X001193Y001974D01*
X001271Y002053D02*
X000916Y002053D01*
X000916Y002131D02*
X001350Y002131D01*
X001516Y002210D02*
X000916Y002210D01*
X000916Y002288D02*
X006588Y002288D01*
X006601Y002301D02*
X006489Y002189D01*
X006428Y002042D01*
X006428Y001883D01*
X006489Y001736D01*
X006601Y001623D01*
X006748Y001562D01*
X006908Y001562D01*
X007055Y001623D01*
X007094Y001662D01*
X007547Y001662D01*
X007586Y001623D01*
X007733Y001562D01*
X007892Y001562D01*
X008039Y001623D01*
X008078Y001662D01*
X008531Y001662D01*
X008570Y001623D01*
X008717Y001562D01*
X008876Y001562D01*
X009023Y001623D01*
X009062Y001662D01*
X009515Y001662D01*
X009554Y001623D01*
X009701Y001562D01*
X009860Y001562D01*
X010007Y001623D01*
X010046Y001662D01*
X011090Y001662D01*
X011129Y001623D01*
X011276Y001562D01*
X011435Y001562D01*
X011582Y001623D01*
X011621Y001662D01*
X012074Y001662D01*
X012113Y001623D01*
X012260Y001562D01*
X012419Y001562D01*
X012566Y001623D01*
X012605Y001662D01*
X013058Y001662D01*
X013097Y001623D01*
X013244Y001562D01*
X013404Y001562D01*
X013551Y001623D01*
X013590Y001662D01*
X014043Y001662D01*
X014082Y001623D01*
X014229Y001562D01*
X014388Y001562D01*
X014535Y001623D01*
X014647Y001736D01*
X014708Y001883D01*
X014708Y002042D01*
X014647Y002189D01*
X014535Y002301D01*
X014388Y002362D01*
X014229Y002362D01*
X014082Y002301D01*
X014043Y002262D01*
X013590Y002262D01*
X013551Y002301D01*
X013404Y002362D01*
X013244Y002362D01*
X013097Y002301D01*
X013058Y002262D01*
X012605Y002262D01*
X012566Y002301D01*
X012419Y002362D01*
X012260Y002362D01*
X012113Y002301D01*
X012074Y002262D01*
X011621Y002262D01*
X011582Y002301D01*
X011435Y002362D01*
X011276Y002362D01*
X011129Y002301D01*
X011090Y002262D01*
X010046Y002262D01*
X010007Y002301D01*
X009860Y002362D01*
X009701Y002362D01*
X009554Y002301D01*
X009515Y002262D01*
X009062Y002262D01*
X009023Y002301D01*
X008876Y002362D01*
X008717Y002362D01*
X008570Y002301D01*
X008531Y002262D01*
X008078Y002262D01*
X008039Y002301D01*
X007892Y002362D01*
X007733Y002362D01*
X007586Y002301D01*
X007547Y002262D01*
X007094Y002262D01*
X007055Y002301D01*
X006908Y002362D01*
X006748Y002362D01*
X006601Y002301D01*
X006510Y002210D02*
X002100Y002210D01*
X002267Y002131D02*
X006465Y002131D01*
X006433Y002053D02*
X002345Y002053D01*
X002424Y001974D02*
X006428Y001974D01*
X006428Y001895D02*
X002484Y001895D01*
X002516Y001817D02*
X006455Y001817D01*
X006488Y001738D02*
X002549Y001738D01*
X002581Y001660D02*
X006565Y001660D01*
X006702Y001581D02*
X002589Y001581D01*
X002589Y001503D02*
X018547Y001503D01*
X018547Y001581D02*
X014434Y001581D01*
X014572Y001660D02*
X018555Y001660D01*
X018547Y001641D02*
X018547Y001331D01*
X018666Y001044D01*
X018886Y000824D01*
X019173Y000705D01*
X019483Y000705D01*
X019770Y000824D01*
X019990Y001044D01*
X020109Y001331D01*
X020109Y001641D01*
X019990Y001928D01*
X019770Y002148D01*
X019483Y002266D01*
X019173Y002266D01*
X018886Y002148D01*
X018666Y001928D01*
X018547Y001641D01*
X018588Y001738D02*
X014649Y001738D01*
X014681Y001817D02*
X018620Y001817D01*
X018653Y001895D02*
X014708Y001895D01*
X014708Y001974D02*
X018712Y001974D01*
X018791Y002053D02*
X014704Y002053D01*
X014671Y002131D02*
X018869Y002131D01*
X019036Y002210D02*
X014627Y002210D01*
X014548Y002288D02*
X020221Y002288D01*
X020221Y002210D02*
X019620Y002210D01*
X019787Y002131D02*
X020221Y002131D01*
X020221Y002053D02*
X019865Y002053D01*
X019944Y001974D02*
X020221Y001974D01*
X020221Y001895D02*
X020003Y001895D01*
X020036Y001817D02*
X020221Y001817D01*
X020221Y001738D02*
X020068Y001738D01*
X020101Y001660D02*
X020221Y001660D01*
X020221Y001581D02*
X020109Y001581D01*
X020109Y001503D02*
X020221Y001503D01*
X020221Y001424D02*
X020109Y001424D01*
X020109Y001346D02*
X020217Y001346D01*
X020211Y001267D02*
X020082Y001267D01*
X020050Y001189D02*
X020187Y001189D01*
X020161Y001110D02*
X020017Y001110D01*
X019978Y001031D02*
X020136Y001031D01*
X020081Y000953D02*
X019899Y000953D01*
X019820Y000874D02*
X020023Y000874D01*
X019947Y000796D02*
X019702Y000796D01*
X019839Y000717D02*
X019512Y000717D01*
X019661Y000639D02*
X014551Y000639D01*
X014629Y000717D02*
X019144Y000717D01*
X018954Y000796D02*
X014672Y000796D01*
X014705Y000874D02*
X018836Y000874D01*
X018757Y000953D02*
X014708Y000953D01*
X014708Y001031D02*
X018678Y001031D01*
X018639Y001110D02*
X014680Y001110D01*
X014648Y001189D02*
X018606Y001189D01*
X018574Y001267D02*
X014569Y001267D01*
X014428Y001346D02*
X018547Y001346D01*
X018547Y001424D02*
X002589Y001424D01*
X002589Y001346D02*
X006709Y001346D01*
X006567Y001267D02*
X002563Y001267D01*
X002530Y001189D02*
X006489Y001189D01*
X006456Y001110D02*
X002498Y001110D01*
X002458Y001031D02*
X006428Y001031D01*
X006428Y000953D02*
X002379Y000953D01*
X002301Y000874D02*
X006431Y000874D01*
X006464Y000796D02*
X002182Y000796D01*
X001993Y000717D02*
X006507Y000717D01*
X006586Y000639D02*
X001475Y000639D01*
X001434Y000796D02*
X001189Y000796D01*
X001113Y000874D02*
X001316Y000874D01*
X001237Y000953D02*
X001056Y000953D01*
X001298Y000717D02*
X001624Y000717D01*
X000916Y002367D02*
X020221Y002367D01*
X020221Y002445D02*
X000916Y002445D01*
X000916Y002524D02*
X020221Y002524D01*
X020221Y002602D02*
X014485Y002602D01*
X014535Y002623D02*
X014647Y002736D01*
X014708Y002883D01*
X014708Y003042D01*
X014647Y003189D01*
X014535Y003301D01*
X014388Y003362D01*
X014229Y003362D01*
X014082Y003301D01*
X013969Y003189D01*
X013908Y003042D01*
X013908Y002883D01*
X013969Y002736D01*
X014082Y002623D01*
X014229Y002562D01*
X014388Y002562D01*
X014535Y002623D01*
X014593Y002681D02*
X020221Y002681D01*
X020221Y002759D02*
X014657Y002759D01*
X014690Y002838D02*
X020221Y002838D01*
X020221Y002917D02*
X014708Y002917D01*
X014708Y002995D02*
X020221Y002995D01*
X020221Y003074D02*
X014695Y003074D01*
X014663Y003152D02*
X020221Y003152D01*
X020221Y003231D02*
X014605Y003231D01*
X014516Y003309D02*
X020221Y003309D01*
X020221Y003388D02*
X000916Y003388D01*
X000916Y003466D02*
X004396Y003466D01*
X004409Y003461D02*
X004719Y003461D01*
X005006Y003580D01*
X005226Y003800D01*
X005345Y004086D01*
X005345Y004397D01*
X005226Y004684D01*
X005006Y004903D01*
X004719Y005022D01*
X004409Y005022D01*
X004122Y004903D01*
X003903Y004684D01*
X003784Y004397D01*
X003784Y004086D01*
X003903Y003800D01*
X004122Y003580D01*
X004409Y003461D01*
X004207Y003545D02*
X000916Y003545D01*
X000916Y003623D02*
X004079Y003623D01*
X004000Y003702D02*
X000916Y003702D01*
X000916Y003781D02*
X003922Y003781D01*
X003878Y003859D02*
X000916Y003859D01*
X000916Y003938D02*
X003845Y003938D01*
X003813Y004016D02*
X000916Y004016D01*
X000916Y004095D02*
X003784Y004095D01*
X003784Y004173D02*
X000916Y004173D01*
X000916Y004252D02*
X003784Y004252D01*
X003784Y004330D02*
X000916Y004330D01*
X000916Y004409D02*
X003789Y004409D01*
X003821Y004487D02*
X000916Y004487D01*
X000916Y004566D02*
X003854Y004566D01*
X003886Y004644D02*
X000916Y004644D01*
X000916Y004723D02*
X003942Y004723D01*
X004020Y004802D02*
X000916Y004802D01*
X000916Y004880D02*
X004099Y004880D01*
X004255Y004959D02*
X000916Y004959D01*
X000916Y005037D02*
X005918Y005037D01*
X005840Y005116D02*
X000916Y005116D01*
X000916Y005194D02*
X005761Y005194D01*
X005683Y005273D02*
X000916Y005273D01*
X000916Y005351D02*
X005604Y005351D01*
X005526Y005430D02*
X000916Y005430D01*
X000916Y005508D02*
X005447Y005508D01*
X005368Y005587D02*
X000916Y005587D01*
X000916Y005666D02*
X005290Y005666D01*
X005211Y005744D02*
X000916Y005744D01*
X000916Y005823D02*
X005133Y005823D01*
X005054Y005901D02*
X000916Y005901D01*
X000916Y005980D02*
X004976Y005980D01*
X004897Y006058D02*
X000916Y006058D01*
X000916Y006137D02*
X004819Y006137D01*
X004740Y006215D02*
X003177Y006215D01*
X003141Y006180D02*
X003217Y006255D01*
X003258Y006354D01*
X003258Y006460D01*
X003217Y006559D01*
X003141Y006635D01*
X003043Y006675D01*
X002936Y006675D01*
X002837Y006635D01*
X002762Y006559D01*
X002721Y006460D01*
X002721Y006354D01*
X002762Y006255D01*
X002837Y006180D01*
X002936Y006139D01*
X003043Y006139D01*
X003141Y006180D01*
X003233Y006294D02*
X004662Y006294D01*
X004583Y006372D02*
X003258Y006372D01*
X003258Y006451D02*
X004504Y006451D01*
X004426Y006530D02*
X003229Y006530D01*
X003168Y006608D02*
X004347Y006608D01*
X004269Y006687D02*
X000916Y006687D01*
X000916Y006765D02*
X004190Y006765D01*
X004112Y006844D02*
X000916Y006844D01*
X000916Y006922D02*
X004033Y006922D01*
X003955Y007001D02*
X000916Y007001D01*
X000916Y007079D02*
X003876Y007079D01*
X003798Y007158D02*
X000916Y007158D01*
X000916Y007236D02*
X003719Y007236D01*
X003641Y007315D02*
X000916Y007315D01*
X000916Y007394D02*
X003562Y007394D01*
X003514Y007442D02*
X006362Y004594D01*
X006491Y004465D01*
X007259Y004465D01*
X007266Y004457D01*
X007365Y004416D01*
X007376Y004416D01*
X007986Y003806D01*
X008115Y003677D01*
X013454Y003677D01*
X013637Y003677D01*
X015581Y005621D01*
X016949Y005621D01*
X017131Y005621D01*
X019862Y008352D01*
X019991Y008481D01*
X019991Y011828D01*
X019991Y012010D01*
X019350Y012651D01*
X019350Y012661D01*
X019309Y012760D01*
X019234Y012835D01*
X019135Y012876D01*
X019029Y012876D01*
X018930Y012835D01*
X018854Y012760D01*
X018814Y012661D01*
X018814Y012554D01*
X018854Y012456D01*
X018930Y012380D01*
X019029Y012339D01*
X019039Y012339D01*
X019551Y011828D01*
X019551Y008664D01*
X016949Y006061D01*
X015398Y006061D01*
X015269Y005932D01*
X013454Y004117D01*
X008297Y004117D01*
X007687Y004727D01*
X007687Y004738D01*
X007646Y004837D01*
X007571Y004912D01*
X007472Y004953D01*
X007365Y004953D01*
X007266Y004912D01*
X007259Y004905D01*
X006673Y004905D01*
X003825Y007753D01*
X003825Y008850D01*
X003896Y008821D01*
X004002Y008821D01*
X004101Y008862D01*
X004177Y008937D01*
X004217Y009036D01*
X004217Y009143D01*
X004177Y009241D01*
X004169Y009249D01*
X004169Y009279D01*
X004040Y009408D01*
X003696Y009752D01*
X002324Y011124D01*
X002324Y012694D01*
X002331Y012702D01*
X002372Y012801D01*
X002372Y012907D01*
X002331Y013006D01*
X002256Y013081D01*
X002157Y013122D01*
X002050Y013122D01*
X001952Y013081D01*
X001876Y013006D01*
X001835Y012907D01*
X001835Y012801D01*
X001876Y012702D01*
X001884Y012694D01*
X001884Y011124D01*
X001884Y010942D01*
X003385Y009441D01*
X003385Y007571D01*
X003513Y007442D01*
X003514Y007442D01*
X003483Y007472D02*
X000916Y007472D01*
X000916Y007551D02*
X003405Y007551D01*
X003385Y007629D02*
X002180Y007629D01*
X002157Y007607D02*
X002233Y007682D01*
X002274Y007781D01*
X002274Y007888D01*
X002233Y007986D01*
X002157Y008062D01*
X002059Y008103D01*
X001952Y008103D01*
X001853Y008062D01*
X001778Y007986D01*
X001737Y007888D01*
X001737Y007781D01*
X001778Y007682D01*
X001853Y007607D01*
X001952Y007566D01*
X002059Y007566D01*
X002157Y007607D01*
X002243Y007708D02*
X003385Y007708D01*
X003385Y007786D02*
X002274Y007786D01*
X002274Y007865D02*
X003385Y007865D01*
X003385Y007943D02*
X002251Y007943D01*
X002197Y008022D02*
X003385Y008022D01*
X003385Y008100D02*
X002064Y008100D01*
X001946Y008100D02*
X000916Y008100D01*
X000916Y008022D02*
X001813Y008022D01*
X001760Y007943D02*
X000916Y007943D01*
X000916Y007865D02*
X001737Y007865D01*
X001737Y007786D02*
X000916Y007786D01*
X000916Y007708D02*
X001767Y007708D01*
X001831Y007629D02*
X000916Y007629D01*
X000916Y008179D02*
X003385Y008179D01*
X003385Y008257D02*
X000916Y008257D01*
X000916Y008336D02*
X003385Y008336D01*
X003385Y008415D02*
X000916Y008415D01*
X000916Y008493D02*
X003385Y008493D01*
X003385Y008572D02*
X000916Y008572D01*
X000916Y008650D02*
X003385Y008650D01*
X003385Y008729D02*
X000916Y008729D01*
X000916Y008807D02*
X003385Y008807D01*
X003385Y008886D02*
X000916Y008886D01*
X000916Y008964D02*
X003385Y008964D01*
X003385Y009043D02*
X000916Y009043D01*
X000916Y009121D02*
X003385Y009121D01*
X003385Y009200D02*
X000916Y009200D01*
X000916Y009279D02*
X003385Y009279D01*
X003385Y009357D02*
X000916Y009357D01*
X000916Y009436D02*
X001943Y009436D01*
X001952Y009428D02*
X002050Y009387D01*
X002157Y009387D01*
X002256Y009428D01*
X002331Y009503D01*
X002372Y009602D01*
X002372Y009709D01*
X002331Y009807D01*
X002256Y009883D01*
X002157Y009924D01*
X002050Y009924D01*
X001952Y009883D01*
X001876Y009807D01*
X001835Y009709D01*
X001835Y009602D01*
X001876Y009503D01*
X001952Y009428D01*
X001871Y009514D02*
X000916Y009514D01*
X000916Y009593D02*
X001839Y009593D01*
X001835Y009671D02*
X000916Y009671D01*
X000916Y009750D02*
X001852Y009750D01*
X001897Y009828D02*
X000916Y009828D01*
X000916Y009907D02*
X002010Y009907D01*
X002197Y009907D02*
X002919Y009907D01*
X002997Y009828D02*
X002310Y009828D01*
X002355Y009750D02*
X003076Y009750D01*
X003154Y009671D02*
X002372Y009671D01*
X002368Y009593D02*
X003233Y009593D01*
X003311Y009514D02*
X002336Y009514D01*
X002264Y009436D02*
X003385Y009436D01*
X003698Y009750D02*
X005222Y009750D01*
X005210Y009780D02*
X005247Y009691D01*
X005314Y009624D01*
X005402Y009587D01*
X005498Y009587D01*
X005586Y009624D01*
X005654Y009691D01*
X005690Y009780D01*
X005690Y009875D01*
X005654Y009963D01*
X005586Y010031D01*
X005498Y010067D01*
X005402Y010067D01*
X005314Y010031D01*
X005247Y009963D01*
X005210Y009875D01*
X005210Y009780D01*
X005210Y009828D02*
X003619Y009828D01*
X003541Y009907D02*
X005223Y009907D01*
X005269Y009985D02*
X003462Y009985D01*
X003384Y010064D02*
X005394Y010064D01*
X005506Y010064D02*
X008958Y010064D01*
X008880Y009985D02*
X005631Y009985D01*
X005677Y009907D02*
X008801Y009907D01*
X008723Y009828D02*
X005690Y009828D01*
X005678Y009750D02*
X008644Y009750D01*
X008566Y009671D02*
X005633Y009671D01*
X005511Y009593D02*
X008487Y009593D01*
X008408Y009514D02*
X003934Y009514D01*
X004012Y009436D02*
X008330Y009436D01*
X008251Y009357D02*
X004091Y009357D01*
X004169Y009279D02*
X008173Y009279D01*
X008094Y009200D02*
X004194Y009200D01*
X004217Y009121D02*
X007236Y009121D01*
X007233Y009120D02*
X007166Y009053D01*
X007129Y008965D01*
X007129Y008869D01*
X007166Y008781D01*
X007233Y008713D01*
X007322Y008677D01*
X007417Y008677D01*
X007505Y008713D01*
X007573Y008781D01*
X007609Y008869D01*
X007609Y008965D01*
X007573Y009053D01*
X007505Y009120D01*
X007417Y009157D01*
X007322Y009157D01*
X007233Y009120D01*
X007162Y009043D02*
X004217Y009043D01*
X004188Y008964D02*
X005257Y008964D01*
X005289Y008997D02*
X005222Y008930D01*
X005185Y008842D01*
X005185Y008746D01*
X005222Y008658D01*
X005289Y008590D01*
X005378Y008554D01*
X005473Y008554D01*
X005561Y008590D01*
X005629Y008658D01*
X005665Y008746D01*
X005665Y008842D01*
X005629Y008930D01*
X005561Y008997D01*
X005473Y009034D01*
X005378Y009034D01*
X005289Y008997D01*
X005204Y008886D02*
X005033Y008886D01*
X005063Y008856D02*
X004995Y008924D01*
X004907Y008960D01*
X004812Y008960D01*
X004724Y008924D01*
X004656Y008856D01*
X004620Y008768D01*
X004620Y008672D01*
X004656Y008584D01*
X004724Y008517D01*
X004812Y008480D01*
X004907Y008480D01*
X004995Y008517D01*
X005063Y008584D01*
X005099Y008672D01*
X005099Y008768D01*
X005063Y008856D01*
X005083Y008807D02*
X005185Y008807D01*
X005193Y008729D02*
X005099Y008729D01*
X005090Y008650D02*
X005230Y008650D01*
X005335Y008572D02*
X005051Y008572D01*
X004939Y008493D02*
X007387Y008493D01*
X007309Y008415D02*
X003825Y008415D01*
X003825Y008493D02*
X004780Y008493D01*
X004669Y008572D02*
X003825Y008572D01*
X003825Y008650D02*
X004629Y008650D01*
X004620Y008729D02*
X003825Y008729D01*
X003825Y008807D02*
X004636Y008807D01*
X004686Y008886D02*
X004125Y008886D01*
X003825Y008336D02*
X007230Y008336D01*
X007152Y008257D02*
X003825Y008257D01*
X003825Y008179D02*
X007073Y008179D01*
X006995Y008100D02*
X003825Y008100D01*
X003825Y008022D02*
X006916Y008022D01*
X006838Y007943D02*
X003825Y007943D01*
X003825Y007865D02*
X006759Y007865D01*
X006680Y007786D02*
X003825Y007786D01*
X003870Y007708D02*
X006602Y007708D01*
X006523Y007629D02*
X003949Y007629D01*
X004027Y007551D02*
X006445Y007551D01*
X006366Y007472D02*
X004106Y007472D01*
X004184Y007394D02*
X006288Y007394D01*
X006209Y007315D02*
X004263Y007315D01*
X004341Y007236D02*
X006131Y007236D01*
X006052Y007158D02*
X004420Y007158D01*
X004498Y007079D02*
X005832Y007079D01*
X005855Y007103D02*
X005788Y007035D01*
X005751Y006947D01*
X005751Y006851D01*
X005788Y006763D01*
X005855Y006696D01*
X005944Y006659D01*
X006039Y006659D01*
X006127Y006696D01*
X006195Y006763D01*
X006231Y006851D01*
X006231Y006941D01*
X010528Y011238D01*
X010532Y011242D01*
X012027Y011242D01*
X012038Y011267D02*
X012001Y011179D01*
X012001Y011084D01*
X012038Y010996D01*
X012099Y010935D01*
X012038Y010874D01*
X012001Y010786D01*
X012001Y010690D01*
X012038Y010602D01*
X012105Y010534D01*
X012194Y010498D01*
X012289Y010498D01*
X012377Y010534D01*
X012445Y010602D01*
X012481Y010690D01*
X012481Y010786D01*
X012445Y010874D01*
X012384Y010935D01*
X012445Y010996D01*
X012481Y011084D01*
X012481Y011179D01*
X012445Y011267D01*
X012377Y011335D01*
X012289Y011371D01*
X012194Y011371D01*
X012105Y011335D01*
X012038Y011267D01*
X012091Y011321D02*
X011391Y011321D01*
X011393Y011322D02*
X011461Y011389D01*
X011497Y011477D01*
X011497Y011573D01*
X011461Y011661D01*
X011393Y011729D01*
X011305Y011765D01*
X011209Y011765D01*
X011121Y011729D01*
X011054Y011661D01*
X011017Y011573D01*
X011017Y011477D01*
X011054Y011389D01*
X011121Y011322D01*
X011209Y011285D01*
X011305Y011285D01*
X011393Y011322D01*
X011465Y011399D02*
X014967Y011399D01*
X014889Y011478D02*
X011497Y011478D01*
X011497Y011556D02*
X014810Y011556D01*
X014732Y011635D02*
X012100Y011635D01*
X012082Y011617D02*
X012150Y011684D01*
X012186Y011773D01*
X012186Y011868D01*
X012150Y011956D01*
X012082Y012024D01*
X011994Y012060D01*
X011898Y012060D01*
X011810Y012024D01*
X011743Y011956D01*
X011706Y011868D01*
X011706Y011773D01*
X011743Y011684D01*
X011810Y011617D01*
X011898Y011580D01*
X011994Y011580D01*
X012082Y011617D01*
X012161Y011713D02*
X013987Y011713D01*
X013923Y011792D02*
X012700Y011792D01*
X012673Y011765D02*
X012740Y011832D01*
X012777Y011920D01*
X012777Y012016D01*
X012740Y012104D01*
X012673Y012172D01*
X012584Y012208D01*
X012489Y012208D01*
X012401Y012172D01*
X012333Y012104D01*
X012297Y012016D01*
X012297Y011920D01*
X012333Y011832D01*
X012401Y011765D01*
X012489Y011728D01*
X012584Y011728D01*
X012673Y011765D01*
X012756Y011870D02*
X013892Y011870D01*
X013892Y011949D02*
X012777Y011949D01*
X012772Y012028D02*
X013915Y012028D01*
X013968Y012106D02*
X012738Y012106D01*
X012641Y012185D02*
X014101Y012185D01*
X014064Y012269D02*
X014159Y012269D01*
X014247Y012306D01*
X014315Y012373D01*
X014351Y012462D01*
X014351Y012557D01*
X014315Y012645D01*
X014247Y012713D01*
X014159Y012749D01*
X014064Y012749D01*
X013976Y012713D01*
X013908Y012645D01*
X013871Y012557D01*
X013871Y012462D01*
X013908Y012373D01*
X013976Y012306D01*
X014064Y012269D01*
X013940Y012342D02*
X010659Y012342D01*
X010659Y012420D02*
X013889Y012420D01*
X013871Y012499D02*
X010659Y012499D01*
X010659Y012577D02*
X013880Y012577D01*
X013864Y012663D02*
X013952Y012700D01*
X014020Y012767D01*
X014056Y012855D01*
X014056Y012951D01*
X014020Y013039D01*
X013952Y013107D01*
X013864Y013143D01*
X013768Y013143D01*
X013680Y013107D01*
X013613Y013039D01*
X013576Y012951D01*
X013576Y012855D01*
X013613Y012767D01*
X013680Y012700D01*
X013768Y012663D01*
X013864Y012663D01*
X013919Y012656D02*
X010659Y012656D01*
X010659Y012734D02*
X013645Y012734D01*
X013594Y012813D02*
X010659Y012813D01*
X010659Y012892D02*
X013576Y012892D01*
X013584Y012970D02*
X010659Y012970D01*
X010659Y013049D02*
X013622Y013049D01*
X013730Y013127D02*
X010659Y013127D01*
X010659Y013206D02*
X013913Y013206D01*
X013916Y013204D02*
X014012Y013204D01*
X014100Y013241D01*
X014167Y013309D01*
X014204Y013397D01*
X014204Y013492D01*
X014167Y013580D01*
X014100Y013648D01*
X014012Y013684D01*
X013916Y013684D01*
X013828Y013648D01*
X013760Y013580D01*
X013724Y013492D01*
X013724Y013397D01*
X013760Y013309D01*
X013828Y013241D01*
X013916Y013204D01*
X013902Y013127D02*
X014522Y013127D01*
X014522Y013049D02*
X014010Y013049D01*
X014048Y012970D02*
X014522Y012970D01*
X014522Y012892D02*
X014056Y012892D01*
X014039Y012813D02*
X014522Y012813D01*
X014522Y012734D02*
X014195Y012734D01*
X014304Y012656D02*
X014522Y012656D01*
X014522Y012577D02*
X014343Y012577D01*
X014351Y012499D02*
X014522Y012499D01*
X014522Y012420D02*
X014334Y012420D01*
X014283Y012342D02*
X014522Y012342D01*
X014522Y012263D02*
X010659Y012263D01*
X010659Y012205D02*
X010659Y015552D01*
X010659Y015668D01*
X010513Y015814D01*
X010513Y015904D01*
X010476Y015992D01*
X010409Y016059D01*
X010321Y016096D01*
X010225Y016096D01*
X010137Y016059D01*
X010069Y015992D01*
X010033Y015904D01*
X010033Y015808D01*
X010069Y015720D01*
X010137Y015652D01*
X010225Y015616D01*
X010315Y015616D01*
X010379Y015552D01*
X010379Y012321D01*
X010020Y011962D01*
X009930Y011962D01*
X009842Y011925D01*
X009774Y011858D01*
X009738Y011770D01*
X009738Y011674D01*
X009774Y011586D01*
X009842Y011519D01*
X009930Y011482D01*
X010025Y011482D01*
X010114Y011519D01*
X010181Y011586D01*
X010218Y011674D01*
X010218Y011764D01*
X010577Y012123D01*
X010659Y012205D01*
X010638Y012185D02*
X012432Y012185D01*
X012335Y012106D02*
X010560Y012106D01*
X010481Y012028D02*
X010736Y012028D01*
X010727Y012024D02*
X010660Y011956D01*
X010623Y011868D01*
X010623Y011773D01*
X010660Y011684D01*
X010727Y011617D01*
X010816Y011580D01*
X010911Y011580D01*
X010999Y011617D01*
X011067Y011684D01*
X011103Y011773D01*
X011103Y011868D01*
X011067Y011956D01*
X010999Y012024D01*
X010911Y012060D01*
X010816Y012060D01*
X010727Y012024D01*
X010657Y011949D02*
X010403Y011949D01*
X010324Y011870D02*
X010624Y011870D01*
X010623Y011792D02*
X010246Y011792D01*
X010218Y011713D02*
X010416Y011713D01*
X010422Y011716D02*
X010334Y011679D01*
X010266Y011612D01*
X010230Y011524D01*
X010230Y011428D01*
X010257Y011363D01*
X006033Y007139D01*
X005944Y007139D01*
X005855Y007103D01*
X005774Y007001D02*
X004577Y007001D01*
X004655Y006922D02*
X005751Y006922D01*
X005755Y006844D02*
X004734Y006844D01*
X004813Y006765D02*
X005787Y006765D01*
X005877Y006687D02*
X004891Y006687D01*
X004970Y006608D02*
X006435Y006608D01*
X006479Y006626D02*
X006381Y006585D01*
X006305Y006510D01*
X006264Y006411D01*
X006264Y006304D01*
X006305Y006206D01*
X006381Y006130D01*
X006479Y006089D01*
X006586Y006089D01*
X006685Y006130D01*
X006760Y006206D01*
X006801Y006304D01*
X006801Y006411D01*
X006760Y006510D01*
X006685Y006585D01*
X006586Y006626D01*
X006479Y006626D01*
X006630Y006608D02*
X008151Y006608D01*
X008134Y006649D02*
X008175Y006550D01*
X008251Y006475D01*
X008349Y006434D01*
X008456Y006434D01*
X008555Y006475D01*
X008630Y006550D01*
X008671Y006649D01*
X008671Y006756D01*
X008630Y006854D01*
X008555Y006930D01*
X008456Y006971D01*
X008349Y006971D01*
X008251Y006930D01*
X008175Y006854D01*
X008134Y006756D01*
X008134Y006649D01*
X008134Y006687D02*
X006105Y006687D01*
X006196Y006765D02*
X008138Y006765D01*
X008171Y006844D02*
X006228Y006844D01*
X006231Y006922D02*
X008243Y006922D01*
X008563Y006922D02*
X009442Y006922D01*
X009442Y006947D02*
X009442Y006851D01*
X009479Y006763D01*
X009546Y006696D01*
X009635Y006659D01*
X009730Y006659D01*
X009818Y006696D01*
X009886Y006763D01*
X009922Y006851D01*
X009922Y006861D01*
X009989Y006794D01*
X010033Y006776D01*
X009989Y006758D01*
X009922Y006691D01*
X009885Y006602D01*
X009885Y006507D01*
X009922Y006419D01*
X009989Y006351D01*
X010078Y006315D01*
X010173Y006315D01*
X010261Y006351D01*
X010329Y006419D01*
X010365Y006507D01*
X010365Y006602D01*
X010329Y006691D01*
X010309Y006710D01*
X011617Y006710D01*
X011733Y006710D01*
X011832Y006808D01*
X011968Y006808D01*
X011915Y006756D01*
X011875Y006657D01*
X011875Y006551D01*
X011915Y006452D01*
X011991Y006376D01*
X012090Y006336D01*
X012196Y006336D01*
X012295Y006376D01*
X012371Y006452D01*
X012411Y006551D01*
X012411Y006657D01*
X012371Y006756D01*
X012318Y006808D01*
X012633Y006808D01*
X012696Y006745D01*
X012784Y006708D01*
X012880Y006708D01*
X012968Y006745D01*
X013035Y006812D01*
X013072Y006901D01*
X013072Y006996D01*
X013035Y007084D01*
X012968Y007152D01*
X012880Y007188D01*
X012784Y007188D01*
X012696Y007152D01*
X012633Y007088D01*
X011716Y007088D01*
X011634Y007006D01*
X011617Y006990D01*
X011515Y006990D01*
X011534Y007009D01*
X011571Y007098D01*
X011571Y007193D01*
X011534Y007281D01*
X011515Y007301D01*
X012042Y007301D01*
X012105Y007237D01*
X012194Y007201D01*
X012289Y007201D01*
X012377Y007237D01*
X012445Y007305D01*
X012481Y007393D01*
X012481Y007488D01*
X012445Y007576D01*
X012377Y007644D01*
X012289Y007681D01*
X012194Y007681D01*
X012105Y007644D01*
X012042Y007581D01*
X010310Y007581D01*
X010247Y007607D01*
X010151Y007607D01*
X010063Y007570D01*
X009996Y007503D01*
X009959Y007414D01*
X009959Y007319D01*
X009996Y007231D01*
X010015Y007212D01*
X009989Y007201D01*
X009922Y007134D01*
X009885Y007045D01*
X009885Y007036D01*
X009818Y007103D01*
X009730Y007139D01*
X009635Y007139D01*
X009546Y007103D01*
X009479Y007035D01*
X009442Y006947D01*
X009425Y006991D02*
X009492Y007059D01*
X009529Y007147D01*
X009529Y007242D01*
X009492Y007330D01*
X009425Y007398D01*
X009336Y007434D01*
X009241Y007434D01*
X009153Y007398D01*
X009085Y007330D01*
X009049Y007242D01*
X009049Y007147D01*
X009085Y007059D01*
X009153Y006991D01*
X009241Y006954D01*
X009336Y006954D01*
X009425Y006991D01*
X009434Y007001D02*
X009465Y007001D01*
X009501Y007079D02*
X009523Y007079D01*
X009529Y007158D02*
X009946Y007158D01*
X009899Y007079D02*
X009842Y007079D01*
X009993Y007236D02*
X009529Y007236D01*
X009499Y007315D02*
X009961Y007315D01*
X009959Y007394D02*
X009429Y007394D01*
X009148Y007394D02*
X008550Y007394D01*
X008588Y007409D02*
X008655Y007477D01*
X008692Y007565D01*
X008692Y007661D01*
X008655Y007749D01*
X008588Y007816D01*
X008500Y007853D01*
X008404Y007853D01*
X008316Y007816D01*
X008249Y007749D01*
X008212Y007661D01*
X008212Y007565D01*
X008249Y007477D01*
X008316Y007409D01*
X008404Y007373D01*
X008500Y007373D01*
X008588Y007409D01*
X008651Y007472D02*
X009983Y007472D01*
X010044Y007551D02*
X008686Y007551D01*
X008692Y007629D02*
X012091Y007629D01*
X012241Y007441D02*
X010273Y007441D01*
X010199Y007367D01*
X010125Y006998D02*
X010273Y006850D01*
X011675Y006850D01*
X011774Y006948D01*
X012832Y006948D01*
X013048Y006844D02*
X015584Y006844D01*
X015614Y006831D02*
X015709Y006831D01*
X015798Y006868D01*
X015865Y006935D01*
X015902Y007024D01*
X015902Y007119D01*
X015865Y007207D01*
X015798Y007275D01*
X015709Y007311D01*
X015614Y007311D01*
X015526Y007275D01*
X015458Y007207D01*
X015422Y007119D01*
X015422Y007024D01*
X015458Y006935D01*
X015526Y006868D01*
X015614Y006831D01*
X015739Y006844D02*
X016206Y006844D01*
X016161Y006799D02*
X014759Y006799D01*
X014630Y006670D01*
X013922Y005963D01*
X011963Y005963D01*
X011781Y005963D01*
X010846Y005028D01*
X010069Y005028D01*
X009755Y005342D01*
X009755Y005937D01*
X009777Y005960D01*
X009818Y006058D01*
X012949Y006058D01*
X012975Y006032D02*
X012900Y006107D01*
X012859Y006206D01*
X012859Y006313D01*
X012900Y006411D01*
X012975Y006487D01*
X013074Y006528D01*
X013181Y006528D01*
X013279Y006487D01*
X013355Y006411D01*
X013396Y006313D01*
X013396Y006206D01*
X013355Y006107D01*
X013279Y006032D01*
X013181Y005991D01*
X013074Y005991D01*
X012975Y006032D01*
X012887Y006137D02*
X009818Y006137D01*
X009818Y006165D02*
X009777Y006264D01*
X009702Y006339D01*
X009603Y006380D01*
X009496Y006380D01*
X009397Y006339D01*
X009322Y006264D01*
X009281Y006165D01*
X009281Y006058D01*
X005519Y006058D01*
X005441Y006137D02*
X006374Y006137D01*
X006301Y006215D02*
X005362Y006215D01*
X005284Y006294D02*
X006269Y006294D01*
X006264Y006372D02*
X005205Y006372D01*
X005127Y006451D02*
X006281Y006451D01*
X006325Y006530D02*
X005048Y006530D01*
X005598Y005980D02*
X009314Y005980D01*
X009315Y005977D02*
X009315Y005159D01*
X009444Y005031D01*
X009886Y004588D01*
X010069Y004588D01*
X010846Y004588D01*
X011028Y004588D01*
X011963Y005523D01*
X013922Y005523D01*
X014104Y005523D01*
X014941Y006359D01*
X016161Y006359D01*
X016343Y006359D01*
X018484Y008500D01*
X018613Y008629D01*
X018613Y012246D01*
X018613Y012428D01*
X015537Y015504D01*
X015537Y017610D01*
X015537Y017792D01*
X014701Y018629D01*
X014572Y018758D01*
X013194Y018758D01*
X013011Y018758D01*
X011756Y017502D01*
X011745Y017502D01*
X011646Y017461D01*
X011571Y017386D01*
X011530Y017287D01*
X011530Y017180D01*
X011571Y017082D01*
X011646Y017006D01*
X011745Y016965D01*
X011852Y016965D01*
X011951Y017006D01*
X012026Y017082D01*
X012067Y017180D01*
X012067Y017191D01*
X013194Y018318D01*
X014389Y018318D01*
X015097Y017610D01*
X015097Y015322D01*
X015226Y015193D01*
X018173Y012246D01*
X018173Y008811D01*
X016161Y006799D01*
X016284Y006922D02*
X015852Y006922D01*
X015892Y007001D02*
X016363Y007001D01*
X016441Y007079D02*
X015902Y007079D01*
X015886Y007158D02*
X016520Y007158D01*
X016598Y007236D02*
X015836Y007236D01*
X015487Y007236D02*
X015343Y007236D01*
X015316Y007225D02*
X015404Y007262D01*
X015471Y007329D01*
X015508Y007417D01*
X015508Y007513D01*
X015471Y007601D01*
X015404Y007669D01*
X015316Y007705D01*
X015220Y007705D01*
X015132Y007669D01*
X015065Y007601D01*
X015028Y007513D01*
X015028Y007417D01*
X015065Y007329D01*
X015132Y007262D01*
X015220Y007225D01*
X015316Y007225D01*
X015193Y007236D02*
X012376Y007236D01*
X012449Y007315D02*
X015079Y007315D01*
X015038Y007394D02*
X012481Y007394D01*
X012481Y007472D02*
X014593Y007472D01*
X014566Y007483D02*
X014654Y007447D01*
X014750Y007447D01*
X014838Y007483D01*
X014905Y007551D01*
X015044Y007551D01*
X015028Y007472D02*
X014811Y007472D01*
X014905Y007551D02*
X014942Y007639D01*
X014942Y007734D01*
X014905Y007823D01*
X014838Y007890D01*
X014750Y007927D01*
X014654Y007927D01*
X014566Y007890D01*
X014499Y007823D01*
X014462Y007734D01*
X014462Y007639D01*
X014499Y007551D01*
X012456Y007551D01*
X012392Y007629D02*
X014466Y007629D01*
X014462Y007708D02*
X008672Y007708D01*
X008618Y007786D02*
X014484Y007786D01*
X014541Y007865D02*
X007155Y007865D01*
X007234Y007943D02*
X017305Y007943D01*
X017227Y007865D02*
X014863Y007865D01*
X014921Y007786D02*
X017148Y007786D01*
X017069Y007708D02*
X014942Y007708D01*
X014938Y007629D02*
X015093Y007629D01*
X015443Y007629D02*
X016991Y007629D01*
X016912Y007551D02*
X015492Y007551D01*
X015508Y007472D02*
X016834Y007472D01*
X016755Y007394D02*
X015498Y007394D01*
X015457Y007315D02*
X016677Y007315D01*
X016985Y007001D02*
X017888Y007001D01*
X017810Y006922D02*
X016906Y006922D01*
X016828Y006844D02*
X017731Y006844D01*
X017653Y006765D02*
X016749Y006765D01*
X016671Y006687D02*
X017574Y006687D01*
X017495Y006608D02*
X016592Y006608D01*
X016514Y006530D02*
X017417Y006530D01*
X017338Y006451D02*
X016435Y006451D01*
X016356Y006372D02*
X017260Y006372D01*
X017181Y006294D02*
X014875Y006294D01*
X014797Y006215D02*
X017103Y006215D01*
X017024Y006137D02*
X014718Y006137D01*
X014640Y006058D02*
X015395Y006058D01*
X015317Y005980D02*
X014561Y005980D01*
X014483Y005901D02*
X015238Y005901D01*
X015160Y005823D02*
X014404Y005823D01*
X014326Y005744D02*
X015081Y005744D01*
X015003Y005666D02*
X014247Y005666D01*
X014168Y005587D02*
X014924Y005587D01*
X014846Y005508D02*
X011949Y005508D01*
X011871Y005430D02*
X014767Y005430D01*
X014689Y005351D02*
X011792Y005351D01*
X011714Y005273D02*
X013767Y005273D01*
X013729Y005257D02*
X013662Y005190D01*
X013625Y005101D01*
X013625Y005006D01*
X013662Y004918D01*
X013729Y004850D01*
X013818Y004814D01*
X013913Y004814D01*
X014001Y004850D01*
X014069Y004918D01*
X014105Y005006D01*
X014105Y005101D01*
X014069Y005190D01*
X014001Y005257D01*
X013913Y005294D01*
X013818Y005294D01*
X013729Y005257D01*
X013667Y005194D02*
X011635Y005194D01*
X011556Y005116D02*
X013631Y005116D01*
X013625Y005037D02*
X012514Y005037D01*
X012492Y005060D02*
X012393Y005101D01*
X012286Y005101D01*
X012188Y005060D01*
X012112Y004984D01*
X012071Y004886D01*
X012071Y004779D01*
X012112Y004680D01*
X012188Y004605D01*
X012286Y004564D01*
X012393Y004564D01*
X012492Y004605D01*
X012567Y004680D01*
X012608Y004779D01*
X012608Y004886D01*
X012567Y004984D01*
X012492Y005060D01*
X012578Y004959D02*
X013645Y004959D01*
X013700Y004880D02*
X012608Y004880D01*
X012608Y004802D02*
X014139Y004802D01*
X014217Y004880D02*
X014031Y004880D01*
X014086Y004959D02*
X014296Y004959D01*
X014374Y005037D02*
X014105Y005037D01*
X014099Y005116D02*
X014453Y005116D01*
X014531Y005194D02*
X014064Y005194D01*
X013964Y005273D02*
X014610Y005273D01*
X014918Y004959D02*
X016263Y004959D01*
X016130Y004903D02*
X016417Y005022D01*
X016727Y005022D01*
X017014Y004903D01*
X017234Y004684D01*
X017353Y004397D01*
X017353Y004086D01*
X017234Y003800D01*
X017014Y003580D01*
X016727Y003461D01*
X016417Y003461D01*
X016130Y003580D01*
X015910Y003800D01*
X015792Y004086D01*
X015792Y004397D01*
X015910Y004684D01*
X016130Y004903D01*
X016107Y004880D02*
X014840Y004880D01*
X014761Y004802D02*
X016028Y004802D01*
X015950Y004723D02*
X014682Y004723D01*
X014604Y004644D02*
X015894Y004644D01*
X015862Y004566D02*
X014525Y004566D01*
X014447Y004487D02*
X015829Y004487D01*
X015797Y004409D02*
X014368Y004409D01*
X014290Y004330D02*
X015792Y004330D01*
X015792Y004252D02*
X014211Y004252D01*
X014133Y004173D02*
X015792Y004173D01*
X015792Y004095D02*
X014054Y004095D01*
X013976Y004016D02*
X015821Y004016D01*
X015853Y003938D02*
X013897Y003938D01*
X013818Y003859D02*
X015886Y003859D01*
X015929Y003781D02*
X013740Y003781D01*
X013661Y003702D02*
X016008Y003702D01*
X016087Y003623D02*
X005050Y003623D01*
X005128Y003702D02*
X008090Y003702D01*
X008012Y003781D02*
X005207Y003781D01*
X005251Y003859D02*
X007933Y003859D01*
X007854Y003938D02*
X005283Y003938D01*
X005316Y004016D02*
X007776Y004016D01*
X007697Y004095D02*
X005345Y004095D01*
X005345Y004173D02*
X007619Y004173D01*
X007540Y004252D02*
X005345Y004252D01*
X005345Y004330D02*
X007462Y004330D01*
X007383Y004409D02*
X005340Y004409D01*
X005307Y004487D02*
X006468Y004487D01*
X006390Y004566D02*
X005275Y004566D01*
X005242Y004644D02*
X006311Y004644D01*
X006232Y004723D02*
X005187Y004723D01*
X005108Y004802D02*
X006154Y004802D01*
X006075Y004880D02*
X005030Y004880D01*
X004873Y004959D02*
X005997Y004959D01*
X006305Y005273D02*
X009315Y005273D01*
X009315Y005351D02*
X006226Y005351D01*
X006148Y005430D02*
X009315Y005430D01*
X009315Y005508D02*
X006069Y005508D01*
X005991Y005587D02*
X009315Y005587D01*
X009315Y005666D02*
X005912Y005666D01*
X005834Y005744D02*
X009315Y005744D01*
X009315Y005823D02*
X005755Y005823D01*
X005676Y005901D02*
X009315Y005901D01*
X009315Y005977D02*
X009281Y006058D01*
X009281Y006137D02*
X006691Y006137D01*
X006764Y006215D02*
X009302Y006215D01*
X009352Y006294D02*
X006797Y006294D01*
X006801Y006372D02*
X009477Y006372D01*
X009622Y006372D02*
X009968Y006372D01*
X009908Y006451D02*
X008497Y006451D01*
X008610Y006530D02*
X009885Y006530D01*
X009888Y006608D02*
X008654Y006608D01*
X008671Y006687D02*
X009568Y006687D01*
X009478Y006765D02*
X008667Y006765D01*
X008635Y006844D02*
X009446Y006844D01*
X009143Y007001D02*
X006291Y007001D01*
X006370Y007079D02*
X009077Y007079D01*
X009049Y007158D02*
X006448Y007158D01*
X006527Y007236D02*
X009049Y007236D01*
X009079Y007315D02*
X006605Y007315D01*
X006684Y007394D02*
X008354Y007394D01*
X008253Y007472D02*
X006762Y007472D01*
X006841Y007551D02*
X008218Y007551D01*
X008212Y007629D02*
X006919Y007629D01*
X006998Y007708D02*
X008232Y007708D01*
X008286Y007786D02*
X007076Y007786D01*
X007312Y008022D02*
X017384Y008022D01*
X017462Y008100D02*
X007391Y008100D01*
X007469Y008179D02*
X017541Y008179D01*
X017619Y008257D02*
X007548Y008257D01*
X007626Y008336D02*
X010216Y008336D01*
X010225Y008332D02*
X010321Y008332D01*
X010409Y008369D01*
X010476Y008436D01*
X010513Y008525D01*
X010513Y008620D01*
X010476Y008708D01*
X010409Y008776D01*
X010321Y008812D01*
X010225Y008812D01*
X010137Y008776D01*
X010069Y008708D01*
X010033Y008620D01*
X010033Y008525D01*
X010069Y008436D01*
X010137Y008369D01*
X010225Y008332D01*
X010329Y008336D02*
X017698Y008336D01*
X017776Y008415D02*
X010454Y008415D01*
X010500Y008493D02*
X017855Y008493D01*
X017933Y008572D02*
X012236Y008572D01*
X012230Y008566D02*
X012297Y008633D01*
X012334Y008722D01*
X012334Y008817D01*
X012297Y008905D01*
X012230Y008973D01*
X012141Y009009D01*
X012046Y009009D01*
X011958Y008973D01*
X011890Y008905D01*
X011854Y008817D01*
X011854Y008722D01*
X011890Y008633D01*
X011958Y008566D01*
X012046Y008529D01*
X012141Y008529D01*
X012230Y008566D01*
X012304Y008650D02*
X018012Y008650D01*
X018091Y008729D02*
X015445Y008729D01*
X015439Y008726D02*
X015527Y008763D01*
X015594Y008830D01*
X015631Y008918D01*
X015631Y009014D01*
X015594Y009102D01*
X015527Y009170D01*
X015439Y009206D01*
X015343Y009206D01*
X015255Y009170D01*
X015188Y009102D01*
X015151Y009014D01*
X015151Y008918D01*
X015188Y008830D01*
X015255Y008763D01*
X015343Y008726D01*
X015439Y008726D01*
X015337Y008729D02*
X012334Y008729D01*
X012334Y008807D02*
X015210Y008807D01*
X015164Y008886D02*
X012305Y008886D01*
X012238Y008964D02*
X015151Y008964D01*
X015163Y009043D02*
X011618Y009043D01*
X011590Y009071D02*
X011502Y009108D01*
X011406Y009108D01*
X011318Y009071D01*
X011251Y009004D01*
X011214Y008915D01*
X011214Y008820D01*
X011251Y008732D01*
X011318Y008664D01*
X011406Y008628D01*
X011502Y008628D01*
X011590Y008664D01*
X011657Y008732D01*
X011694Y008820D01*
X011694Y008915D01*
X011657Y009004D01*
X011590Y009071D01*
X011600Y009120D02*
X011505Y009120D01*
X011416Y009156D01*
X011349Y009224D01*
X011312Y009312D01*
X011312Y009408D01*
X011349Y009496D01*
X011416Y009563D01*
X011505Y009600D01*
X011600Y009600D01*
X011688Y009563D01*
X011756Y009496D01*
X011792Y009408D01*
X011792Y009312D01*
X011756Y009224D01*
X011688Y009156D01*
X011600Y009120D01*
X011604Y009121D02*
X015207Y009121D01*
X015329Y009200D02*
X011732Y009200D01*
X011779Y009279D02*
X017004Y009279D01*
X016993Y009357D02*
X011792Y009357D01*
X011781Y009436D02*
X011849Y009436D01*
X011810Y009452D02*
X011898Y009415D01*
X011994Y009415D01*
X012082Y009452D01*
X012150Y009519D01*
X012186Y009607D01*
X012186Y009703D01*
X012150Y009791D01*
X012082Y009859D01*
X011994Y009895D01*
X011898Y009895D01*
X011810Y009859D01*
X011743Y009791D01*
X011706Y009703D01*
X011706Y009607D01*
X011743Y009519D01*
X011810Y009452D01*
X011748Y009514D02*
X011737Y009514D01*
X011712Y009593D02*
X011617Y009593D01*
X011706Y009671D02*
X008961Y009671D01*
X008883Y009593D02*
X011488Y009593D01*
X011367Y009514D02*
X008804Y009514D01*
X008726Y009436D02*
X010481Y009436D01*
X010520Y009452D02*
X010432Y009416D01*
X010365Y009348D01*
X010328Y009260D01*
X010328Y009164D01*
X010365Y009076D01*
X010432Y009009D01*
X010520Y008972D01*
X010616Y008972D01*
X010704Y009009D01*
X010772Y009076D01*
X010808Y009164D01*
X010808Y009260D01*
X010772Y009348D01*
X010704Y009416D01*
X010616Y009452D01*
X010520Y009452D01*
X010656Y009436D02*
X011324Y009436D01*
X011312Y009357D02*
X010763Y009357D01*
X010800Y009279D02*
X011326Y009279D01*
X011373Y009200D02*
X010808Y009200D01*
X010790Y009121D02*
X011501Y009121D01*
X011290Y009043D02*
X010738Y009043D01*
X010398Y009043D02*
X010119Y009043D01*
X010119Y009017D02*
X010083Y008929D01*
X010015Y008861D01*
X009927Y008825D01*
X009831Y008825D01*
X009743Y008861D01*
X009676Y008929D01*
X009639Y009017D01*
X009639Y009112D01*
X009676Y009201D01*
X009743Y009268D01*
X009831Y009305D01*
X009927Y009305D01*
X010015Y009268D01*
X010083Y009201D01*
X010119Y009112D01*
X010119Y009017D01*
X010097Y008964D02*
X011234Y008964D01*
X011214Y008886D02*
X010040Y008886D01*
X010090Y008729D02*
X008019Y008729D01*
X008097Y008807D02*
X010213Y008807D01*
X010333Y008807D02*
X011219Y008807D01*
X011254Y008729D02*
X010456Y008729D01*
X010500Y008650D02*
X011352Y008650D01*
X011556Y008650D02*
X011883Y008650D01*
X011854Y008729D02*
X011654Y008729D01*
X011689Y008807D02*
X011854Y008807D01*
X011882Y008886D02*
X011694Y008886D01*
X011674Y008964D02*
X011949Y008964D01*
X011952Y008572D02*
X010513Y008572D01*
X010091Y008415D02*
X007705Y008415D01*
X007783Y008493D02*
X010046Y008493D01*
X010033Y008572D02*
X007862Y008572D01*
X007940Y008650D02*
X010045Y008650D01*
X009719Y008886D02*
X009449Y008886D01*
X009425Y008861D02*
X009492Y008929D01*
X009529Y009017D01*
X009529Y009112D01*
X009492Y009201D01*
X009425Y009268D01*
X009336Y009305D01*
X009241Y009305D01*
X009153Y009268D01*
X009085Y009201D01*
X009049Y009112D01*
X009049Y009017D01*
X009085Y008929D01*
X009153Y008861D01*
X009241Y008825D01*
X009336Y008825D01*
X009425Y008861D01*
X009507Y008964D02*
X009661Y008964D01*
X009639Y009043D02*
X009529Y009043D01*
X009525Y009121D02*
X009643Y009121D01*
X009676Y009200D02*
X009492Y009200D01*
X009399Y009279D02*
X009769Y009279D01*
X009990Y009279D02*
X010336Y009279D01*
X010328Y009200D02*
X010083Y009200D01*
X010115Y009121D02*
X010346Y009121D01*
X010374Y009357D02*
X008647Y009357D01*
X008569Y009279D02*
X009178Y009279D01*
X009085Y009200D02*
X008490Y009200D01*
X008412Y009121D02*
X009052Y009121D01*
X009049Y009043D02*
X008333Y009043D01*
X008255Y008964D02*
X009070Y008964D01*
X009128Y008886D02*
X008176Y008886D01*
X007937Y009043D02*
X007577Y009043D01*
X007609Y008964D02*
X007859Y008964D01*
X007780Y008886D02*
X007609Y008886D01*
X007584Y008807D02*
X007702Y008807D01*
X007623Y008729D02*
X007521Y008729D01*
X007544Y008650D02*
X007038Y008650D01*
X007031Y008633D02*
X007068Y008722D01*
X007068Y008817D01*
X007031Y008905D01*
X006964Y008973D01*
X006876Y009009D01*
X006780Y009009D01*
X006692Y008973D01*
X006625Y008905D01*
X006588Y008817D01*
X006588Y008722D01*
X006625Y008633D01*
X006692Y008566D01*
X006780Y008529D01*
X006876Y008529D01*
X006964Y008566D01*
X007031Y008633D01*
X006970Y008572D02*
X007466Y008572D01*
X007218Y008729D02*
X007068Y008729D01*
X007068Y008807D02*
X007155Y008807D01*
X007129Y008886D02*
X007040Y008886D01*
X006972Y008964D02*
X007129Y008964D01*
X007503Y009121D02*
X008016Y009121D01*
X009040Y009750D02*
X011726Y009750D01*
X011780Y009828D02*
X009119Y009828D01*
X009197Y009907D02*
X015205Y009907D01*
X015188Y009889D02*
X015151Y009801D01*
X015151Y009706D01*
X015188Y009618D01*
X015255Y009550D01*
X015343Y009514D01*
X015439Y009514D01*
X015527Y009550D01*
X015594Y009618D01*
X015631Y009706D01*
X015631Y009801D01*
X015594Y009889D01*
X015527Y009957D01*
X015439Y009994D01*
X015343Y009994D01*
X015255Y009957D01*
X015188Y009889D01*
X015162Y009828D02*
X012112Y009828D01*
X012167Y009750D02*
X015151Y009750D01*
X015165Y009671D02*
X012186Y009671D01*
X012180Y009593D02*
X015212Y009593D01*
X015342Y009514D02*
X012145Y009514D01*
X012043Y009436D02*
X016931Y009436D01*
X016852Y009514D02*
X015440Y009514D01*
X015570Y009593D02*
X016774Y009593D01*
X016695Y009671D02*
X015617Y009671D01*
X015631Y009750D02*
X016617Y009750D01*
X016538Y009828D02*
X015620Y009828D01*
X015577Y009907D02*
X016460Y009907D01*
X016381Y009985D02*
X015458Y009985D01*
X015324Y009985D02*
X009276Y009985D01*
X009354Y010064D02*
X016302Y010064D01*
X016224Y010143D02*
X009433Y010143D01*
X009511Y010221D02*
X016145Y010221D01*
X016067Y010300D02*
X009590Y010300D01*
X009668Y010378D02*
X015988Y010378D01*
X015910Y010457D02*
X009747Y010457D01*
X009825Y010535D02*
X012105Y010535D01*
X012033Y010614D02*
X009904Y010614D01*
X009983Y010692D02*
X012001Y010692D01*
X012001Y010771D02*
X010061Y010771D01*
X010140Y010849D02*
X012028Y010849D01*
X012092Y010928D02*
X010218Y010928D01*
X010297Y011006D02*
X012033Y011006D01*
X012001Y011085D02*
X010375Y011085D01*
X010454Y011164D02*
X012001Y011164D01*
X012392Y011321D02*
X015046Y011321D01*
X015124Y011242D02*
X012455Y011242D01*
X012481Y011164D02*
X014076Y011164D01*
X014074Y011163D02*
X014006Y011095D01*
X013970Y011007D01*
X013970Y010911D01*
X014006Y010823D01*
X014074Y010756D01*
X014162Y010719D01*
X014258Y010719D01*
X014346Y010756D01*
X014413Y010823D01*
X014450Y010911D01*
X014450Y011007D01*
X014413Y011095D01*
X014346Y011163D01*
X014258Y011199D01*
X014162Y011199D01*
X014074Y011163D01*
X014002Y011085D02*
X012481Y011085D01*
X012449Y011006D02*
X013970Y011006D01*
X013970Y010928D02*
X012391Y010928D01*
X012455Y010849D02*
X013996Y010849D01*
X014059Y010771D02*
X012481Y010771D01*
X012481Y010692D02*
X015674Y010692D01*
X015753Y010614D02*
X012450Y010614D01*
X012378Y010535D02*
X015831Y010535D01*
X015596Y010771D02*
X014361Y010771D01*
X014424Y010849D02*
X015517Y010849D01*
X015438Y010928D02*
X014450Y010928D01*
X014450Y011006D02*
X015360Y011006D01*
X015281Y011085D02*
X014418Y011085D01*
X014344Y011164D02*
X015203Y011164D01*
X015398Y011478D02*
X018173Y011478D01*
X018173Y011556D02*
X015319Y011556D01*
X015241Y011635D02*
X017029Y011635D01*
X017041Y011630D02*
X017137Y011630D01*
X017225Y011666D01*
X017292Y011734D01*
X017329Y011822D01*
X017329Y011917D01*
X017292Y012006D01*
X017225Y012073D01*
X017137Y012110D01*
X017041Y012110D01*
X016953Y012073D01*
X016885Y012006D01*
X016849Y011917D01*
X016849Y011822D01*
X016885Y011734D01*
X016953Y011666D01*
X017041Y011630D01*
X017149Y011635D02*
X018173Y011635D01*
X018173Y011713D02*
X017272Y011713D01*
X017316Y011792D02*
X018173Y011792D01*
X018173Y011870D02*
X017329Y011870D01*
X017316Y011949D02*
X018173Y011949D01*
X018173Y012028D02*
X017270Y012028D01*
X017145Y012106D02*
X018173Y012106D01*
X018173Y012185D02*
X014882Y012185D01*
X014882Y012263D02*
X018156Y012263D01*
X018077Y012342D02*
X014882Y012342D01*
X014882Y012420D02*
X017999Y012420D01*
X017920Y012499D02*
X014882Y012499D01*
X014882Y012577D02*
X017842Y012577D01*
X017763Y012656D02*
X014882Y012656D01*
X014882Y012734D02*
X017685Y012734D01*
X017606Y012813D02*
X014882Y012813D01*
X014882Y012892D02*
X017528Y012892D01*
X017449Y012970D02*
X014882Y012970D01*
X014882Y013049D02*
X017370Y013049D01*
X017292Y013127D02*
X014882Y013127D01*
X014882Y013206D02*
X017213Y013206D01*
X017135Y013284D02*
X014882Y013284D01*
X015000Y013363D02*
X017056Y013363D01*
X016978Y013441D02*
X015049Y013441D01*
X015069Y013520D02*
X016899Y013520D01*
X016821Y013598D02*
X015068Y013598D01*
X015035Y013677D02*
X016742Y013677D01*
X016664Y013756D02*
X014980Y013756D01*
X014980Y013834D02*
X016585Y013834D01*
X016506Y013913D02*
X014980Y013913D01*
X014980Y013991D02*
X016428Y013991D01*
X016349Y014070D02*
X014980Y014070D01*
X014980Y014148D02*
X016271Y014148D01*
X016192Y014227D02*
X015381Y014227D01*
X015379Y014225D02*
X015447Y014293D01*
X015483Y014381D01*
X015483Y014476D01*
X015447Y014565D01*
X015379Y014632D01*
X015291Y014669D01*
X015196Y014669D01*
X015107Y014632D01*
X015040Y014565D01*
X015003Y014476D01*
X015003Y014381D01*
X015040Y014293D01*
X015107Y014225D01*
X015196Y014189D01*
X015291Y014189D01*
X015379Y014225D01*
X015452Y014305D02*
X016114Y014305D01*
X016035Y014384D02*
X015483Y014384D01*
X015483Y014462D02*
X015957Y014462D01*
X015878Y014541D02*
X015457Y014541D01*
X015392Y014619D02*
X015800Y014619D01*
X015721Y014698D02*
X014980Y014698D01*
X014980Y014619D02*
X015095Y014619D01*
X015030Y014541D02*
X014980Y014541D01*
X014980Y014462D02*
X015003Y014462D01*
X015003Y014384D02*
X014980Y014384D01*
X014980Y014305D02*
X015035Y014305D01*
X014980Y014227D02*
X015106Y014227D01*
X014620Y014227D02*
X011296Y014227D01*
X011313Y014244D02*
X011245Y014176D01*
X011157Y014140D01*
X011062Y014140D01*
X010974Y014176D01*
X010906Y014244D01*
X010870Y014332D01*
X010870Y014427D01*
X010906Y014515D01*
X010974Y014583D01*
X011062Y014619D01*
X011157Y014619D01*
X011245Y014583D01*
X011313Y014515D01*
X011349Y014427D01*
X011349Y014332D01*
X011313Y014244D01*
X011339Y014305D02*
X014620Y014305D01*
X014620Y014384D02*
X012782Y014384D01*
X012771Y014373D02*
X012839Y014440D01*
X012875Y014529D01*
X012875Y014624D01*
X012839Y014712D01*
X012771Y014780D01*
X012683Y014816D01*
X012593Y014816D01*
X012037Y015373D01*
X012037Y015558D01*
X012100Y015621D01*
X012137Y015710D01*
X012137Y015805D01*
X012100Y015893D01*
X012033Y015961D01*
X011945Y015997D01*
X011849Y015997D01*
X011761Y015961D01*
X011693Y015893D01*
X011657Y015805D01*
X011657Y015710D01*
X011693Y015621D01*
X011757Y015558D01*
X011757Y015373D01*
X011757Y015257D01*
X012395Y014618D01*
X012395Y014529D01*
X012432Y014440D01*
X012499Y014373D01*
X012587Y014336D01*
X012683Y014336D01*
X012771Y014373D01*
X012848Y014462D02*
X014620Y014462D01*
X014620Y014541D02*
X012875Y014541D01*
X012875Y014619D02*
X014620Y014619D01*
X014620Y014698D02*
X012844Y014698D01*
X012774Y014777D02*
X014620Y014777D01*
X014620Y014855D02*
X012554Y014855D01*
X012476Y014934D02*
X014620Y014934D01*
X014620Y015012D02*
X012397Y015012D01*
X012319Y015091D02*
X014620Y015091D01*
X014620Y015169D02*
X012240Y015169D01*
X012162Y015248D02*
X014620Y015248D01*
X014620Y015326D02*
X012083Y015326D01*
X012037Y015405D02*
X014620Y015405D01*
X014620Y015483D02*
X012996Y015483D01*
X012968Y015456D02*
X013035Y015523D01*
X013072Y015611D01*
X013072Y015707D01*
X013035Y015795D01*
X012968Y015862D01*
X012880Y015899D01*
X012784Y015899D01*
X012696Y015862D01*
X012629Y015795D01*
X012592Y015707D01*
X012592Y015611D01*
X012629Y015523D01*
X012696Y015456D01*
X012784Y015419D01*
X012880Y015419D01*
X012968Y015456D01*
X013051Y015562D02*
X014620Y015562D01*
X014620Y015641D02*
X013072Y015641D01*
X013067Y015719D02*
X014620Y015719D01*
X014620Y015798D02*
X013033Y015798D01*
X012935Y015876D02*
X014620Y015876D01*
X014620Y015955D02*
X012657Y015955D01*
X012657Y015950D02*
X012617Y015851D01*
X012541Y015776D01*
X012442Y015735D01*
X012336Y015735D01*
X012237Y015776D01*
X012161Y015851D01*
X012121Y015950D01*
X012121Y016057D01*
X012161Y016156D01*
X012237Y016231D01*
X012336Y016272D01*
X012442Y016272D01*
X012541Y016231D01*
X012617Y016156D01*
X012657Y016057D01*
X012657Y015950D01*
X012627Y015876D02*
X012729Y015876D01*
X012631Y015798D02*
X012563Y015798D01*
X012597Y015719D02*
X012137Y015719D01*
X012137Y015798D02*
X012215Y015798D01*
X012151Y015876D02*
X012108Y015876D01*
X012121Y015955D02*
X012039Y015955D01*
X012121Y016033D02*
X010435Y016033D01*
X010492Y015955D02*
X011755Y015955D01*
X011686Y015876D02*
X010513Y015876D01*
X010529Y015798D02*
X011657Y015798D01*
X011657Y015719D02*
X010608Y015719D01*
X010659Y015641D02*
X011686Y015641D01*
X011753Y015562D02*
X010659Y015562D01*
X010659Y015483D02*
X011757Y015483D01*
X011757Y015405D02*
X010659Y015405D01*
X010659Y015326D02*
X011757Y015326D01*
X011766Y015248D02*
X010659Y015248D01*
X010659Y015169D02*
X011844Y015169D01*
X011923Y015091D02*
X010659Y015091D01*
X010659Y015012D02*
X012001Y015012D01*
X012080Y014934D02*
X010659Y014934D01*
X010659Y014855D02*
X012158Y014855D01*
X012237Y014777D02*
X010659Y014777D01*
X010659Y014698D02*
X012315Y014698D01*
X012394Y014619D02*
X010659Y014619D01*
X010659Y014541D02*
X010932Y014541D01*
X010884Y014462D02*
X010659Y014462D01*
X010659Y014384D02*
X010870Y014384D01*
X010880Y014305D02*
X010659Y014305D01*
X010659Y014227D02*
X010923Y014227D01*
X011041Y014148D02*
X010659Y014148D01*
X010659Y014070D02*
X014620Y014070D01*
X014620Y014148D02*
X011178Y014148D01*
X011157Y013783D02*
X011062Y013783D01*
X010974Y013746D01*
X010906Y013679D01*
X010870Y013591D01*
X010870Y013495D01*
X010906Y013407D01*
X010974Y013339D01*
X011062Y013303D01*
X011157Y013303D01*
X011245Y013339D01*
X011313Y013407D01*
X011349Y013495D01*
X011349Y013591D01*
X011313Y013679D01*
X011245Y013746D01*
X011157Y013783D01*
X011223Y013756D02*
X011488Y013756D01*
X011466Y013746D02*
X011398Y013679D01*
X011362Y013591D01*
X011362Y013495D01*
X011398Y013407D01*
X011466Y013339D01*
X011554Y013303D01*
X011649Y013303D01*
X011738Y013339D01*
X011805Y013407D01*
X011842Y013495D01*
X011842Y013591D01*
X011805Y013679D01*
X011738Y013746D01*
X011649Y013783D01*
X011554Y013783D01*
X011466Y013746D01*
X011397Y013677D02*
X011314Y013677D01*
X011346Y013598D02*
X011365Y013598D01*
X011362Y013520D02*
X011349Y013520D01*
X011327Y013441D02*
X011384Y013441D01*
X011442Y013363D02*
X011269Y013363D01*
X010950Y013363D02*
X010659Y013363D01*
X010659Y013441D02*
X010892Y013441D01*
X010870Y013520D02*
X010659Y013520D01*
X010659Y013598D02*
X010873Y013598D01*
X010905Y013677D02*
X010659Y013677D01*
X010659Y013756D02*
X010996Y013756D01*
X010659Y013834D02*
X012636Y013834D01*
X012629Y013826D02*
X012592Y013738D01*
X012592Y013643D01*
X012629Y013555D01*
X012696Y013487D01*
X012784Y013451D01*
X012880Y013451D01*
X012968Y013487D01*
X013035Y013555D01*
X013072Y013643D01*
X013072Y013738D01*
X013035Y013826D01*
X012968Y013894D01*
X012880Y013931D01*
X012784Y013931D01*
X012696Y013894D01*
X012629Y013826D01*
X012599Y013756D02*
X011715Y013756D01*
X011806Y013677D02*
X012592Y013677D01*
X012610Y013598D02*
X011838Y013598D01*
X011842Y013520D02*
X012663Y013520D01*
X013001Y013520D02*
X013735Y013520D01*
X013724Y013441D02*
X011819Y013441D01*
X011761Y013363D02*
X013738Y013363D01*
X013785Y013284D02*
X010659Y013284D01*
X010379Y013284D02*
X008524Y013284D01*
X008539Y013290D02*
X008606Y013358D01*
X008643Y013446D01*
X008643Y013541D01*
X008606Y013630D01*
X008539Y013697D01*
X008451Y013734D01*
X008355Y013734D01*
X008267Y013697D01*
X008199Y013630D01*
X008163Y013541D01*
X008163Y013446D01*
X008199Y013358D01*
X008267Y013290D01*
X008355Y013254D01*
X008451Y013254D01*
X008539Y013290D01*
X008608Y013363D02*
X010379Y013363D01*
X010379Y013441D02*
X008641Y013441D01*
X008643Y013520D02*
X010379Y013520D01*
X010379Y013598D02*
X009977Y013598D01*
X009976Y013598D02*
X010064Y013635D01*
X010132Y013702D01*
X010168Y013790D01*
X010168Y013886D01*
X010132Y013974D01*
X010064Y014042D01*
X009976Y014078D01*
X009881Y014078D01*
X009792Y014042D01*
X009725Y013974D01*
X009688Y013886D01*
X009688Y013790D01*
X009725Y013702D01*
X009792Y013635D01*
X009881Y013598D01*
X009976Y013598D01*
X009880Y013598D02*
X008619Y013598D01*
X008559Y013677D02*
X009750Y013677D01*
X009703Y013756D02*
X004558Y013756D01*
X004546Y013727D02*
X004583Y013815D01*
X004583Y013911D01*
X004546Y013999D01*
X004479Y014066D01*
X004391Y014103D01*
X004295Y014103D01*
X004207Y014066D01*
X004139Y013999D01*
X004103Y013911D01*
X004103Y013815D01*
X004139Y013727D01*
X004207Y013659D01*
X004295Y013623D01*
X004391Y013623D01*
X004479Y013659D01*
X004546Y013727D01*
X004496Y013677D02*
X008247Y013677D01*
X008186Y013598D02*
X002280Y013598D01*
X002256Y013623D02*
X002331Y013547D01*
X002372Y013449D01*
X002372Y013342D01*
X002331Y013243D01*
X002256Y013168D01*
X002157Y013127D01*
X002050Y013127D01*
X001952Y013168D01*
X001876Y013243D01*
X001835Y013342D01*
X001835Y013449D01*
X001876Y013547D01*
X001952Y013623D01*
X002050Y013664D01*
X002157Y013664D01*
X002256Y013623D01*
X002343Y013520D02*
X008163Y013520D01*
X008165Y013441D02*
X002372Y013441D01*
X002372Y013363D02*
X008197Y013363D01*
X008281Y013284D02*
X007771Y013284D01*
X007751Y013303D02*
X007663Y013340D01*
X007568Y013340D01*
X007479Y013303D01*
X007412Y013236D01*
X007375Y013148D01*
X007375Y013052D01*
X007412Y012964D01*
X007479Y012897D01*
X007568Y012860D01*
X007663Y012860D01*
X007751Y012897D01*
X007819Y012964D01*
X007855Y013052D01*
X007855Y013148D01*
X007819Y013236D01*
X007751Y013303D01*
X007831Y013206D02*
X010379Y013206D01*
X010379Y013127D02*
X010241Y013127D01*
X010212Y013156D02*
X010124Y013192D01*
X010028Y013192D01*
X009940Y013156D01*
X009873Y013088D01*
X009836Y013000D01*
X009836Y012905D01*
X009873Y012816D01*
X009940Y012749D01*
X010028Y012712D01*
X010124Y012712D01*
X010212Y012749D01*
X010279Y012816D01*
X010316Y012905D01*
X010316Y013000D01*
X010279Y013088D01*
X010212Y013156D01*
X010296Y013049D02*
X010379Y013049D01*
X010379Y012970D02*
X010316Y012970D01*
X010311Y012892D02*
X010379Y012892D01*
X010379Y012813D02*
X010276Y012813D01*
X010177Y012734D02*
X010379Y012734D01*
X010379Y012656D02*
X007710Y012656D01*
X007720Y012645D02*
X007653Y012713D01*
X007565Y012749D01*
X007469Y012749D01*
X007381Y012713D01*
X007314Y012645D01*
X007277Y012557D01*
X007277Y012462D01*
X007314Y012373D01*
X007381Y012306D01*
X007469Y012269D01*
X007565Y012269D01*
X007653Y012306D01*
X007720Y012373D01*
X007757Y012462D01*
X007757Y012557D01*
X007720Y012645D01*
X007749Y012577D02*
X010379Y012577D01*
X010379Y012499D02*
X007757Y012499D01*
X007740Y012420D02*
X010379Y012420D01*
X010379Y012342D02*
X007689Y012342D01*
X007705Y012108D02*
X006929Y012108D01*
X006866Y012172D01*
X006777Y012208D01*
X006682Y012208D01*
X006594Y012172D01*
X006526Y012104D01*
X006490Y012016D01*
X006490Y011920D01*
X006526Y011832D01*
X006594Y011765D01*
X006682Y011728D01*
X006777Y011728D01*
X006866Y011765D01*
X006929Y011828D01*
X007705Y011828D01*
X008753Y010780D01*
X008753Y010690D01*
X008790Y010602D01*
X008857Y010534D01*
X008946Y010498D01*
X009041Y010498D01*
X009129Y010534D01*
X009197Y010602D01*
X009233Y010690D01*
X009233Y010786D01*
X009197Y010874D01*
X009129Y010941D01*
X009041Y010978D01*
X008951Y010978D01*
X007821Y012108D01*
X007705Y012108D01*
X007823Y012106D02*
X010164Y012106D01*
X010242Y012185D02*
X006834Y012185D01*
X006625Y012185D02*
X004564Y012185D01*
X004595Y012153D02*
X004528Y012221D01*
X004440Y012257D01*
X004344Y012257D01*
X004256Y012221D01*
X004189Y012153D01*
X004152Y012065D01*
X004152Y011970D01*
X004189Y011881D01*
X004256Y011814D01*
X004344Y011777D01*
X004440Y011777D01*
X004528Y011814D01*
X004595Y011881D01*
X004632Y011970D01*
X004632Y012065D01*
X004595Y012153D01*
X004615Y012106D02*
X006528Y012106D01*
X006494Y012028D02*
X004632Y012028D01*
X004623Y011949D02*
X006490Y011949D01*
X006510Y011870D02*
X004585Y011870D01*
X004475Y011792D02*
X006566Y011792D01*
X006730Y011968D02*
X007763Y011968D01*
X008993Y010738D01*
X009207Y010849D02*
X009744Y010849D01*
X009665Y010771D02*
X009233Y010771D01*
X009233Y010692D02*
X009587Y010692D01*
X009508Y010614D02*
X009202Y010614D01*
X009130Y010535D02*
X009429Y010535D01*
X009351Y010457D02*
X007334Y010457D01*
X007339Y010469D02*
X007302Y010380D01*
X007235Y010313D01*
X007146Y010276D01*
X007051Y010276D01*
X006963Y010313D01*
X006895Y010380D01*
X006859Y010469D01*
X006859Y010564D01*
X006895Y010652D01*
X006963Y010720D01*
X007051Y010756D01*
X007146Y010756D01*
X007235Y010720D01*
X007302Y010652D01*
X007339Y010564D01*
X007339Y010469D01*
X007339Y010535D02*
X008856Y010535D01*
X008785Y010614D02*
X007318Y010614D01*
X007262Y010692D02*
X008753Y010692D01*
X008753Y010771D02*
X006738Y010771D01*
X006736Y010775D02*
X006669Y010843D01*
X006580Y010879D01*
X006485Y010879D01*
X006397Y010843D01*
X006329Y010775D01*
X006293Y010687D01*
X006293Y010592D01*
X006329Y010503D01*
X006397Y010436D01*
X006485Y010399D01*
X006580Y010399D01*
X006669Y010436D01*
X006736Y010503D01*
X006773Y010592D01*
X006773Y010687D01*
X006736Y010775D01*
X006771Y010692D02*
X006935Y010692D01*
X006879Y010614D02*
X006773Y010614D01*
X006749Y010535D02*
X006859Y010535D01*
X006864Y010457D02*
X006689Y010457D01*
X006897Y010378D02*
X003070Y010378D01*
X003148Y010300D02*
X006995Y010300D01*
X007203Y010300D02*
X009194Y010300D01*
X009272Y010378D02*
X007300Y010378D01*
X006653Y010849D02*
X008684Y010849D01*
X008605Y010928D02*
X006281Y010928D01*
X006281Y010887D02*
X006244Y010799D01*
X006177Y010731D01*
X006088Y010695D01*
X005993Y010695D01*
X005905Y010731D01*
X005837Y010799D01*
X005801Y010887D01*
X005801Y010982D01*
X005837Y011071D01*
X005905Y011138D01*
X005993Y011175D01*
X006088Y011175D01*
X006177Y011138D01*
X006244Y011071D01*
X006281Y010982D01*
X006281Y010887D01*
X006265Y010849D02*
X006413Y010849D01*
X006327Y010771D02*
X006216Y010771D01*
X006295Y010692D02*
X005041Y010692D01*
X005050Y010715D02*
X005014Y010626D01*
X004946Y010559D01*
X004858Y010522D01*
X004763Y010522D01*
X004674Y010559D01*
X004607Y010626D01*
X004570Y010715D01*
X004570Y010810D01*
X004607Y010898D01*
X004674Y010966D01*
X004763Y011002D01*
X004858Y011002D01*
X004946Y010966D01*
X005014Y010898D01*
X005050Y010810D01*
X005050Y010715D01*
X005050Y010771D02*
X005865Y010771D01*
X005816Y010849D02*
X005034Y010849D01*
X004984Y010928D02*
X005801Y010928D01*
X005811Y011006D02*
X002441Y011006D01*
X002520Y010928D02*
X004636Y010928D01*
X004587Y010849D02*
X002598Y010849D01*
X002677Y010771D02*
X004570Y010771D01*
X004580Y010692D02*
X002755Y010692D01*
X002834Y010614D02*
X004619Y010614D01*
X004732Y010535D02*
X002913Y010535D01*
X002991Y010457D02*
X006376Y010457D01*
X006316Y010535D02*
X004889Y010535D01*
X005001Y010614D02*
X006293Y010614D01*
X006271Y011006D02*
X008527Y011006D01*
X008448Y011085D02*
X006230Y011085D01*
X006115Y011164D02*
X008370Y011164D01*
X008291Y011242D02*
X005477Y011242D01*
X005493Y011281D02*
X005457Y011192D01*
X005389Y011125D01*
X005301Y011088D01*
X005205Y011088D01*
X005117Y011125D01*
X005050Y011192D01*
X005013Y011281D01*
X005013Y011376D01*
X005050Y011464D01*
X005117Y011532D01*
X005205Y011568D01*
X005301Y011568D01*
X005389Y011532D01*
X005457Y011464D01*
X005493Y011376D01*
X005493Y011281D01*
X005493Y011321D02*
X008212Y011321D01*
X008134Y011399D02*
X005484Y011399D01*
X005443Y011478D02*
X008055Y011478D01*
X007977Y011556D02*
X005330Y011556D01*
X005176Y011556D02*
X004838Y011556D01*
X004809Y011568D02*
X004713Y011568D01*
X004625Y011532D01*
X004558Y011464D01*
X004521Y011376D01*
X004521Y011281D01*
X004558Y011192D01*
X004625Y011125D01*
X004713Y011088D01*
X004809Y011088D01*
X004897Y011125D01*
X004965Y011192D01*
X005001Y011281D01*
X005001Y011376D01*
X004965Y011464D01*
X004897Y011532D01*
X004809Y011568D01*
X004684Y011556D02*
X004279Y011556D01*
X004287Y011576D02*
X004251Y011488D01*
X004183Y011420D01*
X004095Y011384D01*
X004000Y011384D01*
X003912Y011420D01*
X003844Y011488D01*
X003808Y011576D01*
X003808Y011671D01*
X003844Y011760D01*
X003912Y011827D01*
X004000Y011864D01*
X004095Y011864D01*
X004183Y011827D01*
X004251Y011760D01*
X004287Y011671D01*
X004287Y011576D01*
X004287Y011635D02*
X007898Y011635D01*
X007820Y011713D02*
X004270Y011713D01*
X004309Y011792D02*
X004219Y011792D01*
X004199Y011870D02*
X002324Y011870D01*
X002324Y011792D02*
X003876Y011792D01*
X003825Y011713D02*
X002324Y011713D01*
X002324Y011635D02*
X003808Y011635D01*
X003816Y011556D02*
X002324Y011556D01*
X002324Y011478D02*
X003854Y011478D01*
X003962Y011399D02*
X002324Y011399D01*
X002324Y011321D02*
X004521Y011321D01*
X004531Y011399D02*
X004133Y011399D01*
X004241Y011478D02*
X004571Y011478D01*
X004537Y011242D02*
X002324Y011242D01*
X002324Y011164D02*
X004586Y011164D01*
X004936Y011164D02*
X005079Y011164D01*
X005029Y011242D02*
X004985Y011242D01*
X005001Y011321D02*
X005013Y011321D01*
X005023Y011399D02*
X004991Y011399D01*
X004951Y011478D02*
X005063Y011478D01*
X005428Y011164D02*
X005966Y011164D01*
X005852Y011085D02*
X002363Y011085D01*
X002055Y010771D02*
X000916Y010771D01*
X000916Y010849D02*
X001976Y010849D01*
X001898Y010928D02*
X000916Y010928D01*
X000916Y011006D02*
X001884Y011006D01*
X001884Y011085D02*
X000916Y011085D01*
X000916Y011164D02*
X001884Y011164D01*
X001884Y011242D02*
X000916Y011242D01*
X000916Y011321D02*
X001884Y011321D01*
X001884Y011399D02*
X000916Y011399D01*
X000916Y011478D02*
X001884Y011478D01*
X001884Y011556D02*
X000916Y011556D01*
X000916Y011635D02*
X001884Y011635D01*
X001884Y011713D02*
X000916Y011713D01*
X000916Y011792D02*
X001884Y011792D01*
X001884Y011870D02*
X000916Y011870D01*
X000916Y011949D02*
X001884Y011949D01*
X001884Y012028D02*
X000916Y012028D01*
X000916Y012106D02*
X001884Y012106D01*
X001884Y012185D02*
X000916Y012185D01*
X000916Y012263D02*
X001884Y012263D01*
X001884Y012342D02*
X000916Y012342D01*
X000916Y012420D02*
X001884Y012420D01*
X001884Y012499D02*
X000916Y012499D01*
X000916Y012577D02*
X001884Y012577D01*
X001884Y012656D02*
X000916Y012656D01*
X000916Y012734D02*
X001863Y012734D01*
X001835Y012813D02*
X000916Y012813D01*
X000916Y012892D02*
X001835Y012892D01*
X001861Y012970D02*
X000916Y012970D01*
X000916Y013049D02*
X001919Y013049D01*
X002049Y013127D02*
X000916Y013127D01*
X000916Y013206D02*
X001914Y013206D01*
X001859Y013284D02*
X000916Y013284D01*
X000916Y013363D02*
X001835Y013363D01*
X001835Y013441D02*
X000916Y013441D01*
X000916Y013520D02*
X001865Y013520D01*
X001927Y013598D02*
X000916Y013598D01*
X000916Y013677D02*
X004189Y013677D01*
X004127Y013756D02*
X000916Y013756D01*
X000916Y013834D02*
X004103Y013834D01*
X004104Y013913D02*
X000916Y013913D01*
X000916Y013991D02*
X004136Y013991D01*
X004215Y014070D02*
X000916Y014070D01*
X000916Y014148D02*
X009223Y014148D01*
X009233Y014171D02*
X009196Y014083D01*
X009196Y013987D01*
X009233Y013899D01*
X009300Y013832D01*
X009389Y013795D01*
X009484Y013795D01*
X009572Y013832D01*
X009640Y013899D01*
X009676Y013987D01*
X009676Y014083D01*
X009640Y014171D01*
X009572Y014238D01*
X009484Y014275D01*
X009389Y014275D01*
X009300Y014238D01*
X009233Y014171D01*
X009289Y014227D02*
X000916Y014227D01*
X000916Y014305D02*
X009523Y014305D01*
X009528Y014293D02*
X009596Y014225D01*
X009684Y014189D01*
X009779Y014189D01*
X009868Y014225D01*
X009935Y014293D01*
X009972Y014381D01*
X009972Y014476D01*
X009935Y014565D01*
X009868Y014632D01*
X009779Y014669D01*
X009684Y014669D01*
X009596Y014632D01*
X009528Y014565D01*
X009492Y014476D01*
X009492Y014381D01*
X009528Y014293D01*
X009584Y014227D02*
X009594Y014227D01*
X009649Y014148D02*
X010379Y014148D01*
X010379Y014070D02*
X009997Y014070D01*
X009860Y014070D02*
X009676Y014070D01*
X009676Y013991D02*
X009742Y013991D01*
X009699Y013913D02*
X009645Y013913D01*
X009688Y013834D02*
X009575Y013834D01*
X009298Y013834D02*
X004583Y013834D01*
X004582Y013913D02*
X009227Y013913D01*
X009196Y013991D02*
X004549Y013991D01*
X004470Y014070D02*
X009196Y014070D01*
X009492Y014384D02*
X000916Y014384D01*
X000916Y014462D02*
X009492Y014462D01*
X009518Y014541D02*
X000916Y014541D01*
X000916Y014619D02*
X009583Y014619D01*
X009880Y014619D02*
X010379Y014619D01*
X010379Y014541D02*
X009945Y014541D01*
X009972Y014462D02*
X010379Y014462D01*
X010379Y014384D02*
X009972Y014384D01*
X009940Y014305D02*
X010379Y014305D01*
X010379Y014227D02*
X009869Y014227D01*
X010115Y013991D02*
X010379Y013991D01*
X010379Y013913D02*
X010157Y013913D01*
X010168Y013834D02*
X010379Y013834D01*
X010379Y013756D02*
X010154Y013756D01*
X010107Y013677D02*
X010379Y013677D01*
X010659Y013913D02*
X012741Y013913D01*
X012923Y013913D02*
X014620Y013913D01*
X014620Y013991D02*
X010659Y013991D01*
X010379Y014698D02*
X000916Y014698D01*
X000916Y014777D02*
X007962Y014777D01*
X007972Y014767D02*
X008060Y014730D01*
X008155Y014730D01*
X008244Y014767D01*
X008311Y014834D01*
X008348Y014922D01*
X008348Y015018D01*
X008311Y015106D01*
X008244Y015174D01*
X008155Y015210D01*
X008060Y015210D01*
X007972Y015174D01*
X007904Y015106D01*
X007868Y015018D01*
X007868Y014922D01*
X007904Y014834D01*
X007972Y014767D01*
X007895Y014855D02*
X000916Y014855D01*
X000916Y014934D02*
X007868Y014934D01*
X007868Y015012D02*
X000916Y015012D01*
X000916Y015091D02*
X007898Y015091D01*
X007967Y015169D02*
X000916Y015169D01*
X000916Y015248D02*
X009224Y015248D01*
X009235Y015243D02*
X009342Y015243D01*
X009441Y015284D01*
X009516Y015359D01*
X009557Y015458D01*
X009557Y015565D01*
X009516Y015663D01*
X009441Y015739D01*
X009342Y015780D01*
X009235Y015780D01*
X009137Y015739D01*
X009061Y015663D01*
X009020Y015565D01*
X009020Y015458D01*
X009061Y015359D01*
X009137Y015284D01*
X009235Y015243D01*
X009354Y015248D02*
X010379Y015248D01*
X010379Y015326D02*
X009483Y015326D01*
X009535Y015405D02*
X010379Y015405D01*
X010379Y015483D02*
X009557Y015483D01*
X009557Y015562D02*
X010369Y015562D01*
X010519Y015610D02*
X010273Y015856D01*
X010054Y015955D02*
X009655Y015955D01*
X009640Y015917D02*
X009676Y016005D01*
X009676Y016100D01*
X009640Y016189D01*
X009572Y016256D01*
X009484Y016293D01*
X009389Y016293D01*
X009300Y016256D01*
X009233Y016189D01*
X009196Y016100D01*
X009196Y016005D01*
X009233Y015917D01*
X009300Y015849D01*
X009389Y015813D01*
X009484Y015813D01*
X009572Y015849D01*
X009640Y015917D01*
X009599Y015876D02*
X010033Y015876D01*
X010037Y015798D02*
X005216Y015798D01*
X005226Y015807D02*
X005345Y016094D01*
X005345Y016405D01*
X005226Y016692D01*
X005006Y016911D01*
X004719Y017030D01*
X004409Y017030D01*
X004122Y016911D01*
X003903Y016692D01*
X003784Y016405D01*
X003784Y016094D01*
X003903Y015807D01*
X004122Y015588D01*
X004409Y015469D01*
X004719Y015469D01*
X005006Y015588D01*
X005226Y015807D01*
X005254Y015876D02*
X009273Y015876D01*
X009217Y015955D02*
X005287Y015955D01*
X005319Y016033D02*
X009196Y016033D01*
X009201Y016112D02*
X005345Y016112D01*
X005345Y016190D02*
X007291Y016190D01*
X007283Y016194D02*
X007371Y016157D01*
X007466Y016157D01*
X007555Y016194D01*
X007622Y016261D01*
X007659Y016349D01*
X007659Y016445D01*
X007622Y016533D01*
X007555Y016601D01*
X007466Y016637D01*
X007371Y016637D01*
X007283Y016601D01*
X007215Y016533D01*
X007179Y016445D01*
X007179Y016349D01*
X007215Y016261D01*
X007283Y016194D01*
X007212Y016269D02*
X005345Y016269D01*
X005345Y016347D02*
X007179Y016347D01*
X007179Y016426D02*
X005336Y016426D01*
X005304Y016505D02*
X007203Y016505D01*
X007265Y016583D02*
X005271Y016583D01*
X005238Y016662D02*
X006815Y016662D01*
X006840Y016637D02*
X006928Y016600D01*
X007023Y016600D01*
X007112Y016637D01*
X007179Y016704D01*
X007216Y016792D01*
X007216Y016888D01*
X007179Y016976D01*
X007112Y017044D01*
X007023Y017080D01*
X006928Y017080D01*
X006840Y017044D01*
X006772Y016976D01*
X004851Y016976D01*
X005020Y016897D02*
X006740Y016897D01*
X006736Y016888D02*
X006736Y016792D01*
X006772Y016704D01*
X006840Y016637D01*
X006757Y016740D02*
X005178Y016740D01*
X005099Y016819D02*
X006736Y016819D01*
X006736Y016888D02*
X006772Y016976D01*
X006866Y017054D02*
X000916Y017054D01*
X000916Y016976D02*
X004278Y016976D01*
X004108Y016897D02*
X000916Y016897D01*
X000916Y016819D02*
X004029Y016819D01*
X003951Y016740D02*
X000916Y016740D01*
X000916Y016662D02*
X003890Y016662D01*
X003858Y016583D02*
X000916Y016583D01*
X000916Y016505D02*
X003825Y016505D01*
X003792Y016426D02*
X000916Y016426D01*
X000916Y016347D02*
X003784Y016347D01*
X003784Y016269D02*
X000916Y016269D01*
X000916Y016190D02*
X003784Y016190D01*
X003784Y016112D02*
X000916Y016112D01*
X000916Y016033D02*
X003809Y016033D01*
X003841Y015955D02*
X000916Y015955D01*
X000916Y015876D02*
X003874Y015876D01*
X003912Y015798D02*
X000916Y015798D01*
X000916Y015719D02*
X003991Y015719D01*
X004069Y015641D02*
X000916Y015641D01*
X000916Y015562D02*
X004185Y015562D01*
X004374Y015483D02*
X000916Y015483D01*
X000916Y015405D02*
X009042Y015405D01*
X009020Y015483D02*
X004754Y015483D01*
X004944Y015562D02*
X009020Y015562D01*
X009052Y015641D02*
X005059Y015641D01*
X005138Y015719D02*
X009117Y015719D01*
X009461Y015719D02*
X010070Y015719D01*
X010166Y015641D02*
X009526Y015641D01*
X009676Y016033D02*
X010111Y016033D01*
X009672Y016112D02*
X012143Y016112D01*
X012196Y016190D02*
X009638Y016190D01*
X009542Y016269D02*
X010603Y016269D01*
X010629Y016243D02*
X010717Y016206D01*
X010813Y016206D01*
X010901Y016243D01*
X010968Y016310D01*
X011005Y016399D01*
X011005Y016494D01*
X010968Y016582D01*
X010901Y016650D01*
X010813Y016686D01*
X010717Y016686D01*
X010629Y016650D01*
X010562Y016582D01*
X010525Y016494D01*
X010525Y016399D01*
X010562Y016310D01*
X010629Y016243D01*
X010546Y016347D02*
X009331Y016347D01*
X009332Y016349D02*
X009295Y016261D01*
X009228Y016194D01*
X009140Y016157D01*
X009044Y016157D01*
X008956Y016194D01*
X008888Y016261D01*
X008852Y016349D01*
X008852Y016445D01*
X008888Y016533D01*
X008956Y016601D01*
X009044Y016637D01*
X009140Y016637D01*
X009228Y016601D01*
X009295Y016533D01*
X009332Y016445D01*
X009332Y016349D01*
X009332Y016426D02*
X010525Y016426D01*
X010529Y016505D02*
X009307Y016505D01*
X009245Y016583D02*
X010562Y016583D01*
X010657Y016662D02*
X008922Y016662D01*
X008938Y016583D02*
X008617Y016583D01*
X008336Y016583D02*
X007572Y016583D01*
X007634Y016505D02*
X008876Y016505D01*
X008852Y016426D02*
X007659Y016426D01*
X007658Y016347D02*
X008853Y016347D01*
X008885Y016269D02*
X007625Y016269D01*
X007546Y016190D02*
X008964Y016190D01*
X009219Y016190D02*
X009234Y016190D01*
X009298Y016269D02*
X009331Y016269D01*
X009000Y016740D02*
X011349Y016740D01*
X011427Y016662D02*
X010873Y016662D01*
X010968Y016583D02*
X011506Y016583D01*
X011270Y016819D02*
X009079Y016819D01*
X009157Y016897D02*
X011192Y016897D01*
X011113Y016976D02*
X009510Y016976D01*
X009593Y017054D02*
X011034Y017054D01*
X010956Y017133D02*
X009625Y017133D01*
X009627Y017211D02*
X010930Y017211D01*
X010930Y017290D02*
X009603Y017290D01*
X009543Y017369D02*
X010930Y017369D01*
X010930Y017447D02*
X009363Y017447D01*
X009441Y017526D02*
X010930Y017526D01*
X010928Y017604D02*
X009520Y017604D01*
X009598Y017683D02*
X009740Y017683D01*
X010117Y017683D02*
X010849Y017683D01*
X011044Y017997D02*
X012250Y017997D01*
X012172Y017918D02*
X011122Y017918D01*
X011201Y017840D02*
X012093Y017840D01*
X012015Y017761D02*
X011280Y017761D01*
X011289Y017683D02*
X011936Y017683D01*
X011858Y017604D02*
X011289Y017604D01*
X011289Y017526D02*
X011779Y017526D01*
X011632Y017447D02*
X011289Y017447D01*
X011289Y017369D02*
X011564Y017369D01*
X011531Y017290D02*
X011308Y017290D01*
X011386Y017211D02*
X011530Y017211D01*
X011550Y017133D02*
X011465Y017133D01*
X011544Y017054D02*
X011598Y017054D01*
X011622Y016976D02*
X011720Y016976D01*
X011877Y016976D02*
X013205Y016976D01*
X013284Y017054D02*
X011999Y017054D01*
X012047Y017133D02*
X013362Y017133D01*
X013441Y017211D02*
X012087Y017211D01*
X012166Y017290D02*
X013519Y017290D01*
X013598Y017369D02*
X012244Y017369D01*
X012323Y017447D02*
X013676Y017447D01*
X013755Y017526D02*
X012401Y017526D01*
X012480Y017604D02*
X013794Y017604D01*
X013815Y017683D02*
X012558Y017683D01*
X012637Y017761D02*
X013866Y017761D01*
X013992Y017840D02*
X012716Y017840D01*
X012794Y017918D02*
X014789Y017918D01*
X014868Y017840D02*
X014133Y017840D01*
X014259Y017761D02*
X014946Y017761D01*
X015025Y017683D02*
X014508Y017683D01*
X014586Y017604D02*
X015097Y017604D01*
X015097Y017526D02*
X014665Y017526D01*
X014743Y017447D02*
X015097Y017447D01*
X015097Y017369D02*
X014822Y017369D01*
X014900Y017290D02*
X015097Y017290D01*
X015097Y017211D02*
X014979Y017211D01*
X014980Y017133D02*
X015097Y017133D01*
X015097Y017054D02*
X014980Y017054D01*
X014980Y016976D02*
X015097Y016976D01*
X015097Y016897D02*
X014980Y016897D01*
X014980Y016819D02*
X015097Y016819D01*
X015097Y016740D02*
X014980Y016740D01*
X014980Y016662D02*
X015097Y016662D01*
X015097Y016583D02*
X014980Y016583D01*
X014980Y016505D02*
X015097Y016505D01*
X015097Y016426D02*
X014980Y016426D01*
X014980Y016347D02*
X015097Y016347D01*
X015097Y016269D02*
X014980Y016269D01*
X014980Y016190D02*
X015097Y016190D01*
X015097Y016112D02*
X014980Y016112D01*
X014980Y016033D02*
X015097Y016033D01*
X015097Y015955D02*
X014980Y015955D01*
X014980Y015876D02*
X015097Y015876D01*
X015097Y015798D02*
X014980Y015798D01*
X014980Y015719D02*
X015097Y015719D01*
X015097Y015641D02*
X014980Y015641D01*
X014980Y015562D02*
X015097Y015562D01*
X015097Y015483D02*
X014980Y015483D01*
X014980Y015405D02*
X015097Y015405D01*
X015097Y015326D02*
X014980Y015326D01*
X014980Y015248D02*
X015171Y015248D01*
X015250Y015169D02*
X014980Y015169D01*
X014980Y015091D02*
X015328Y015091D01*
X015407Y015012D02*
X014980Y015012D01*
X014980Y014934D02*
X015485Y014934D01*
X015564Y014855D02*
X014980Y014855D01*
X014980Y014777D02*
X015642Y014777D01*
X015951Y015091D02*
X018885Y015091D01*
X018848Y015075D02*
X018780Y015008D01*
X018744Y014919D01*
X018744Y014824D01*
X018780Y014736D01*
X018848Y014668D01*
X018936Y014632D01*
X019031Y014632D01*
X019119Y014668D01*
X019187Y014736D01*
X019224Y014824D01*
X019224Y014919D01*
X019187Y015008D01*
X019119Y015075D01*
X019031Y015112D01*
X018936Y015112D01*
X018848Y015075D01*
X018785Y015012D02*
X016029Y015012D01*
X016108Y014934D02*
X018749Y014934D01*
X018744Y014855D02*
X016186Y014855D01*
X016265Y014777D02*
X018763Y014777D01*
X018818Y014698D02*
X016343Y014698D01*
X016422Y014619D02*
X020221Y014619D01*
X020221Y014541D02*
X016500Y014541D01*
X016579Y014462D02*
X020221Y014462D01*
X020221Y014384D02*
X016657Y014384D01*
X016736Y014305D02*
X020221Y014305D01*
X020221Y014227D02*
X016814Y014227D01*
X016893Y014148D02*
X020221Y014148D01*
X020221Y014070D02*
X016972Y014070D01*
X017050Y013991D02*
X020221Y013991D01*
X020221Y013913D02*
X017129Y013913D01*
X017207Y013834D02*
X020221Y013834D01*
X020221Y013756D02*
X017286Y013756D01*
X017364Y013677D02*
X020221Y013677D01*
X020221Y013598D02*
X017443Y013598D01*
X017521Y013520D02*
X020221Y013520D01*
X020221Y013441D02*
X019197Y013441D01*
X019234Y013426D02*
X019135Y013467D01*
X019029Y013467D01*
X018930Y013426D01*
X018854Y013350D01*
X018814Y013252D01*
X018814Y013145D01*
X018854Y013046D01*
X018930Y012971D01*
X019029Y012930D01*
X019135Y012930D01*
X019234Y012971D01*
X019309Y013046D01*
X019350Y013145D01*
X019350Y013252D01*
X019309Y013350D01*
X019234Y013426D01*
X019297Y013363D02*
X020221Y013363D01*
X020221Y013284D02*
X019337Y013284D01*
X019350Y013206D02*
X020221Y013206D01*
X020221Y013127D02*
X019343Y013127D01*
X019310Y013049D02*
X020221Y013049D01*
X020221Y012970D02*
X019232Y012970D01*
X019256Y012813D02*
X020221Y012813D01*
X020221Y012892D02*
X018150Y012892D01*
X018071Y012970D02*
X018932Y012970D01*
X018853Y013049D02*
X017993Y013049D01*
X017914Y013127D02*
X018821Y013127D01*
X018814Y013206D02*
X017836Y013206D01*
X017757Y013284D02*
X018827Y013284D01*
X018867Y013363D02*
X017678Y013363D01*
X017600Y013441D02*
X018967Y013441D01*
X018907Y012813D02*
X018228Y012813D01*
X018307Y012734D02*
X018844Y012734D01*
X018814Y012656D02*
X018385Y012656D01*
X018464Y012577D02*
X018814Y012577D01*
X018837Y012499D02*
X018542Y012499D01*
X018613Y012420D02*
X018890Y012420D01*
X019023Y012342D02*
X018613Y012342D01*
X018613Y012263D02*
X019116Y012263D01*
X019194Y012185D02*
X018613Y012185D01*
X018613Y012106D02*
X019273Y012106D01*
X019351Y012028D02*
X018613Y012028D01*
X018613Y011949D02*
X019430Y011949D01*
X019508Y011870D02*
X018613Y011870D01*
X018613Y011792D02*
X019551Y011792D01*
X019551Y011713D02*
X018613Y011713D01*
X018613Y011635D02*
X019551Y011635D01*
X019551Y011556D02*
X018613Y011556D01*
X018613Y011478D02*
X019551Y011478D01*
X019551Y011399D02*
X018613Y011399D01*
X018613Y011321D02*
X019551Y011321D01*
X019551Y011242D02*
X018613Y011242D01*
X018613Y011164D02*
X019551Y011164D01*
X019551Y011085D02*
X018613Y011085D01*
X018613Y011006D02*
X019551Y011006D01*
X019551Y010928D02*
X018613Y010928D01*
X018613Y010849D02*
X019551Y010849D01*
X019551Y010771D02*
X018613Y010771D01*
X018613Y010692D02*
X019551Y010692D01*
X019551Y010614D02*
X018613Y010614D01*
X018613Y010535D02*
X019551Y010535D01*
X019551Y010457D02*
X018613Y010457D01*
X018613Y010378D02*
X019551Y010378D01*
X019551Y010300D02*
X018613Y010300D01*
X018613Y010221D02*
X019551Y010221D01*
X019551Y010143D02*
X018613Y010143D01*
X018613Y010064D02*
X019551Y010064D01*
X019551Y009985D02*
X018613Y009985D01*
X018613Y009907D02*
X019551Y009907D01*
X019551Y009828D02*
X018613Y009828D01*
X018613Y009750D02*
X019551Y009750D01*
X019551Y009671D02*
X018613Y009671D01*
X018613Y009593D02*
X019551Y009593D01*
X019551Y009514D02*
X019173Y009514D01*
X019135Y009530D02*
X019234Y009489D01*
X019309Y009413D01*
X019350Y009315D01*
X019350Y009208D01*
X019309Y009109D01*
X019234Y009034D01*
X019135Y008993D01*
X019029Y008993D01*
X018930Y009034D01*
X018854Y009109D01*
X018814Y009208D01*
X018814Y009315D01*
X018854Y009413D01*
X018930Y009489D01*
X019029Y009530D01*
X019135Y009530D01*
X018991Y009514D02*
X018613Y009514D01*
X018613Y009436D02*
X018877Y009436D01*
X018831Y009357D02*
X018613Y009357D01*
X018613Y009279D02*
X018814Y009279D01*
X018817Y009200D02*
X018613Y009200D01*
X018613Y009121D02*
X018849Y009121D01*
X018921Y009043D02*
X018613Y009043D01*
X018613Y008964D02*
X019551Y008964D01*
X019551Y008886D02*
X018613Y008886D01*
X018613Y008807D02*
X019551Y008807D01*
X019551Y008729D02*
X018613Y008729D01*
X018613Y008650D02*
X019538Y008650D01*
X019459Y008572D02*
X018556Y008572D01*
X018477Y008493D02*
X019381Y008493D01*
X019302Y008415D02*
X018399Y008415D01*
X018320Y008336D02*
X019223Y008336D01*
X019145Y008257D02*
X018241Y008257D01*
X018163Y008179D02*
X019066Y008179D01*
X018988Y008100D02*
X018084Y008100D01*
X018006Y008022D02*
X018909Y008022D01*
X018831Y007943D02*
X017927Y007943D01*
X017849Y007865D02*
X018752Y007865D01*
X018674Y007786D02*
X017770Y007786D01*
X017692Y007708D02*
X018595Y007708D01*
X018517Y007629D02*
X017613Y007629D01*
X017535Y007551D02*
X018438Y007551D01*
X018359Y007472D02*
X017456Y007472D01*
X017378Y007394D02*
X018281Y007394D01*
X018202Y007315D02*
X017299Y007315D01*
X017220Y007236D02*
X018124Y007236D01*
X018045Y007158D02*
X017142Y007158D01*
X017063Y007079D02*
X017967Y007079D01*
X018275Y006765D02*
X020221Y006765D01*
X020221Y006687D02*
X018196Y006687D01*
X018118Y006608D02*
X020221Y006608D01*
X020221Y006530D02*
X018039Y006530D01*
X017961Y006451D02*
X020221Y006451D01*
X020221Y006372D02*
X017882Y006372D01*
X017804Y006294D02*
X020221Y006294D01*
X020221Y006215D02*
X017725Y006215D01*
X017646Y006137D02*
X020221Y006137D01*
X020221Y006058D02*
X017568Y006058D01*
X017489Y005980D02*
X020221Y005980D01*
X020221Y005901D02*
X017411Y005901D01*
X017332Y005823D02*
X020221Y005823D01*
X020221Y005744D02*
X017254Y005744D01*
X017175Y005666D02*
X020221Y005666D01*
X020221Y005587D02*
X015546Y005587D01*
X015468Y005508D02*
X020221Y005508D01*
X020221Y005430D02*
X015389Y005430D01*
X015311Y005351D02*
X020221Y005351D01*
X020221Y005273D02*
X015232Y005273D01*
X015154Y005194D02*
X020221Y005194D01*
X020221Y005116D02*
X015075Y005116D01*
X014997Y005037D02*
X020221Y005037D01*
X020221Y004959D02*
X016881Y004959D01*
X017038Y004880D02*
X020221Y004880D01*
X020221Y004802D02*
X017116Y004802D01*
X017195Y004723D02*
X020221Y004723D01*
X020221Y004644D02*
X017250Y004644D01*
X017283Y004566D02*
X020221Y004566D01*
X020221Y004487D02*
X017315Y004487D01*
X017348Y004409D02*
X020221Y004409D01*
X020221Y004330D02*
X017353Y004330D01*
X017353Y004252D02*
X020221Y004252D01*
X020221Y004173D02*
X017353Y004173D01*
X017353Y004095D02*
X020221Y004095D01*
X020221Y004016D02*
X017324Y004016D01*
X017291Y003938D02*
X020221Y003938D01*
X020221Y003859D02*
X017258Y003859D01*
X017215Y003781D02*
X020221Y003781D01*
X020221Y003702D02*
X017136Y003702D01*
X017058Y003623D02*
X020221Y003623D01*
X020221Y003545D02*
X016929Y003545D01*
X016740Y003466D02*
X020221Y003466D01*
X020221Y006844D02*
X018353Y006844D01*
X018432Y006922D02*
X020221Y006922D01*
X020221Y007001D02*
X018510Y007001D01*
X018589Y007079D02*
X020221Y007079D01*
X020221Y007158D02*
X018667Y007158D01*
X018746Y007236D02*
X020221Y007236D01*
X020221Y007315D02*
X018825Y007315D01*
X018903Y007394D02*
X020221Y007394D01*
X020221Y007472D02*
X018982Y007472D01*
X019060Y007551D02*
X020221Y007551D01*
X020221Y007629D02*
X019139Y007629D01*
X019217Y007708D02*
X020221Y007708D01*
X020221Y007786D02*
X019296Y007786D01*
X019374Y007865D02*
X020221Y007865D01*
X020221Y007943D02*
X019453Y007943D01*
X019531Y008022D02*
X020221Y008022D01*
X020221Y008100D02*
X019610Y008100D01*
X019689Y008179D02*
X020221Y008179D01*
X020221Y008257D02*
X019767Y008257D01*
X019846Y008336D02*
X020221Y008336D01*
X020221Y008415D02*
X019924Y008415D01*
X019991Y008493D02*
X020221Y008493D01*
X020221Y008572D02*
X019991Y008572D01*
X019991Y008650D02*
X020221Y008650D01*
X020221Y008729D02*
X019991Y008729D01*
X019991Y008807D02*
X020221Y008807D01*
X020221Y008886D02*
X019991Y008886D01*
X019991Y008964D02*
X020221Y008964D01*
X020221Y009043D02*
X019991Y009043D01*
X019991Y009121D02*
X020221Y009121D01*
X020221Y009200D02*
X019991Y009200D01*
X019991Y009279D02*
X020221Y009279D01*
X020221Y009357D02*
X019991Y009357D01*
X019991Y009436D02*
X020221Y009436D01*
X020221Y009514D02*
X019991Y009514D01*
X019991Y009593D02*
X020221Y009593D01*
X020221Y009671D02*
X019991Y009671D01*
X019991Y009750D02*
X020221Y009750D01*
X020221Y009828D02*
X019991Y009828D01*
X019991Y009907D02*
X020221Y009907D01*
X020221Y009985D02*
X019991Y009985D01*
X019991Y010064D02*
X020221Y010064D01*
X020221Y010143D02*
X019991Y010143D01*
X019991Y010221D02*
X020221Y010221D01*
X020221Y010300D02*
X019991Y010300D01*
X019991Y010378D02*
X020221Y010378D01*
X020221Y010457D02*
X019991Y010457D01*
X019991Y010535D02*
X020221Y010535D01*
X020221Y010614D02*
X019991Y010614D01*
X019991Y010692D02*
X020221Y010692D01*
X020221Y010771D02*
X019991Y010771D01*
X019991Y010849D02*
X020221Y010849D01*
X020221Y010928D02*
X019991Y010928D01*
X019991Y011006D02*
X020221Y011006D01*
X020221Y011085D02*
X019991Y011085D01*
X019991Y011164D02*
X020221Y011164D01*
X020221Y011242D02*
X019991Y011242D01*
X019991Y011321D02*
X020221Y011321D01*
X020221Y011399D02*
X019991Y011399D01*
X019991Y011478D02*
X020221Y011478D01*
X020221Y011556D02*
X019991Y011556D01*
X019991Y011635D02*
X020221Y011635D01*
X020221Y011713D02*
X019991Y011713D01*
X019991Y011792D02*
X020221Y011792D01*
X020221Y011870D02*
X019991Y011870D01*
X019991Y011949D02*
X020221Y011949D01*
X020221Y012028D02*
X019973Y012028D01*
X019895Y012106D02*
X020221Y012106D01*
X020221Y012185D02*
X019816Y012185D01*
X019738Y012263D02*
X020221Y012263D01*
X020221Y012342D02*
X019659Y012342D01*
X019581Y012420D02*
X020221Y012420D01*
X020221Y012499D02*
X019502Y012499D01*
X019424Y012577D02*
X020221Y012577D01*
X020221Y012656D02*
X019350Y012656D01*
X019320Y012734D02*
X020221Y012734D01*
X020221Y014698D02*
X019149Y014698D01*
X019204Y014777D02*
X020221Y014777D01*
X020221Y014855D02*
X019224Y014855D01*
X019218Y014934D02*
X020221Y014934D01*
X020221Y015012D02*
X019182Y015012D01*
X019082Y015091D02*
X020221Y015091D01*
X020221Y015169D02*
X015872Y015169D01*
X015793Y015248D02*
X020221Y015248D01*
X020221Y015326D02*
X015715Y015326D01*
X015636Y015405D02*
X020221Y015405D01*
X020221Y015483D02*
X016762Y015483D01*
X016727Y015469D02*
X017014Y015588D01*
X017234Y015807D01*
X017353Y016094D01*
X017353Y016405D01*
X017234Y016692D01*
X017014Y016911D01*
X016727Y017030D01*
X016417Y017030D01*
X016130Y016911D01*
X015910Y016692D01*
X015792Y016405D01*
X015792Y016094D01*
X015910Y015807D01*
X016130Y015588D01*
X016417Y015469D01*
X016727Y015469D01*
X016952Y015562D02*
X018643Y015562D01*
X018651Y015554D02*
X018739Y015517D01*
X018834Y015517D01*
X018923Y015554D01*
X018990Y015621D01*
X019027Y015710D01*
X019027Y015805D01*
X018990Y015893D01*
X018923Y015961D01*
X018834Y015997D01*
X018739Y015997D01*
X018651Y015961D01*
X018583Y015893D01*
X018547Y015805D01*
X018547Y015710D01*
X018583Y015621D01*
X018651Y015554D01*
X018575Y015641D02*
X017067Y015641D01*
X017145Y015719D02*
X018547Y015719D01*
X018547Y015798D02*
X017224Y015798D01*
X017262Y015876D02*
X018576Y015876D01*
X018645Y015955D02*
X017295Y015955D01*
X017327Y016033D02*
X020221Y016033D01*
X020221Y015955D02*
X018929Y015955D01*
X018997Y015876D02*
X020221Y015876D01*
X020221Y015798D02*
X019027Y015798D01*
X019027Y015719D02*
X020221Y015719D01*
X020221Y015641D02*
X018998Y015641D01*
X018931Y015562D02*
X020221Y015562D01*
X020221Y016112D02*
X017353Y016112D01*
X017353Y016190D02*
X020221Y016190D01*
X020221Y016269D02*
X017353Y016269D01*
X017353Y016347D02*
X020221Y016347D01*
X020221Y016426D02*
X017344Y016426D01*
X017311Y016505D02*
X020221Y016505D01*
X020221Y016583D02*
X017279Y016583D01*
X017246Y016662D02*
X020221Y016662D01*
X020221Y016740D02*
X017185Y016740D01*
X017107Y016819D02*
X020221Y016819D01*
X020221Y016897D02*
X017028Y016897D01*
X016859Y016976D02*
X020221Y016976D01*
X020221Y017054D02*
X015537Y017054D01*
X015537Y016976D02*
X016286Y016976D01*
X016116Y016897D02*
X015537Y016897D01*
X015537Y016819D02*
X016037Y016819D01*
X015959Y016740D02*
X015537Y016740D01*
X015537Y016662D02*
X015898Y016662D01*
X015865Y016583D02*
X015537Y016583D01*
X015537Y016505D02*
X015833Y016505D01*
X015800Y016426D02*
X015537Y016426D01*
X015537Y016347D02*
X015792Y016347D01*
X015792Y016269D02*
X015537Y016269D01*
X015537Y016190D02*
X015792Y016190D01*
X015792Y016112D02*
X015537Y016112D01*
X015537Y016033D02*
X015817Y016033D01*
X015849Y015955D02*
X015537Y015955D01*
X015537Y015876D02*
X015882Y015876D01*
X015920Y015798D02*
X015537Y015798D01*
X015537Y015719D02*
X015999Y015719D01*
X016077Y015641D02*
X015537Y015641D01*
X015537Y015562D02*
X016192Y015562D01*
X016382Y015483D02*
X015558Y015483D01*
X014620Y016033D02*
X013232Y016033D01*
X013263Y016046D02*
X013331Y016114D01*
X013367Y016202D01*
X013367Y016297D01*
X013331Y016386D01*
X013263Y016453D01*
X013175Y016490D01*
X013079Y016490D01*
X012991Y016453D01*
X012924Y016386D01*
X012887Y016297D01*
X012887Y016202D01*
X012924Y016114D01*
X012991Y016046D01*
X013079Y016010D01*
X013175Y016010D01*
X013263Y016046D01*
X013329Y016112D02*
X014620Y016112D01*
X014620Y016190D02*
X013362Y016190D01*
X013367Y016269D02*
X014620Y016269D01*
X014620Y016347D02*
X013346Y016347D01*
X013290Y016426D02*
X014620Y016426D01*
X014620Y016505D02*
X011001Y016505D01*
X011005Y016426D02*
X012964Y016426D01*
X012908Y016347D02*
X010984Y016347D01*
X010927Y016269D02*
X012328Y016269D01*
X012450Y016269D02*
X012887Y016269D01*
X012892Y016190D02*
X012582Y016190D01*
X012635Y016112D02*
X012926Y016112D01*
X013022Y016033D02*
X012657Y016033D01*
X012592Y015641D02*
X012108Y015641D01*
X012041Y015562D02*
X012612Y015562D01*
X012668Y015483D02*
X012037Y015483D01*
X011897Y015315D02*
X012635Y014576D01*
X012423Y014462D02*
X011335Y014462D01*
X011349Y014384D02*
X012488Y014384D01*
X012395Y014541D02*
X011287Y014541D01*
X010379Y014777D02*
X008253Y014777D01*
X008320Y014855D02*
X010379Y014855D01*
X010379Y014934D02*
X008348Y014934D01*
X008348Y015012D02*
X010379Y015012D01*
X010379Y015091D02*
X008317Y015091D01*
X008248Y015169D02*
X010379Y015169D01*
X010519Y015610D02*
X010519Y012263D01*
X009978Y011722D01*
X010201Y011635D02*
X010289Y011635D01*
X010243Y011556D02*
X010151Y011556D01*
X010230Y011478D02*
X008451Y011478D01*
X008373Y011556D02*
X008967Y011556D01*
X008938Y011586D02*
X009005Y011519D01*
X009093Y011482D01*
X009189Y011482D01*
X009277Y011519D01*
X009344Y011586D01*
X009381Y011674D01*
X009381Y011770D01*
X009344Y011858D01*
X009277Y011925D01*
X009189Y011962D01*
X009093Y011962D01*
X009005Y011925D01*
X008938Y011858D01*
X008901Y011770D01*
X008901Y011674D01*
X008938Y011586D01*
X008917Y011635D02*
X008294Y011635D01*
X008216Y011713D02*
X008901Y011713D01*
X008910Y011792D02*
X008137Y011792D01*
X008059Y011870D02*
X008950Y011870D01*
X009062Y011949D02*
X007980Y011949D01*
X007902Y012028D02*
X010085Y012028D01*
X009899Y011949D02*
X009220Y011949D01*
X009332Y011870D02*
X009787Y011870D01*
X009747Y011792D02*
X009372Y011792D01*
X009381Y011713D02*
X009738Y011713D01*
X009754Y011635D02*
X009365Y011635D01*
X009315Y011556D02*
X009804Y011556D01*
X010136Y011242D02*
X008687Y011242D01*
X008766Y011164D02*
X010058Y011164D01*
X009979Y011085D02*
X008844Y011085D01*
X008923Y011006D02*
X009901Y011006D01*
X009822Y010928D02*
X009143Y010928D01*
X008608Y011321D02*
X010215Y011321D01*
X010242Y011399D02*
X008530Y011399D01*
X007741Y011792D02*
X006893Y011792D01*
X007345Y012342D02*
X004115Y012342D01*
X004115Y012360D02*
X004115Y012265D01*
X004079Y012177D01*
X004011Y012109D01*
X003923Y012073D01*
X003828Y012073D01*
X003739Y012109D01*
X003672Y012177D01*
X003635Y012265D01*
X003635Y012360D01*
X003672Y012449D01*
X003739Y012516D01*
X003828Y012553D01*
X003923Y012553D01*
X004011Y012516D01*
X004079Y012449D01*
X004115Y012360D01*
X004090Y012420D02*
X007294Y012420D01*
X007277Y012499D02*
X004028Y012499D01*
X004115Y012263D02*
X010321Y012263D01*
X009975Y012734D02*
X007601Y012734D01*
X007433Y012734D02*
X005252Y012734D01*
X005235Y012693D02*
X005272Y012782D01*
X005272Y012877D01*
X005235Y012965D01*
X005168Y013033D01*
X005079Y013069D01*
X004984Y013069D01*
X004896Y013033D01*
X004828Y012965D01*
X004792Y012877D01*
X004792Y012782D01*
X004828Y012693D01*
X004896Y012626D01*
X004984Y012589D01*
X005079Y012589D01*
X005168Y012626D01*
X005235Y012693D01*
X005198Y012656D02*
X007324Y012656D01*
X007285Y012577D02*
X002324Y012577D01*
X002324Y012499D02*
X003722Y012499D01*
X003660Y012420D02*
X002324Y012420D01*
X002324Y012342D02*
X003635Y012342D01*
X003636Y012263D02*
X002324Y012263D01*
X002324Y012185D02*
X003668Y012185D01*
X003747Y012106D02*
X002324Y012106D01*
X002324Y012028D02*
X004152Y012028D01*
X004161Y011949D02*
X002324Y011949D01*
X002324Y012656D02*
X004866Y012656D01*
X004811Y012734D02*
X002345Y012734D01*
X002372Y012813D02*
X004792Y012813D01*
X004798Y012892D02*
X002372Y012892D01*
X002346Y012970D02*
X004833Y012970D01*
X004934Y013049D02*
X002289Y013049D01*
X002158Y013127D02*
X007375Y013127D01*
X007377Y013049D02*
X005129Y013049D01*
X005230Y012970D02*
X007409Y012970D01*
X007491Y012892D02*
X005266Y012892D01*
X005272Y012813D02*
X009876Y012813D01*
X009841Y012892D02*
X007739Y012892D01*
X007821Y012970D02*
X009836Y012970D01*
X009856Y013049D02*
X007854Y013049D01*
X007855Y013127D02*
X009911Y013127D01*
X010991Y012028D02*
X011819Y012028D01*
X011740Y011949D02*
X011070Y011949D01*
X011102Y011870D02*
X011707Y011870D01*
X011706Y011792D02*
X011103Y011792D01*
X011106Y011713D02*
X011079Y011713D01*
X011043Y011635D02*
X011017Y011635D01*
X011017Y011556D02*
X010696Y011556D01*
X010710Y011524D02*
X010673Y011612D01*
X010606Y011679D01*
X010517Y011716D01*
X010422Y011716D01*
X010524Y011713D02*
X010648Y011713D01*
X010650Y011635D02*
X010710Y011635D01*
X010710Y011524D02*
X010710Y011428D01*
X010673Y011340D01*
X010606Y011273D01*
X010532Y011242D01*
X010654Y011321D02*
X011124Y011321D01*
X011050Y011399D02*
X010698Y011399D01*
X010710Y011478D02*
X011017Y011478D01*
X011408Y011713D02*
X011731Y011713D01*
X011792Y011635D02*
X011471Y011635D01*
X012073Y012028D02*
X012302Y012028D01*
X012297Y011949D02*
X012153Y011949D01*
X012185Y011870D02*
X012317Y011870D01*
X012373Y011792D02*
X012186Y011792D01*
X010470Y011476D02*
X010470Y011378D01*
X005991Y006899D01*
X006741Y006530D02*
X008196Y006530D01*
X008308Y006451D02*
X006785Y006451D01*
X006383Y005194D02*
X009315Y005194D01*
X009358Y005116D02*
X006462Y005116D01*
X006540Y005037D02*
X009437Y005037D01*
X009444Y005031D02*
X009444Y005031D01*
X009516Y004959D02*
X006619Y004959D01*
X007603Y004880D02*
X009594Y004880D01*
X009673Y004802D02*
X007661Y004802D01*
X007691Y004723D02*
X009751Y004723D01*
X009830Y004644D02*
X007770Y004644D01*
X007848Y004566D02*
X012281Y004566D01*
X012398Y004566D02*
X013903Y004566D01*
X013825Y004487D02*
X007927Y004487D01*
X008005Y004409D02*
X013746Y004409D01*
X013668Y004330D02*
X008084Y004330D01*
X008163Y004252D02*
X013589Y004252D01*
X013510Y004173D02*
X008241Y004173D01*
X007892Y003362D02*
X007733Y003362D01*
X007586Y003301D01*
X007473Y003189D01*
X007412Y003042D01*
X007412Y002883D01*
X007473Y002736D01*
X007586Y002623D01*
X007733Y002562D01*
X007892Y002562D01*
X008039Y002623D01*
X008151Y002736D01*
X008212Y002883D01*
X008212Y003042D01*
X008151Y003189D01*
X008039Y003301D01*
X007892Y003362D01*
X008020Y003309D02*
X008589Y003309D01*
X008570Y003301D02*
X008457Y003189D01*
X008397Y003042D01*
X008397Y002883D01*
X008457Y002736D01*
X008570Y002623D01*
X008717Y002562D01*
X008876Y002562D01*
X009023Y002623D01*
X009136Y002736D01*
X009196Y002883D01*
X009196Y003042D01*
X009136Y003189D01*
X009023Y003301D01*
X008876Y003362D01*
X008717Y003362D01*
X008570Y003301D01*
X008499Y003231D02*
X008109Y003231D01*
X008167Y003152D02*
X008442Y003152D01*
X008410Y003074D02*
X008199Y003074D01*
X008212Y002995D02*
X008397Y002995D01*
X008397Y002917D02*
X008212Y002917D01*
X008194Y002838D02*
X008415Y002838D01*
X008448Y002759D02*
X008161Y002759D01*
X008097Y002681D02*
X008512Y002681D01*
X008620Y002602D02*
X007989Y002602D01*
X008052Y002288D02*
X008557Y002288D01*
X009036Y002288D02*
X009541Y002288D01*
X009701Y002562D02*
X009554Y002623D01*
X009442Y002736D01*
X009381Y002883D01*
X009381Y003042D01*
X009442Y003189D01*
X009554Y003301D01*
X009701Y003362D01*
X009860Y003362D01*
X010007Y003301D01*
X010120Y003189D01*
X010181Y003042D01*
X010181Y002883D01*
X010120Y002736D01*
X010007Y002623D01*
X009860Y002562D01*
X009701Y002562D01*
X009604Y002602D02*
X008973Y002602D01*
X009081Y002681D02*
X009496Y002681D01*
X009432Y002759D02*
X009145Y002759D01*
X009178Y002838D02*
X009399Y002838D01*
X009381Y002917D02*
X009196Y002917D01*
X009196Y002995D02*
X009381Y002995D01*
X009394Y003074D02*
X009183Y003074D01*
X009151Y003152D02*
X009427Y003152D01*
X009484Y003231D02*
X009094Y003231D01*
X009004Y003309D02*
X009573Y003309D01*
X009988Y003309D02*
X011148Y003309D01*
X011129Y003301D02*
X011016Y003189D01*
X010956Y003042D01*
X010956Y002883D01*
X011016Y002736D01*
X011129Y002623D01*
X011276Y002562D01*
X011435Y002562D01*
X011582Y002623D01*
X011695Y002736D01*
X011756Y002883D01*
X011756Y003042D01*
X011695Y003189D01*
X011582Y003301D01*
X011435Y003362D01*
X011276Y003362D01*
X011129Y003301D01*
X011058Y003231D02*
X010078Y003231D01*
X010135Y003152D02*
X011001Y003152D01*
X010969Y003074D02*
X010168Y003074D01*
X010181Y002995D02*
X010956Y002995D01*
X010956Y002917D02*
X010181Y002917D01*
X010162Y002838D02*
X010974Y002838D01*
X011007Y002759D02*
X010130Y002759D01*
X010065Y002681D02*
X011071Y002681D01*
X011179Y002602D02*
X009957Y002602D01*
X010020Y002288D02*
X011116Y002288D01*
X011595Y002288D02*
X012100Y002288D01*
X012260Y002562D02*
X012113Y002623D01*
X012001Y002736D01*
X011940Y002883D01*
X011940Y003042D01*
X012001Y003189D01*
X012113Y003301D01*
X012260Y003362D01*
X012419Y003362D01*
X012566Y003301D01*
X012679Y003189D01*
X012740Y003042D01*
X012740Y002883D01*
X012679Y002736D01*
X012566Y002623D01*
X012419Y002562D01*
X012260Y002562D01*
X012163Y002602D02*
X011532Y002602D01*
X011640Y002681D02*
X012055Y002681D01*
X011991Y002759D02*
X011705Y002759D01*
X011737Y002838D02*
X011958Y002838D01*
X011940Y002917D02*
X011756Y002917D01*
X011756Y002995D02*
X011940Y002995D01*
X011953Y003074D02*
X011742Y003074D01*
X011710Y003152D02*
X011986Y003152D01*
X012043Y003231D02*
X011653Y003231D01*
X011563Y003309D02*
X012133Y003309D01*
X012547Y003309D02*
X013117Y003309D01*
X013097Y003301D02*
X012985Y003189D01*
X012924Y003042D01*
X012924Y002883D01*
X012985Y002736D01*
X013097Y002623D01*
X013244Y002562D01*
X013404Y002562D01*
X013551Y002623D01*
X013663Y002736D01*
X013724Y002883D01*
X013724Y003042D01*
X013663Y003189D01*
X013551Y003301D01*
X013404Y003362D01*
X013244Y003362D01*
X013097Y003301D01*
X013027Y003231D02*
X012637Y003231D01*
X012694Y003152D02*
X012970Y003152D01*
X012937Y003074D02*
X012727Y003074D01*
X012740Y002995D02*
X012924Y002995D01*
X012924Y002917D02*
X012740Y002917D01*
X012721Y002838D02*
X012943Y002838D01*
X012975Y002759D02*
X012689Y002759D01*
X012624Y002681D02*
X013040Y002681D01*
X013148Y002602D02*
X012516Y002602D01*
X012579Y002288D02*
X013084Y002288D01*
X013564Y002288D02*
X014069Y002288D01*
X014132Y002602D02*
X013501Y002602D01*
X013608Y002681D02*
X014024Y002681D01*
X013959Y002759D02*
X013673Y002759D01*
X013706Y002838D02*
X013927Y002838D01*
X013908Y002917D02*
X013724Y002917D01*
X013724Y002995D02*
X013908Y002995D01*
X013922Y003074D02*
X013711Y003074D01*
X013678Y003152D02*
X013954Y003152D01*
X014011Y003231D02*
X013621Y003231D01*
X013531Y003309D02*
X014101Y003309D01*
X013982Y004644D02*
X012532Y004644D01*
X012585Y004723D02*
X014060Y004723D01*
X013939Y005980D02*
X009785Y005980D01*
X009755Y005901D02*
X011720Y005901D01*
X011641Y005823D02*
X009755Y005823D01*
X009755Y005744D02*
X011563Y005744D01*
X011484Y005666D02*
X010361Y005666D01*
X010327Y005700D02*
X010402Y005624D01*
X010443Y005525D01*
X010443Y005419D01*
X010402Y005320D01*
X010327Y005244D01*
X010228Y005204D01*
X010121Y005204D01*
X010022Y005244D01*
X009947Y005320D01*
X009906Y005419D01*
X009906Y005525D01*
X009947Y005624D01*
X010022Y005700D01*
X010121Y005740D01*
X010228Y005740D01*
X010327Y005700D01*
X010417Y005587D02*
X011406Y005587D01*
X011327Y005508D02*
X010443Y005508D01*
X010443Y005430D02*
X011248Y005430D01*
X011170Y005351D02*
X010415Y005351D01*
X010355Y005273D02*
X011091Y005273D01*
X011013Y005194D02*
X009902Y005194D01*
X009981Y005116D02*
X010934Y005116D01*
X010856Y005037D02*
X010059Y005037D01*
X009994Y005273D02*
X009824Y005273D01*
X009755Y005351D02*
X009934Y005351D01*
X009906Y005430D02*
X009755Y005430D01*
X009755Y005508D02*
X009906Y005508D01*
X009932Y005587D02*
X009755Y005587D01*
X009755Y005666D02*
X009988Y005666D01*
X009818Y006058D02*
X009818Y006165D01*
X009797Y006215D02*
X012859Y006215D01*
X012859Y006294D02*
X009747Y006294D01*
X009796Y006687D02*
X009920Y006687D01*
X009887Y006765D02*
X010006Y006765D01*
X009940Y006844D02*
X009919Y006844D01*
X010330Y006687D02*
X011887Y006687D01*
X011875Y006608D02*
X010363Y006608D01*
X010365Y006530D02*
X011883Y006530D01*
X011916Y006451D02*
X010342Y006451D01*
X010282Y006372D02*
X012000Y006372D01*
X012286Y006372D02*
X012884Y006372D01*
X012939Y006451D02*
X012370Y006451D01*
X012403Y006530D02*
X013509Y006530D01*
X013514Y006543D02*
X013478Y006455D01*
X013478Y006359D01*
X013514Y006271D01*
X013582Y006204D01*
X013670Y006167D01*
X013766Y006167D01*
X013854Y006204D01*
X013921Y006271D01*
X013958Y006359D01*
X013958Y006455D01*
X013921Y006543D01*
X013854Y006611D01*
X013766Y006647D01*
X013670Y006647D01*
X013582Y006611D01*
X013514Y006543D01*
X013579Y006608D02*
X012411Y006608D01*
X012399Y006687D02*
X014646Y006687D01*
X014724Y006765D02*
X012988Y006765D01*
X013072Y006922D02*
X015471Y006922D01*
X015431Y007001D02*
X013070Y007001D01*
X013038Y007079D02*
X015422Y007079D01*
X015438Y007158D02*
X012953Y007158D01*
X012711Y007158D02*
X011571Y007158D01*
X011563Y007079D02*
X011707Y007079D01*
X011628Y007001D02*
X011526Y007001D01*
X011553Y007236D02*
X012107Y007236D01*
X011925Y006765D02*
X011789Y006765D01*
X012361Y006765D02*
X012676Y006765D01*
X013315Y006451D02*
X013478Y006451D01*
X013478Y006372D02*
X013371Y006372D01*
X013396Y006294D02*
X013505Y006294D01*
X013570Y006215D02*
X013396Y006215D01*
X013367Y006137D02*
X014096Y006137D01*
X014175Y006215D02*
X013865Y006215D01*
X013931Y006294D02*
X014253Y006294D01*
X014332Y006372D02*
X013958Y006372D01*
X013958Y006451D02*
X014410Y006451D01*
X014489Y006530D02*
X013927Y006530D01*
X013856Y006608D02*
X014567Y006608D01*
X014018Y006058D02*
X013306Y006058D01*
X012165Y005037D02*
X011478Y005037D01*
X011399Y004959D02*
X012102Y004959D01*
X012071Y004880D02*
X011321Y004880D01*
X011242Y004802D02*
X012071Y004802D01*
X012095Y004723D02*
X011164Y004723D01*
X011085Y004644D02*
X012148Y004644D01*
X012076Y001660D02*
X011619Y001660D01*
X011481Y001581D02*
X012214Y001581D01*
X012220Y001346D02*
X011475Y001346D01*
X011616Y001267D02*
X012079Y001267D01*
X012001Y001189D02*
X011695Y001189D01*
X011727Y001110D02*
X011968Y001110D01*
X011940Y001031D02*
X011756Y001031D01*
X011756Y000953D02*
X011940Y000953D01*
X011943Y000874D02*
X011752Y000874D01*
X011720Y000796D02*
X011976Y000796D01*
X012019Y000717D02*
X011676Y000717D01*
X011598Y000639D02*
X012098Y000639D01*
X012582Y000639D02*
X013082Y000639D01*
X013003Y000717D02*
X012661Y000717D01*
X012704Y000796D02*
X012960Y000796D01*
X012927Y000874D02*
X012736Y000874D01*
X012740Y000953D02*
X012924Y000953D01*
X012924Y001031D02*
X012740Y001031D01*
X012712Y001110D02*
X012952Y001110D01*
X012985Y001189D02*
X012679Y001189D01*
X012601Y001267D02*
X013063Y001267D01*
X013205Y001346D02*
X012459Y001346D01*
X012465Y001581D02*
X013198Y001581D01*
X013061Y001660D02*
X012603Y001660D01*
X013450Y001581D02*
X014183Y001581D01*
X014045Y001660D02*
X013587Y001660D01*
X013444Y001346D02*
X014189Y001346D01*
X014048Y001267D02*
X013585Y001267D01*
X013663Y001189D02*
X013969Y001189D01*
X013937Y001110D02*
X013696Y001110D01*
X013724Y001031D02*
X013908Y001031D01*
X013908Y000953D02*
X013724Y000953D01*
X013721Y000874D02*
X013912Y000874D01*
X013944Y000796D02*
X013688Y000796D01*
X013645Y000717D02*
X013988Y000717D01*
X014066Y000639D02*
X013566Y000639D01*
X011236Y001346D02*
X009900Y001346D01*
X010041Y001267D02*
X011095Y001267D01*
X011016Y001189D02*
X010120Y001189D01*
X010152Y001110D02*
X010984Y001110D01*
X010956Y001031D02*
X010181Y001031D01*
X010181Y000953D02*
X010956Y000953D01*
X010959Y000874D02*
X010177Y000874D01*
X010145Y000796D02*
X010991Y000796D01*
X011035Y000717D02*
X010102Y000717D01*
X010023Y000639D02*
X011113Y000639D01*
X011230Y001581D02*
X009906Y001581D01*
X010044Y001660D02*
X011092Y001660D01*
X009655Y001581D02*
X008922Y001581D01*
X009060Y001660D02*
X009517Y001660D01*
X009661Y001346D02*
X008916Y001346D01*
X009057Y001267D02*
X009520Y001267D01*
X009442Y001189D02*
X009136Y001189D01*
X009168Y001110D02*
X009409Y001110D01*
X009381Y001031D02*
X009196Y001031D01*
X009196Y000953D02*
X009381Y000953D01*
X009384Y000874D02*
X009193Y000874D01*
X009161Y000796D02*
X009417Y000796D01*
X009460Y000717D02*
X009117Y000717D01*
X009039Y000639D02*
X009539Y000639D01*
X008677Y001346D02*
X007932Y001346D01*
X008073Y001267D02*
X008536Y001267D01*
X008457Y001189D02*
X008151Y001189D01*
X008184Y001110D02*
X008425Y001110D01*
X008397Y001031D02*
X008212Y001031D01*
X008212Y000953D02*
X008397Y000953D01*
X008400Y000874D02*
X008209Y000874D01*
X008176Y000796D02*
X008432Y000796D01*
X008476Y000717D02*
X008133Y000717D01*
X008055Y000639D02*
X008554Y000639D01*
X008671Y001581D02*
X007938Y001581D01*
X008076Y001660D02*
X008533Y001660D01*
X007687Y001581D02*
X006954Y001581D01*
X007091Y001660D02*
X007549Y001660D01*
X007693Y001346D02*
X006947Y001346D01*
X007089Y001267D02*
X007552Y001267D01*
X007473Y001189D02*
X007167Y001189D01*
X007200Y001110D02*
X007441Y001110D01*
X007412Y001031D02*
X007228Y001031D01*
X007228Y000953D02*
X007412Y000953D01*
X007416Y000874D02*
X007225Y000874D01*
X007192Y000796D02*
X007448Y000796D01*
X007491Y000717D02*
X007149Y000717D01*
X007070Y000639D02*
X007570Y000639D01*
X007573Y002288D02*
X007068Y002288D01*
X006908Y002562D02*
X007055Y002623D01*
X007167Y002736D01*
X007228Y002883D01*
X007228Y003042D01*
X007167Y003189D01*
X007055Y003301D01*
X006908Y003362D01*
X006748Y003362D01*
X006601Y003301D01*
X006489Y003189D01*
X006428Y003042D01*
X006428Y002883D01*
X006489Y002736D01*
X006601Y002623D01*
X006748Y002562D01*
X006908Y002562D01*
X007004Y002602D02*
X007636Y002602D01*
X007528Y002681D02*
X007112Y002681D01*
X007177Y002759D02*
X007463Y002759D01*
X007431Y002838D02*
X007209Y002838D01*
X007228Y002917D02*
X007412Y002917D01*
X007412Y002995D02*
X007228Y002995D01*
X007215Y003074D02*
X007426Y003074D01*
X007458Y003152D02*
X007182Y003152D01*
X007125Y003231D02*
X007515Y003231D01*
X007605Y003309D02*
X007035Y003309D01*
X006621Y003309D02*
X000916Y003309D01*
X000916Y003231D02*
X006531Y003231D01*
X006474Y003152D02*
X000916Y003152D01*
X000916Y003074D02*
X006441Y003074D01*
X006428Y002995D02*
X000916Y002995D01*
X000916Y002917D02*
X006428Y002917D01*
X006446Y002838D02*
X000916Y002838D01*
X000916Y002759D02*
X006479Y002759D01*
X006544Y002681D02*
X000916Y002681D01*
X000916Y002602D02*
X006651Y002602D01*
X004922Y003545D02*
X016215Y003545D01*
X016404Y003466D02*
X004732Y003466D01*
X002802Y006215D02*
X000916Y006215D01*
X000916Y006294D02*
X002746Y006294D01*
X002721Y006372D02*
X000916Y006372D01*
X000916Y006451D02*
X002721Y006451D01*
X002750Y006530D02*
X000916Y006530D01*
X000916Y006608D02*
X002811Y006608D01*
X005516Y008572D02*
X006686Y008572D01*
X006618Y008650D02*
X005621Y008650D01*
X005658Y008729D02*
X006588Y008729D01*
X006588Y008807D02*
X005665Y008807D01*
X005647Y008886D02*
X006617Y008886D01*
X006684Y008964D02*
X005594Y008964D01*
X005389Y009593D02*
X003855Y009593D01*
X003776Y009671D02*
X005267Y009671D01*
X003305Y010143D02*
X009037Y010143D01*
X009115Y010221D02*
X003227Y010221D01*
X002840Y009985D02*
X000916Y009985D01*
X000916Y010064D02*
X002762Y010064D01*
X002683Y010143D02*
X000916Y010143D01*
X000916Y010221D02*
X002604Y010221D01*
X002526Y010300D02*
X000916Y010300D01*
X000916Y010378D02*
X002447Y010378D01*
X002369Y010457D02*
X000916Y010457D01*
X000916Y010535D02*
X002290Y010535D01*
X002212Y010614D02*
X000916Y010614D01*
X000916Y010692D02*
X002133Y010692D01*
X004004Y012106D02*
X004169Y012106D01*
X004220Y012185D02*
X004082Y012185D01*
X002348Y013284D02*
X007460Y013284D01*
X007399Y013206D02*
X002294Y013206D01*
X000916Y015326D02*
X009094Y015326D01*
X008251Y016662D02*
X007137Y016662D01*
X007194Y016740D02*
X008217Y016740D01*
X008208Y016819D02*
X007216Y016819D01*
X007212Y016897D02*
X008220Y016897D01*
X008257Y016976D02*
X007179Y016976D01*
X007086Y017054D02*
X008352Y017054D01*
X008470Y017133D02*
X000916Y017133D01*
X000916Y017211D02*
X008458Y017211D01*
X008472Y017290D02*
X000916Y017290D01*
X000916Y017369D02*
X007665Y017369D01*
X007665Y017447D02*
X000916Y017447D01*
X000916Y017526D02*
X007665Y017526D01*
X007665Y017604D02*
X000916Y017604D01*
X000916Y017683D02*
X007665Y017683D01*
X007665Y017761D02*
X000916Y017761D01*
X000916Y017840D02*
X007665Y017840D01*
X007665Y017918D02*
X007606Y017918D01*
X007330Y017918D02*
X000916Y017918D01*
X000916Y017997D02*
X007259Y017997D01*
X007228Y018075D02*
X000916Y018075D01*
X000916Y018154D02*
X007228Y018154D01*
X007255Y018232D02*
X001982Y018232D01*
X001964Y018225D02*
X002250Y018344D01*
X002470Y018563D01*
X002589Y018850D01*
X002589Y019161D01*
X002470Y019448D01*
X002250Y019667D01*
X001964Y019786D01*
X001653Y019786D01*
X001366Y019667D01*
X001147Y019448D01*
X001028Y019161D01*
X001028Y018850D01*
X001147Y018563D01*
X001366Y018344D01*
X001653Y018225D01*
X001964Y018225D01*
X002171Y018311D02*
X007320Y018311D01*
X007533Y018547D02*
X002453Y018547D01*
X002496Y018625D02*
X007454Y018625D01*
X007376Y018704D02*
X002528Y018704D01*
X002561Y018782D02*
X007297Y018782D01*
X007219Y018861D02*
X002589Y018861D01*
X002589Y018939D02*
X007140Y018939D01*
X007062Y019018D02*
X002589Y019018D01*
X002589Y019096D02*
X006983Y019096D01*
X006905Y019175D02*
X002583Y019175D01*
X002550Y019254D02*
X006826Y019254D01*
X006747Y019332D02*
X002518Y019332D01*
X002485Y019411D02*
X006669Y019411D01*
X006590Y019489D02*
X002429Y019489D01*
X002350Y019568D02*
X006512Y019568D01*
X006433Y019646D02*
X002271Y019646D01*
X002111Y019725D02*
X006355Y019725D01*
X006276Y019803D02*
X001338Y019803D01*
X001230Y019725D02*
X001505Y019725D01*
X001566Y019882D02*
X006198Y019882D01*
X007611Y018468D02*
X002375Y018468D01*
X002296Y018390D02*
X007665Y018390D01*
X007665Y018311D02*
X007616Y018311D01*
X009239Y018311D02*
X009636Y018311D01*
X009635Y018390D02*
X009239Y018390D01*
X009293Y018468D02*
X009656Y018468D01*
X009705Y018547D02*
X009371Y018547D01*
X009450Y018625D02*
X009829Y018625D01*
X009979Y018625D02*
X011530Y018625D01*
X011530Y018665D02*
X011530Y018558D01*
X011571Y018460D01*
X011646Y018384D01*
X011745Y018343D01*
X011852Y018343D01*
X011951Y018384D01*
X012026Y018460D01*
X012067Y018558D01*
X012067Y018665D01*
X012026Y018764D01*
X011951Y018839D01*
X011852Y018880D01*
X011745Y018880D01*
X011646Y018839D01*
X011571Y018764D01*
X011530Y018665D01*
X011546Y018704D02*
X009528Y018704D01*
X009607Y018782D02*
X011589Y018782D01*
X011698Y018861D02*
X009685Y018861D01*
X009764Y018939D02*
X012071Y018939D01*
X012071Y018960D02*
X012071Y018854D01*
X012112Y018755D01*
X012188Y018680D01*
X012286Y018639D01*
X012393Y018639D01*
X012492Y018680D01*
X012567Y018755D01*
X012608Y018854D01*
X012608Y018960D01*
X012567Y019059D01*
X012492Y019135D01*
X012393Y019175D01*
X012286Y019175D01*
X012188Y019135D01*
X012112Y019059D01*
X012071Y018960D01*
X012095Y019018D02*
X009842Y019018D01*
X009921Y019096D02*
X012150Y019096D01*
X012285Y019175D02*
X009999Y019175D01*
X010078Y019254D02*
X013848Y019254D01*
X013852Y019258D02*
X013785Y019191D01*
X013748Y019102D01*
X013748Y019007D01*
X013785Y018919D01*
X013852Y018851D01*
X013941Y018815D01*
X014036Y018815D01*
X014124Y018851D01*
X014192Y018919D01*
X014228Y019007D01*
X014228Y019102D01*
X014192Y019191D01*
X014124Y019258D01*
X014036Y019295D01*
X013941Y019295D01*
X013852Y019258D01*
X013779Y019175D02*
X012394Y019175D01*
X012530Y019096D02*
X013748Y019096D01*
X013748Y019018D02*
X012584Y019018D01*
X012608Y018939D02*
X013776Y018939D01*
X013843Y018861D02*
X012608Y018861D01*
X012579Y018782D02*
X018576Y018782D01*
X018547Y018850D02*
X018666Y018563D01*
X018886Y018344D01*
X019173Y018225D01*
X019483Y018225D01*
X019770Y018344D01*
X019990Y018563D01*
X020109Y018850D01*
X020109Y019161D01*
X019990Y019448D01*
X019770Y019667D01*
X019483Y019786D01*
X019173Y019786D01*
X018886Y019667D01*
X018666Y019448D01*
X018547Y019161D01*
X018547Y018850D01*
X018547Y018861D02*
X014134Y018861D01*
X014200Y018939D02*
X018547Y018939D01*
X018547Y019018D02*
X014228Y019018D01*
X014228Y019096D02*
X018547Y019096D01*
X018553Y019175D02*
X014198Y019175D01*
X014129Y019254D02*
X018586Y019254D01*
X018618Y019332D02*
X010157Y019332D01*
X010235Y019411D02*
X018651Y019411D01*
X018708Y019489D02*
X010314Y019489D01*
X010392Y019568D02*
X018786Y019568D01*
X018865Y019646D02*
X010471Y019646D01*
X010549Y019725D02*
X019025Y019725D01*
X019571Y019882D02*
X010706Y019882D01*
X010628Y019803D02*
X019798Y019803D01*
X019906Y019725D02*
X019631Y019725D01*
X019791Y019646D02*
X020002Y019646D01*
X020059Y019568D02*
X019870Y019568D01*
X019948Y019489D02*
X020116Y019489D01*
X020152Y019411D02*
X020005Y019411D01*
X020038Y019332D02*
X020177Y019332D01*
X020203Y019254D02*
X020070Y019254D01*
X020103Y019175D02*
X020215Y019175D01*
X020221Y019096D02*
X020109Y019096D01*
X020109Y019018D02*
X020221Y019018D01*
X020221Y018939D02*
X020109Y018939D01*
X020109Y018861D02*
X020221Y018861D01*
X020221Y018782D02*
X020080Y018782D01*
X020048Y018704D02*
X020221Y018704D01*
X020221Y018625D02*
X020015Y018625D01*
X019973Y018547D02*
X020221Y018547D01*
X020221Y018468D02*
X019894Y018468D01*
X019816Y018390D02*
X020221Y018390D01*
X020221Y018311D02*
X019691Y018311D01*
X019501Y018232D02*
X020221Y018232D01*
X020221Y018154D02*
X015176Y018154D01*
X015254Y018075D02*
X020221Y018075D01*
X020221Y017997D02*
X015333Y017997D01*
X015411Y017918D02*
X020221Y017918D01*
X020221Y017840D02*
X015490Y017840D01*
X015537Y017761D02*
X020221Y017761D01*
X020221Y017683D02*
X015537Y017683D01*
X015537Y017604D02*
X020221Y017604D01*
X020221Y017526D02*
X015537Y017526D01*
X015537Y017447D02*
X020221Y017447D01*
X020221Y017369D02*
X015537Y017369D01*
X015537Y017290D02*
X020221Y017290D01*
X020221Y017211D02*
X015537Y017211D01*
X015537Y017133D02*
X020221Y017133D01*
X019155Y018232D02*
X015097Y018232D01*
X015019Y018311D02*
X018965Y018311D01*
X018840Y018390D02*
X014940Y018390D01*
X014862Y018468D02*
X018762Y018468D01*
X018683Y018547D02*
X014783Y018547D01*
X014704Y018625D02*
X018641Y018625D01*
X018608Y018704D02*
X014626Y018704D01*
X014396Y018311D02*
X013187Y018311D01*
X013108Y018232D02*
X014475Y018232D01*
X014554Y018154D02*
X013030Y018154D01*
X012951Y018075D02*
X014632Y018075D01*
X014711Y017997D02*
X012873Y017997D01*
X012565Y018311D02*
X010172Y018311D01*
X010172Y018390D02*
X011641Y018390D01*
X011567Y018468D02*
X010152Y018468D01*
X010102Y018547D02*
X011535Y018547D01*
X011956Y018390D02*
X012643Y018390D01*
X012722Y018468D02*
X012029Y018468D01*
X012062Y018547D02*
X012800Y018547D01*
X012879Y018625D02*
X012067Y018625D01*
X012051Y018704D02*
X012164Y018704D01*
X012101Y018782D02*
X012008Y018782D01*
X012071Y018861D02*
X011899Y018861D01*
X012516Y018704D02*
X012957Y018704D01*
X012486Y018232D02*
X010139Y018232D01*
X010072Y018154D02*
X012407Y018154D01*
X012329Y018075D02*
X010106Y018075D01*
X009751Y018075D02*
X009239Y018075D01*
X009239Y017997D02*
X009403Y017997D01*
X009325Y017918D02*
X009239Y017918D01*
X009239Y017840D02*
X009246Y017840D01*
X009239Y018154D02*
X009736Y018154D01*
X009668Y018232D02*
X009239Y018232D01*
X009223Y016976D02*
X009264Y016976D01*
X011897Y015757D02*
X011897Y015315D01*
X013028Y013834D02*
X014620Y013834D01*
X014620Y013756D02*
X013065Y013756D01*
X013072Y013677D02*
X013898Y013677D01*
X014030Y013677D02*
X014565Y013677D01*
X014533Y013598D02*
X014149Y013598D01*
X014192Y013520D02*
X014523Y013520D01*
X014522Y013441D02*
X014204Y013441D01*
X014190Y013363D02*
X014522Y013363D01*
X014522Y013284D02*
X014143Y013284D01*
X014014Y013206D02*
X014522Y013206D01*
X014028Y012734D02*
X013987Y012734D01*
X014220Y012185D02*
X014522Y012185D01*
X014522Y012106D02*
X014353Y012106D01*
X014335Y011713D02*
X014653Y011713D01*
X015005Y011870D02*
X015299Y011870D01*
X015299Y011871D02*
X015335Y011783D01*
X015403Y011715D01*
X015491Y011679D01*
X015586Y011679D01*
X015675Y011715D01*
X015736Y011776D01*
X015796Y011715D01*
X015885Y011679D01*
X015980Y011679D01*
X016068Y011715D01*
X016136Y011783D01*
X016172Y011871D01*
X016172Y011967D01*
X016136Y012055D01*
X016068Y012122D01*
X015980Y012159D01*
X015885Y012159D01*
X015796Y012122D01*
X015736Y012061D01*
X015675Y012122D01*
X015586Y012159D01*
X015491Y012159D01*
X015403Y012122D01*
X015335Y012055D01*
X015299Y011967D01*
X015299Y011871D01*
X015299Y011949D02*
X014926Y011949D01*
X014882Y012028D02*
X015324Y012028D01*
X015386Y012106D02*
X014882Y012106D01*
X015083Y011792D02*
X015331Y011792D01*
X015408Y011713D02*
X015162Y011713D01*
X015476Y011399D02*
X018173Y011399D01*
X018173Y011321D02*
X015555Y011321D01*
X015633Y011242D02*
X018173Y011242D01*
X018173Y011164D02*
X015712Y011164D01*
X015790Y011085D02*
X018173Y011085D01*
X018173Y011006D02*
X015869Y011006D01*
X015947Y010928D02*
X018173Y010928D01*
X018173Y010849D02*
X016026Y010849D01*
X016105Y010771D02*
X018173Y010771D01*
X018173Y010692D02*
X016183Y010692D01*
X016262Y010614D02*
X018173Y010614D01*
X018173Y010535D02*
X016340Y010535D01*
X016419Y010457D02*
X018173Y010457D01*
X018173Y010378D02*
X016497Y010378D01*
X016576Y010300D02*
X018173Y010300D01*
X018173Y010221D02*
X016654Y010221D01*
X016733Y010143D02*
X018173Y010143D01*
X018173Y010064D02*
X016811Y010064D01*
X016890Y009985D02*
X018173Y009985D01*
X018173Y009907D02*
X016969Y009907D01*
X017047Y009828D02*
X018173Y009828D01*
X018173Y009750D02*
X017126Y009750D01*
X017204Y009671D02*
X018173Y009671D01*
X018173Y009593D02*
X017400Y009593D01*
X017486Y009514D02*
X018173Y009514D01*
X018173Y009436D02*
X017520Y009436D01*
X017529Y009357D02*
X018173Y009357D01*
X018173Y009279D02*
X017518Y009279D01*
X017481Y009200D02*
X018173Y009200D01*
X018173Y009121D02*
X017387Y009121D01*
X017135Y009121D02*
X015575Y009121D01*
X015619Y009043D02*
X018173Y009043D01*
X018173Y008964D02*
X015631Y008964D01*
X015617Y008886D02*
X018173Y008886D01*
X018169Y008807D02*
X015572Y008807D01*
X015454Y009200D02*
X017041Y009200D01*
X019243Y009043D02*
X019551Y009043D01*
X019551Y009121D02*
X019314Y009121D01*
X019347Y009200D02*
X019551Y009200D01*
X019551Y009279D02*
X019350Y009279D01*
X019333Y009357D02*
X019551Y009357D01*
X019551Y009436D02*
X019287Y009436D01*
X016906Y011713D02*
X016063Y011713D01*
X016139Y011792D02*
X016861Y011792D01*
X016849Y011870D02*
X016172Y011870D01*
X016172Y011949D02*
X016862Y011949D01*
X016907Y012028D02*
X016147Y012028D01*
X016085Y012106D02*
X017033Y012106D01*
X015780Y012106D02*
X015691Y012106D01*
X015670Y011713D02*
X015801Y011713D01*
X013778Y013598D02*
X013054Y013598D01*
X013321Y016583D02*
X014620Y016583D01*
X014620Y016662D02*
X013400Y016662D01*
X013479Y016740D02*
X014620Y016740D01*
X014620Y016819D02*
X014224Y016819D01*
X014295Y016897D02*
X014620Y016897D01*
X014620Y016976D02*
X014327Y016976D01*
X014331Y017054D02*
X014620Y017054D01*
X014548Y017133D02*
X014313Y017133D01*
X014267Y017211D02*
X014470Y017211D01*
X014391Y017290D02*
X014153Y017290D01*
X014232Y017369D02*
X014313Y017369D01*
X013793Y017054D02*
X013794Y017054D01*
X013797Y016976D02*
X013714Y016976D01*
X013636Y016897D02*
X013830Y016897D01*
X013901Y016819D02*
X013557Y016819D01*
X014499Y007551D02*
X014566Y007483D01*
X001635Y018232D02*
X000916Y018232D01*
X000916Y018311D02*
X001445Y018311D01*
X001320Y018390D02*
X000916Y018390D01*
X000916Y018468D02*
X001242Y018468D01*
X001163Y018547D02*
X000916Y018547D01*
X000916Y018625D02*
X001121Y018625D01*
X001088Y018704D02*
X000916Y018704D01*
X000916Y018782D02*
X001056Y018782D01*
X001028Y018861D02*
X000916Y018861D01*
X000916Y018939D02*
X001028Y018939D01*
X001028Y019018D02*
X000916Y019018D01*
X000916Y019096D02*
X001028Y019096D01*
X001034Y019175D02*
X000921Y019175D01*
X000934Y019254D02*
X001066Y019254D01*
X001099Y019332D02*
X000959Y019332D01*
X000985Y019411D02*
X001131Y019411D01*
X001188Y019489D02*
X001020Y019489D01*
X001077Y019568D02*
X001267Y019568D01*
X001345Y019646D02*
X001134Y019646D01*
D14*
X008477Y016816D02*
X008821Y016816D01*
X009043Y017037D01*
X009043Y017381D01*
X009535Y017874D01*
X009928Y017874D01*
X010913Y017874D01*
X011110Y017677D01*
X011110Y017234D01*
X011602Y016742D01*
X013226Y016742D01*
X014062Y017578D01*
X014358Y017578D01*
X014800Y017135D01*
X014800Y013543D01*
X014702Y013444D01*
X014702Y011919D01*
X014161Y011919D01*
X014702Y011919D02*
X017261Y009360D01*
D15*
X018393Y008720D02*
X018393Y012337D01*
X015317Y015413D01*
X015317Y017701D01*
X014481Y018538D01*
X013103Y018538D01*
X011799Y017234D01*
X019082Y012608D02*
X019771Y011919D01*
X019771Y008572D01*
X017040Y005841D01*
X015489Y005841D01*
X013546Y003897D01*
X008206Y003897D01*
X007419Y004685D01*
X006582Y004685D01*
X003605Y007662D01*
X003605Y009532D01*
X003949Y009188D01*
X003949Y009089D01*
X003605Y009532D02*
X002104Y011033D01*
X002104Y012854D01*
X009535Y006097D02*
X009549Y006112D01*
X009535Y006097D02*
X009535Y005251D01*
X009978Y004808D01*
X010937Y004808D01*
X011872Y005743D01*
X014013Y005743D01*
X014850Y006579D01*
X016252Y006579D01*
X018393Y008720D01*
D16*
X014308Y001962D02*
X013324Y001962D01*
X012340Y001962D01*
X011356Y001962D01*
X009781Y001962D01*
X008797Y001962D01*
X007812Y001962D01*
X006828Y001962D01*
M02*
