G75*
G70*
%OFA0B0*%
%FSLAX24Y24*%
%IPPOS*%
%LPD*%
%AMOC8*
5,1,8,0,0,1.08239X$1,22.5*
%
%ADD10C,0.0000*%
%ADD11C,0.0060*%
%ADD12C,0.0120*%
%ADD13C,0.0236*%
%ADD14C,0.0080*%
%ADD15C,0.0160*%
%ADD16C,0.0118*%
%ADD17C,0.0200*%
%ADD18C,0.0090*%
%ADD19C,0.0040*%
%ADD20C,0.0050*%
%ADD21C,0.0079*%
D10*
X000726Y001387D02*
X000726Y019104D01*
X000728Y019166D01*
X000734Y019227D01*
X000743Y019288D01*
X000757Y019349D01*
X000774Y019408D01*
X000795Y019466D01*
X000820Y019523D01*
X000848Y019578D01*
X000879Y019631D01*
X000914Y019682D01*
X000952Y019731D01*
X000993Y019778D01*
X001036Y019821D01*
X001083Y019862D01*
X001132Y019900D01*
X001183Y019935D01*
X001236Y019966D01*
X001291Y019994D01*
X001348Y020019D01*
X001406Y020040D01*
X001465Y020057D01*
X001526Y020071D01*
X001587Y020080D01*
X001648Y020086D01*
X001710Y020088D01*
X019426Y020088D01*
X019488Y020086D01*
X019549Y020080D01*
X019610Y020071D01*
X019671Y020057D01*
X019730Y020040D01*
X019788Y020019D01*
X019845Y019994D01*
X019900Y019966D01*
X019953Y019935D01*
X020004Y019900D01*
X020053Y019862D01*
X020100Y019821D01*
X020143Y019778D01*
X020184Y019731D01*
X020222Y019682D01*
X020257Y019631D01*
X020288Y019578D01*
X020316Y019523D01*
X020341Y019466D01*
X020362Y019408D01*
X020379Y019349D01*
X020393Y019288D01*
X020402Y019227D01*
X020408Y019166D01*
X020410Y019104D01*
X020411Y019104D02*
X020411Y001387D01*
X020410Y001387D02*
X020408Y001325D01*
X020402Y001264D01*
X020393Y001203D01*
X020379Y001142D01*
X020362Y001083D01*
X020341Y001025D01*
X020316Y000968D01*
X020288Y000913D01*
X020257Y000860D01*
X020222Y000809D01*
X020184Y000760D01*
X020143Y000713D01*
X020100Y000670D01*
X020053Y000629D01*
X020004Y000591D01*
X019953Y000556D01*
X019900Y000525D01*
X019845Y000497D01*
X019788Y000472D01*
X019730Y000451D01*
X019671Y000434D01*
X019610Y000420D01*
X019549Y000411D01*
X019488Y000405D01*
X019426Y000403D01*
X001710Y000403D01*
X001648Y000405D01*
X001587Y000411D01*
X001526Y000420D01*
X001465Y000434D01*
X001406Y000451D01*
X001348Y000472D01*
X001291Y000497D01*
X001236Y000525D01*
X001183Y000556D01*
X001132Y000591D01*
X001083Y000629D01*
X001036Y000670D01*
X000993Y000713D01*
X000952Y000760D01*
X000914Y000809D01*
X000879Y000860D01*
X000848Y000913D01*
X000820Y000968D01*
X000795Y001025D01*
X000774Y001083D01*
X000757Y001142D01*
X000743Y001203D01*
X000734Y001264D01*
X000728Y001325D01*
X000726Y001387D01*
X001217Y001486D02*
X001219Y001534D01*
X001225Y001582D01*
X001235Y001629D01*
X001248Y001675D01*
X001266Y001720D01*
X001286Y001764D01*
X001311Y001806D01*
X001339Y001845D01*
X001369Y001882D01*
X001403Y001916D01*
X001440Y001948D01*
X001478Y001977D01*
X001519Y002002D01*
X001562Y002024D01*
X001607Y002042D01*
X001653Y002056D01*
X001700Y002067D01*
X001748Y002074D01*
X001796Y002077D01*
X001844Y002076D01*
X001892Y002071D01*
X001940Y002062D01*
X001986Y002050D01*
X002031Y002033D01*
X002075Y002013D01*
X002117Y001990D01*
X002157Y001963D01*
X002195Y001933D01*
X002230Y001900D01*
X002262Y001864D01*
X002292Y001826D01*
X002318Y001785D01*
X002340Y001742D01*
X002360Y001698D01*
X002375Y001653D01*
X002387Y001606D01*
X002395Y001558D01*
X002399Y001510D01*
X002399Y001462D01*
X002395Y001414D01*
X002387Y001366D01*
X002375Y001319D01*
X002360Y001274D01*
X002340Y001230D01*
X002318Y001187D01*
X002292Y001146D01*
X002262Y001108D01*
X002230Y001072D01*
X002195Y001039D01*
X002157Y001009D01*
X002117Y000982D01*
X002075Y000959D01*
X002031Y000939D01*
X001986Y000922D01*
X001940Y000910D01*
X001892Y000901D01*
X001844Y000896D01*
X001796Y000895D01*
X001748Y000898D01*
X001700Y000905D01*
X001653Y000916D01*
X001607Y000930D01*
X001562Y000948D01*
X001519Y000970D01*
X001478Y000995D01*
X001440Y001024D01*
X001403Y001056D01*
X001369Y001090D01*
X001339Y001127D01*
X001311Y001166D01*
X001286Y001208D01*
X001266Y001252D01*
X001248Y001297D01*
X001235Y001343D01*
X001225Y001390D01*
X001219Y001438D01*
X001217Y001486D01*
X003973Y004242D02*
X003975Y004290D01*
X003981Y004338D01*
X003991Y004385D01*
X004004Y004431D01*
X004022Y004476D01*
X004042Y004520D01*
X004067Y004562D01*
X004095Y004601D01*
X004125Y004638D01*
X004159Y004672D01*
X004196Y004704D01*
X004234Y004733D01*
X004275Y004758D01*
X004318Y004780D01*
X004363Y004798D01*
X004409Y004812D01*
X004456Y004823D01*
X004504Y004830D01*
X004552Y004833D01*
X004600Y004832D01*
X004648Y004827D01*
X004696Y004818D01*
X004742Y004806D01*
X004787Y004789D01*
X004831Y004769D01*
X004873Y004746D01*
X004913Y004719D01*
X004951Y004689D01*
X004986Y004656D01*
X005018Y004620D01*
X005048Y004582D01*
X005074Y004541D01*
X005096Y004498D01*
X005116Y004454D01*
X005131Y004409D01*
X005143Y004362D01*
X005151Y004314D01*
X005155Y004266D01*
X005155Y004218D01*
X005151Y004170D01*
X005143Y004122D01*
X005131Y004075D01*
X005116Y004030D01*
X005096Y003986D01*
X005074Y003943D01*
X005048Y003902D01*
X005018Y003864D01*
X004986Y003828D01*
X004951Y003795D01*
X004913Y003765D01*
X004873Y003738D01*
X004831Y003715D01*
X004787Y003695D01*
X004742Y003678D01*
X004696Y003666D01*
X004648Y003657D01*
X004600Y003652D01*
X004552Y003651D01*
X004504Y003654D01*
X004456Y003661D01*
X004409Y003672D01*
X004363Y003686D01*
X004318Y003704D01*
X004275Y003726D01*
X004234Y003751D01*
X004196Y003780D01*
X004159Y003812D01*
X004125Y003846D01*
X004095Y003883D01*
X004067Y003922D01*
X004042Y003964D01*
X004022Y004008D01*
X004004Y004053D01*
X003991Y004099D01*
X003981Y004146D01*
X003975Y004194D01*
X003973Y004242D01*
X003973Y016250D02*
X003975Y016298D01*
X003981Y016346D01*
X003991Y016393D01*
X004004Y016439D01*
X004022Y016484D01*
X004042Y016528D01*
X004067Y016570D01*
X004095Y016609D01*
X004125Y016646D01*
X004159Y016680D01*
X004196Y016712D01*
X004234Y016741D01*
X004275Y016766D01*
X004318Y016788D01*
X004363Y016806D01*
X004409Y016820D01*
X004456Y016831D01*
X004504Y016838D01*
X004552Y016841D01*
X004600Y016840D01*
X004648Y016835D01*
X004696Y016826D01*
X004742Y016814D01*
X004787Y016797D01*
X004831Y016777D01*
X004873Y016754D01*
X004913Y016727D01*
X004951Y016697D01*
X004986Y016664D01*
X005018Y016628D01*
X005048Y016590D01*
X005074Y016549D01*
X005096Y016506D01*
X005116Y016462D01*
X005131Y016417D01*
X005143Y016370D01*
X005151Y016322D01*
X005155Y016274D01*
X005155Y016226D01*
X005151Y016178D01*
X005143Y016130D01*
X005131Y016083D01*
X005116Y016038D01*
X005096Y015994D01*
X005074Y015951D01*
X005048Y015910D01*
X005018Y015872D01*
X004986Y015836D01*
X004951Y015803D01*
X004913Y015773D01*
X004873Y015746D01*
X004831Y015723D01*
X004787Y015703D01*
X004742Y015686D01*
X004696Y015674D01*
X004648Y015665D01*
X004600Y015660D01*
X004552Y015659D01*
X004504Y015662D01*
X004456Y015669D01*
X004409Y015680D01*
X004363Y015694D01*
X004318Y015712D01*
X004275Y015734D01*
X004234Y015759D01*
X004196Y015788D01*
X004159Y015820D01*
X004125Y015854D01*
X004095Y015891D01*
X004067Y015930D01*
X004042Y015972D01*
X004022Y016016D01*
X004004Y016061D01*
X003991Y016107D01*
X003981Y016154D01*
X003975Y016202D01*
X003973Y016250D01*
X001217Y019006D02*
X001219Y019054D01*
X001225Y019102D01*
X001235Y019149D01*
X001248Y019195D01*
X001266Y019240D01*
X001286Y019284D01*
X001311Y019326D01*
X001339Y019365D01*
X001369Y019402D01*
X001403Y019436D01*
X001440Y019468D01*
X001478Y019497D01*
X001519Y019522D01*
X001562Y019544D01*
X001607Y019562D01*
X001653Y019576D01*
X001700Y019587D01*
X001748Y019594D01*
X001796Y019597D01*
X001844Y019596D01*
X001892Y019591D01*
X001940Y019582D01*
X001986Y019570D01*
X002031Y019553D01*
X002075Y019533D01*
X002117Y019510D01*
X002157Y019483D01*
X002195Y019453D01*
X002230Y019420D01*
X002262Y019384D01*
X002292Y019346D01*
X002318Y019305D01*
X002340Y019262D01*
X002360Y019218D01*
X002375Y019173D01*
X002387Y019126D01*
X002395Y019078D01*
X002399Y019030D01*
X002399Y018982D01*
X002395Y018934D01*
X002387Y018886D01*
X002375Y018839D01*
X002360Y018794D01*
X002340Y018750D01*
X002318Y018707D01*
X002292Y018666D01*
X002262Y018628D01*
X002230Y018592D01*
X002195Y018559D01*
X002157Y018529D01*
X002117Y018502D01*
X002075Y018479D01*
X002031Y018459D01*
X001986Y018442D01*
X001940Y018430D01*
X001892Y018421D01*
X001844Y018416D01*
X001796Y018415D01*
X001748Y018418D01*
X001700Y018425D01*
X001653Y018436D01*
X001607Y018450D01*
X001562Y018468D01*
X001519Y018490D01*
X001478Y018515D01*
X001440Y018544D01*
X001403Y018576D01*
X001369Y018610D01*
X001339Y018647D01*
X001311Y018686D01*
X001286Y018728D01*
X001266Y018772D01*
X001248Y018817D01*
X001235Y018863D01*
X001225Y018910D01*
X001219Y018958D01*
X001217Y019006D01*
X015981Y016250D02*
X015983Y016298D01*
X015989Y016346D01*
X015999Y016393D01*
X016012Y016439D01*
X016030Y016484D01*
X016050Y016528D01*
X016075Y016570D01*
X016103Y016609D01*
X016133Y016646D01*
X016167Y016680D01*
X016204Y016712D01*
X016242Y016741D01*
X016283Y016766D01*
X016326Y016788D01*
X016371Y016806D01*
X016417Y016820D01*
X016464Y016831D01*
X016512Y016838D01*
X016560Y016841D01*
X016608Y016840D01*
X016656Y016835D01*
X016704Y016826D01*
X016750Y016814D01*
X016795Y016797D01*
X016839Y016777D01*
X016881Y016754D01*
X016921Y016727D01*
X016959Y016697D01*
X016994Y016664D01*
X017026Y016628D01*
X017056Y016590D01*
X017082Y016549D01*
X017104Y016506D01*
X017124Y016462D01*
X017139Y016417D01*
X017151Y016370D01*
X017159Y016322D01*
X017163Y016274D01*
X017163Y016226D01*
X017159Y016178D01*
X017151Y016130D01*
X017139Y016083D01*
X017124Y016038D01*
X017104Y015994D01*
X017082Y015951D01*
X017056Y015910D01*
X017026Y015872D01*
X016994Y015836D01*
X016959Y015803D01*
X016921Y015773D01*
X016881Y015746D01*
X016839Y015723D01*
X016795Y015703D01*
X016750Y015686D01*
X016704Y015674D01*
X016656Y015665D01*
X016608Y015660D01*
X016560Y015659D01*
X016512Y015662D01*
X016464Y015669D01*
X016417Y015680D01*
X016371Y015694D01*
X016326Y015712D01*
X016283Y015734D01*
X016242Y015759D01*
X016204Y015788D01*
X016167Y015820D01*
X016133Y015854D01*
X016103Y015891D01*
X016075Y015930D01*
X016050Y015972D01*
X016030Y016016D01*
X016012Y016061D01*
X015999Y016107D01*
X015989Y016154D01*
X015983Y016202D01*
X015981Y016250D01*
X018737Y019006D02*
X018739Y019054D01*
X018745Y019102D01*
X018755Y019149D01*
X018768Y019195D01*
X018786Y019240D01*
X018806Y019284D01*
X018831Y019326D01*
X018859Y019365D01*
X018889Y019402D01*
X018923Y019436D01*
X018960Y019468D01*
X018998Y019497D01*
X019039Y019522D01*
X019082Y019544D01*
X019127Y019562D01*
X019173Y019576D01*
X019220Y019587D01*
X019268Y019594D01*
X019316Y019597D01*
X019364Y019596D01*
X019412Y019591D01*
X019460Y019582D01*
X019506Y019570D01*
X019551Y019553D01*
X019595Y019533D01*
X019637Y019510D01*
X019677Y019483D01*
X019715Y019453D01*
X019750Y019420D01*
X019782Y019384D01*
X019812Y019346D01*
X019838Y019305D01*
X019860Y019262D01*
X019880Y019218D01*
X019895Y019173D01*
X019907Y019126D01*
X019915Y019078D01*
X019919Y019030D01*
X019919Y018982D01*
X019915Y018934D01*
X019907Y018886D01*
X019895Y018839D01*
X019880Y018794D01*
X019860Y018750D01*
X019838Y018707D01*
X019812Y018666D01*
X019782Y018628D01*
X019750Y018592D01*
X019715Y018559D01*
X019677Y018529D01*
X019637Y018502D01*
X019595Y018479D01*
X019551Y018459D01*
X019506Y018442D01*
X019460Y018430D01*
X019412Y018421D01*
X019364Y018416D01*
X019316Y018415D01*
X019268Y018418D01*
X019220Y018425D01*
X019173Y018436D01*
X019127Y018450D01*
X019082Y018468D01*
X019039Y018490D01*
X018998Y018515D01*
X018960Y018544D01*
X018923Y018576D01*
X018889Y018610D01*
X018859Y018647D01*
X018831Y018686D01*
X018806Y018728D01*
X018786Y018772D01*
X018768Y018817D01*
X018755Y018863D01*
X018745Y018910D01*
X018739Y018958D01*
X018737Y019006D01*
X015981Y004242D02*
X015983Y004290D01*
X015989Y004338D01*
X015999Y004385D01*
X016012Y004431D01*
X016030Y004476D01*
X016050Y004520D01*
X016075Y004562D01*
X016103Y004601D01*
X016133Y004638D01*
X016167Y004672D01*
X016204Y004704D01*
X016242Y004733D01*
X016283Y004758D01*
X016326Y004780D01*
X016371Y004798D01*
X016417Y004812D01*
X016464Y004823D01*
X016512Y004830D01*
X016560Y004833D01*
X016608Y004832D01*
X016656Y004827D01*
X016704Y004818D01*
X016750Y004806D01*
X016795Y004789D01*
X016839Y004769D01*
X016881Y004746D01*
X016921Y004719D01*
X016959Y004689D01*
X016994Y004656D01*
X017026Y004620D01*
X017056Y004582D01*
X017082Y004541D01*
X017104Y004498D01*
X017124Y004454D01*
X017139Y004409D01*
X017151Y004362D01*
X017159Y004314D01*
X017163Y004266D01*
X017163Y004218D01*
X017159Y004170D01*
X017151Y004122D01*
X017139Y004075D01*
X017124Y004030D01*
X017104Y003986D01*
X017082Y003943D01*
X017056Y003902D01*
X017026Y003864D01*
X016994Y003828D01*
X016959Y003795D01*
X016921Y003765D01*
X016881Y003738D01*
X016839Y003715D01*
X016795Y003695D01*
X016750Y003678D01*
X016704Y003666D01*
X016656Y003657D01*
X016608Y003652D01*
X016560Y003651D01*
X016512Y003654D01*
X016464Y003661D01*
X016417Y003672D01*
X016371Y003686D01*
X016326Y003704D01*
X016283Y003726D01*
X016242Y003751D01*
X016204Y003780D01*
X016167Y003812D01*
X016133Y003846D01*
X016103Y003883D01*
X016075Y003922D01*
X016050Y003964D01*
X016030Y004008D01*
X016012Y004053D01*
X015999Y004099D01*
X015989Y004146D01*
X015983Y004194D01*
X015981Y004242D01*
X018737Y001486D02*
X018739Y001534D01*
X018745Y001582D01*
X018755Y001629D01*
X018768Y001675D01*
X018786Y001720D01*
X018806Y001764D01*
X018831Y001806D01*
X018859Y001845D01*
X018889Y001882D01*
X018923Y001916D01*
X018960Y001948D01*
X018998Y001977D01*
X019039Y002002D01*
X019082Y002024D01*
X019127Y002042D01*
X019173Y002056D01*
X019220Y002067D01*
X019268Y002074D01*
X019316Y002077D01*
X019364Y002076D01*
X019412Y002071D01*
X019460Y002062D01*
X019506Y002050D01*
X019551Y002033D01*
X019595Y002013D01*
X019637Y001990D01*
X019677Y001963D01*
X019715Y001933D01*
X019750Y001900D01*
X019782Y001864D01*
X019812Y001826D01*
X019838Y001785D01*
X019860Y001742D01*
X019880Y001698D01*
X019895Y001653D01*
X019907Y001606D01*
X019915Y001558D01*
X019919Y001510D01*
X019919Y001462D01*
X019915Y001414D01*
X019907Y001366D01*
X019895Y001319D01*
X019880Y001274D01*
X019860Y001230D01*
X019838Y001187D01*
X019812Y001146D01*
X019782Y001108D01*
X019750Y001072D01*
X019715Y001039D01*
X019677Y001009D01*
X019637Y000982D01*
X019595Y000959D01*
X019551Y000939D01*
X019506Y000922D01*
X019460Y000910D01*
X019412Y000901D01*
X019364Y000896D01*
X019316Y000895D01*
X019268Y000898D01*
X019220Y000905D01*
X019173Y000916D01*
X019127Y000930D01*
X019082Y000948D01*
X019039Y000970D01*
X018998Y000995D01*
X018960Y001024D01*
X018923Y001056D01*
X018889Y001090D01*
X018859Y001127D01*
X018831Y001166D01*
X018806Y001208D01*
X018786Y001252D01*
X018768Y001297D01*
X018755Y001343D01*
X018745Y001390D01*
X018739Y001438D01*
X018737Y001486D01*
D11*
X014653Y007982D02*
X013373Y007982D01*
X013373Y009950D01*
X014653Y009950D01*
X014653Y007982D01*
D12*
X014407Y008622D02*
X014409Y008635D01*
X014414Y008647D01*
X014423Y008658D01*
X014433Y008666D01*
X014446Y008670D01*
X014459Y008671D01*
X014472Y008668D01*
X014484Y008662D01*
X014494Y008653D01*
X014501Y008642D01*
X014505Y008629D01*
X014505Y008615D01*
X014501Y008602D01*
X014494Y008591D01*
X014484Y008582D01*
X014472Y008576D01*
X014459Y008573D01*
X014446Y008574D01*
X014433Y008578D01*
X014423Y008586D01*
X014414Y008597D01*
X014409Y008609D01*
X014407Y008622D01*
X008452Y015265D02*
X008454Y015278D01*
X008459Y015290D01*
X008468Y015301D01*
X008478Y015309D01*
X008491Y015313D01*
X008504Y015314D01*
X008517Y015311D01*
X008529Y015305D01*
X008539Y015296D01*
X008546Y015285D01*
X008550Y015272D01*
X008550Y015258D01*
X008546Y015245D01*
X008539Y015234D01*
X008529Y015225D01*
X008517Y015219D01*
X008504Y015216D01*
X008491Y015217D01*
X008478Y015221D01*
X008468Y015229D01*
X008459Y015240D01*
X008454Y015252D01*
X008452Y015265D01*
X011675Y018587D02*
X011677Y018597D01*
X011682Y018605D01*
X011690Y018610D01*
X011700Y018612D01*
X011710Y018610D01*
X011718Y018605D01*
X011723Y018597D01*
X011725Y018587D01*
X011723Y018577D01*
X011718Y018569D01*
X011710Y018564D01*
X011700Y018562D01*
X011690Y018564D01*
X011682Y018569D01*
X011677Y018577D01*
X011675Y018587D01*
D13*
X011631Y008966D02*
X011633Y008987D01*
X011639Y009007D01*
X011648Y009027D01*
X011660Y009044D01*
X011675Y009058D01*
X011693Y009070D01*
X011713Y009078D01*
X011733Y009083D01*
X011754Y009084D01*
X011775Y009081D01*
X011795Y009075D01*
X011814Y009064D01*
X011831Y009051D01*
X011844Y009035D01*
X011855Y009017D01*
X011863Y008997D01*
X011867Y008977D01*
X011867Y008955D01*
X011863Y008935D01*
X011855Y008915D01*
X011844Y008897D01*
X011831Y008881D01*
X011814Y008868D01*
X011795Y008857D01*
X011775Y008851D01*
X011754Y008848D01*
X011733Y008849D01*
X011713Y008854D01*
X011693Y008862D01*
X011675Y008874D01*
X011660Y008888D01*
X011648Y008905D01*
X011639Y008925D01*
X011633Y008945D01*
X011631Y008966D01*
D14*
X012241Y008228D02*
X012487Y008474D01*
X012487Y011820D01*
X012241Y012067D01*
X008895Y012067D01*
X008649Y011820D01*
X008649Y008474D01*
X008895Y008228D01*
X012241Y008228D01*
X012733Y006259D02*
X012735Y006298D01*
X012741Y006337D01*
X012751Y006375D01*
X012764Y006412D01*
X012781Y006447D01*
X012801Y006481D01*
X012825Y006512D01*
X012852Y006541D01*
X012881Y006567D01*
X012913Y006590D01*
X012947Y006610D01*
X012983Y006626D01*
X013020Y006638D01*
X013059Y006647D01*
X013098Y006652D01*
X013137Y006653D01*
X013176Y006650D01*
X013215Y006643D01*
X013252Y006632D01*
X013289Y006618D01*
X013324Y006600D01*
X013357Y006579D01*
X013388Y006554D01*
X013416Y006527D01*
X013441Y006497D01*
X013463Y006464D01*
X013482Y006430D01*
X013497Y006394D01*
X013509Y006356D01*
X013517Y006318D01*
X013521Y006279D01*
X013521Y006239D01*
X013517Y006200D01*
X013509Y006162D01*
X013497Y006124D01*
X013482Y006088D01*
X013463Y006054D01*
X013441Y006021D01*
X013416Y005991D01*
X013388Y005964D01*
X013357Y005939D01*
X013324Y005918D01*
X013289Y005900D01*
X013252Y005886D01*
X013215Y005875D01*
X013176Y005868D01*
X013137Y005865D01*
X013098Y005866D01*
X013059Y005871D01*
X013020Y005880D01*
X012983Y005892D01*
X012947Y005908D01*
X012913Y005928D01*
X012881Y005951D01*
X012852Y005977D01*
X012825Y006006D01*
X012801Y006037D01*
X012781Y006071D01*
X012764Y006106D01*
X012751Y006143D01*
X012741Y006181D01*
X012735Y006220D01*
X012733Y006259D01*
X012733Y005251D02*
X012735Y005290D01*
X012741Y005329D01*
X012751Y005367D01*
X012764Y005404D01*
X012781Y005439D01*
X012801Y005473D01*
X012825Y005504D01*
X012852Y005533D01*
X012881Y005559D01*
X012913Y005582D01*
X012947Y005602D01*
X012983Y005618D01*
X013020Y005630D01*
X013059Y005639D01*
X013098Y005644D01*
X013137Y005645D01*
X013176Y005642D01*
X013215Y005635D01*
X013252Y005624D01*
X013289Y005610D01*
X013324Y005592D01*
X013357Y005571D01*
X013388Y005546D01*
X013416Y005519D01*
X013441Y005489D01*
X013463Y005456D01*
X013482Y005422D01*
X013497Y005386D01*
X013509Y005348D01*
X013517Y005310D01*
X013521Y005271D01*
X013521Y005231D01*
X013517Y005192D01*
X013509Y005154D01*
X013497Y005116D01*
X013482Y005080D01*
X013463Y005046D01*
X013441Y005013D01*
X013416Y004983D01*
X013388Y004956D01*
X013357Y004931D01*
X013324Y004910D01*
X013289Y004892D01*
X013252Y004878D01*
X013215Y004867D01*
X013176Y004860D01*
X013137Y004857D01*
X013098Y004858D01*
X013059Y004863D01*
X013020Y004872D01*
X012983Y004884D01*
X012947Y004900D01*
X012913Y004920D01*
X012881Y004943D01*
X012852Y004969D01*
X012825Y004998D01*
X012801Y005029D01*
X012781Y005063D01*
X012764Y005098D01*
X012751Y005135D01*
X012741Y005173D01*
X012735Y005212D01*
X012733Y005251D01*
X018442Y006702D02*
X018442Y007096D01*
X018442Y006702D02*
X019426Y006702D01*
X019722Y006210D02*
X019722Y006013D01*
X019869Y005866D01*
X019722Y005817D02*
X019722Y006013D01*
X019869Y006161D01*
X019722Y005423D02*
X019722Y005226D01*
X019869Y005078D01*
X019722Y005029D02*
X019722Y005226D01*
X019869Y005374D01*
X020214Y007096D02*
X020214Y009458D01*
X019426Y009852D02*
X018442Y009852D01*
X018442Y009458D01*
X018442Y010639D02*
X019426Y010639D01*
X020214Y011033D02*
X020214Y013395D01*
X019426Y013789D02*
X018442Y013789D01*
X018442Y013395D01*
X019722Y014281D02*
X019722Y014675D01*
X019869Y014626D02*
X019722Y014478D01*
X019869Y014330D01*
X019722Y015069D02*
X019722Y015265D01*
X019722Y015462D01*
X019869Y015413D02*
X019722Y015265D01*
X019869Y015118D01*
X018442Y011033D02*
X018442Y010639D01*
X014308Y014281D02*
X013865Y014281D01*
X013570Y014281D02*
X013127Y014281D01*
X013127Y015462D02*
X013570Y015462D01*
X013865Y015462D02*
X014308Y015462D01*
X012807Y016939D02*
X011380Y016939D01*
X011700Y015561D02*
X011848Y015561D01*
X011848Y015413D01*
X011848Y014133D02*
X011848Y013986D01*
X011700Y013986D01*
X010421Y013986D02*
X010273Y014133D01*
X008920Y014527D02*
X008920Y014675D01*
X008920Y015167D02*
X008920Y015315D01*
X010273Y015413D02*
X010273Y015561D01*
X010421Y015561D01*
X008948Y017460D02*
X009105Y017616D01*
X009116Y018563D02*
X009116Y018784D01*
X008895Y018784D01*
X008009Y018784D02*
X007788Y018784D01*
X007788Y018563D01*
X007788Y017677D02*
X007788Y017455D01*
X008009Y017455D01*
X007492Y015315D02*
X007492Y014527D01*
X011380Y018809D02*
X012807Y018809D01*
X002719Y014872D02*
X002719Y014478D01*
X002719Y014872D02*
X001710Y014872D01*
X000947Y014478D02*
X000947Y012903D01*
X001710Y012509D02*
X002719Y012509D01*
X002719Y012903D01*
X002719Y011820D02*
X001710Y011820D01*
X000947Y011427D02*
X000947Y009852D01*
X001710Y009458D02*
X002719Y009458D01*
X002719Y009852D01*
X002719Y011427D02*
X002719Y011820D01*
X002448Y008228D02*
X001808Y008228D01*
X001882Y007760D02*
X001882Y006038D01*
X002448Y006038D01*
X002448Y005570D01*
X001808Y005570D01*
X001882Y007760D02*
X002448Y007760D01*
X002448Y008228D01*
D15*
X005174Y006555D02*
X005176Y006573D01*
X005182Y006589D01*
X005191Y006604D01*
X005204Y006617D01*
X005219Y006626D01*
X005235Y006632D01*
X005253Y006634D01*
X005271Y006632D01*
X005287Y006626D01*
X005302Y006617D01*
X005315Y006604D01*
X005324Y006589D01*
X005330Y006573D01*
X005332Y006555D01*
X005330Y006537D01*
X005324Y006521D01*
X005315Y006506D01*
X005302Y006493D01*
X005287Y006484D01*
X005271Y006478D01*
X005253Y006476D01*
X005235Y006478D01*
X005219Y006484D01*
X005204Y006493D01*
X005191Y006506D01*
X005182Y006521D01*
X005176Y006537D01*
X005174Y006555D01*
D16*
X013868Y014478D02*
X013870Y014493D01*
X013875Y014506D01*
X013884Y014518D01*
X013895Y014528D01*
X013909Y014534D01*
X013923Y014537D01*
X013938Y014536D01*
X013952Y014531D01*
X013965Y014523D01*
X013975Y014513D01*
X013982Y014500D01*
X013986Y014485D01*
X013986Y014471D01*
X013982Y014456D01*
X013975Y014443D01*
X013965Y014433D01*
X013952Y014425D01*
X013938Y014420D01*
X013923Y014419D01*
X013909Y014422D01*
X013895Y014428D01*
X013884Y014438D01*
X013875Y014450D01*
X013870Y014463D01*
X013868Y014478D01*
D17*
X015428Y003110D02*
X015161Y002844D01*
X015028Y002977D01*
X015428Y003110D02*
X015562Y002977D01*
X015290Y002228D02*
X015290Y001695D01*
X015024Y001962D02*
X015557Y001962D01*
X015557Y000953D02*
X015024Y000953D01*
X006113Y000953D02*
X005579Y000953D01*
X005846Y001695D02*
X005846Y002228D01*
X006113Y001962D02*
X005579Y001962D01*
X005713Y002844D02*
X005579Y002977D01*
X005713Y002844D02*
X005979Y003110D01*
X006113Y002977D01*
D18*
X006701Y003598D02*
X006974Y003598D01*
X006838Y003598D02*
X006838Y004008D01*
X006701Y003871D01*
X007685Y003940D02*
X007753Y004008D01*
X007890Y004008D01*
X007959Y003940D01*
X007959Y003871D01*
X007685Y003598D01*
X007959Y003598D01*
X008669Y003666D02*
X008738Y003598D01*
X008874Y003598D01*
X008943Y003666D01*
X008943Y003735D01*
X008874Y003803D01*
X008806Y003803D01*
X008874Y003803D02*
X008943Y003871D01*
X008943Y003940D01*
X008874Y004008D01*
X008738Y004008D01*
X008669Y003940D01*
X009654Y003803D02*
X009927Y003803D01*
X009859Y003598D02*
X009859Y004008D01*
X009654Y003803D01*
X011228Y003803D02*
X011365Y003871D01*
X011434Y003871D01*
X011502Y003803D01*
X011502Y003666D01*
X011434Y003598D01*
X011297Y003598D01*
X011228Y003666D01*
X011228Y003803D02*
X011228Y004008D01*
X011502Y004008D01*
X012237Y003803D02*
X012442Y003803D01*
X012511Y003735D01*
X012511Y003666D01*
X012442Y003598D01*
X012306Y003598D01*
X012237Y003666D01*
X012237Y003803D01*
X012374Y003940D01*
X012511Y004008D01*
X013197Y004008D02*
X013470Y004008D01*
X013470Y003940D01*
X013197Y003666D01*
X013197Y003598D01*
X014181Y003666D02*
X014181Y003735D01*
X014249Y003803D01*
X014386Y003803D01*
X014455Y003735D01*
X014455Y003666D01*
X014386Y003598D01*
X014249Y003598D01*
X014181Y003666D01*
X014249Y003803D02*
X014181Y003871D01*
X014181Y003940D01*
X014249Y004008D01*
X014386Y004008D01*
X014455Y003940D01*
X014455Y003871D01*
X014386Y003803D01*
X002155Y016547D02*
X002252Y016644D01*
X002252Y016740D01*
X002058Y016934D01*
X001961Y016934D01*
X001865Y016837D01*
X001865Y016740D01*
X002058Y016547D01*
X002155Y016547D01*
X002432Y016824D02*
X002239Y017018D01*
X002287Y017066D01*
X002384Y017066D01*
X002384Y017163D01*
X002480Y017163D01*
X002625Y017018D01*
X002529Y016921D02*
X002384Y017066D01*
X002564Y017343D02*
X002709Y017488D01*
X002806Y017488D01*
X002951Y017343D01*
X003083Y017475D02*
X003180Y017572D01*
X003131Y017524D02*
X002938Y017717D01*
X002890Y017669D01*
X002841Y017814D02*
X002793Y017862D01*
X003010Y017982D02*
X003155Y018127D01*
X003252Y018127D01*
X003348Y018031D01*
X003348Y017934D01*
X003203Y017789D01*
X003300Y017886D02*
X003493Y017886D01*
X003577Y018066D02*
X003481Y018163D01*
X003481Y018259D01*
X003577Y018356D01*
X003674Y018356D01*
X003771Y018259D01*
X003771Y018163D01*
X003674Y018066D01*
X003577Y018066D01*
X003300Y017692D02*
X003010Y017982D01*
X002564Y017343D02*
X002758Y017150D01*
X003758Y018537D02*
X003854Y018633D01*
X003758Y018633D02*
X003951Y018440D01*
X004048Y018440D01*
X004120Y018608D02*
X004023Y018705D01*
X004023Y018802D01*
X004120Y018899D01*
X004216Y018899D01*
X004313Y018802D01*
X004313Y018705D01*
X004216Y018608D01*
X004120Y018608D01*
X004494Y018886D02*
X004300Y019079D01*
X004397Y018982D02*
X004397Y019176D01*
X004445Y019224D01*
D19*
X004472Y010736D02*
X004472Y010603D01*
X004539Y010536D01*
X004606Y010603D01*
X004606Y010736D01*
X004385Y010703D02*
X004385Y010670D01*
X004351Y010636D01*
X004385Y010603D01*
X004385Y010570D01*
X004351Y010536D01*
X004285Y010536D01*
X004251Y010570D01*
X004174Y010570D02*
X004174Y010536D01*
X004141Y010536D01*
X004141Y010570D01*
X004174Y010570D01*
X004053Y010570D02*
X004020Y010536D01*
X003953Y010536D01*
X003920Y010570D01*
X003987Y010636D02*
X004020Y010636D01*
X004053Y010603D01*
X004053Y010570D01*
X004020Y010636D02*
X004053Y010670D01*
X004053Y010703D01*
X004020Y010736D01*
X003953Y010736D01*
X003920Y010703D01*
X004251Y010703D02*
X004285Y010736D01*
X004351Y010736D01*
X004385Y010703D01*
X004351Y010636D02*
X004318Y010636D01*
X004346Y009137D02*
X004313Y009104D01*
X004313Y008970D01*
X004346Y008937D01*
X004413Y008937D01*
X004447Y008970D01*
X004447Y009104D02*
X004413Y009137D01*
X004346Y009137D01*
X004226Y009104D02*
X004226Y009037D01*
X004192Y009004D01*
X004092Y009004D01*
X004159Y009004D02*
X004226Y008937D01*
X004092Y008937D02*
X004092Y009137D01*
X004192Y009137D01*
X004226Y009104D01*
X012440Y005909D02*
X012640Y005909D01*
X012640Y006043D01*
X012606Y005822D02*
X012640Y005789D01*
X012640Y005688D01*
X012440Y005688D01*
X012440Y005789D01*
X012473Y005822D01*
X012506Y005822D01*
X012540Y005789D01*
X012540Y005688D01*
X012573Y005601D02*
X012540Y005568D01*
X012540Y005501D01*
X012506Y005467D01*
X012473Y005467D01*
X012440Y005501D01*
X012440Y005568D01*
X012473Y005601D01*
X012573Y005601D02*
X012606Y005601D01*
X012640Y005568D01*
X012640Y005501D01*
X012606Y005467D01*
X012540Y005789D02*
X012573Y005822D01*
X012606Y005822D01*
D20*
X017080Y002200D02*
X017080Y002136D01*
X017208Y002009D01*
X017271Y002009D01*
X017335Y002073D01*
X017335Y002136D01*
X017416Y002217D02*
X017480Y002217D01*
X017543Y002281D01*
X017543Y002345D01*
X017561Y002489D02*
X017688Y002617D01*
X017769Y002698D02*
X017864Y002793D01*
X017928Y002793D01*
X017960Y002761D01*
X017960Y002698D01*
X017864Y002602D01*
X017673Y002793D01*
X017769Y002889D01*
X017833Y002889D01*
X017864Y002857D01*
X017864Y002793D01*
X017913Y002970D02*
X017882Y003001D01*
X017913Y002970D02*
X018041Y002970D01*
X018136Y002874D01*
X018041Y002970D02*
X018041Y003097D01*
X018009Y003129D01*
X018185Y003114D02*
X018313Y003242D01*
X018362Y003354D02*
X018426Y003354D01*
X018489Y003418D01*
X018553Y003418D01*
X018585Y003386D01*
X018585Y003323D01*
X018521Y003259D01*
X018457Y003259D01*
X018362Y003354D02*
X018330Y003386D01*
X018330Y003450D01*
X018394Y003514D01*
X018457Y003514D01*
X018570Y003563D02*
X018698Y003435D01*
X018602Y003531D02*
X018729Y003658D01*
X018698Y003690D02*
X018825Y003563D01*
X018698Y003690D02*
X018570Y003690D01*
X018570Y003563D01*
X017416Y002472D02*
X017352Y002472D01*
X017289Y002408D01*
X017289Y002345D01*
X017416Y002217D01*
X017208Y002264D02*
X017144Y002264D01*
X017080Y002200D01*
X017827Y005103D02*
X017827Y005374D01*
X017963Y005374D01*
X018008Y005329D01*
X018008Y005238D01*
X017963Y005193D01*
X017827Y005193D01*
X018122Y005148D02*
X018167Y005103D01*
X018257Y005103D01*
X018302Y005148D01*
X018302Y005238D01*
X018257Y005283D01*
X018167Y005283D01*
X018122Y005238D01*
X018122Y005148D01*
X018417Y005148D02*
X018417Y005283D01*
X018417Y005148D02*
X018462Y005103D01*
X018507Y005148D01*
X018552Y005103D01*
X018597Y005148D01*
X018597Y005283D01*
X018711Y005238D02*
X018756Y005283D01*
X018846Y005283D01*
X018891Y005238D01*
X018891Y005193D01*
X018711Y005193D01*
X018711Y005148D02*
X018711Y005238D01*
X018711Y005148D02*
X018756Y005103D01*
X018846Y005103D01*
X019006Y005103D02*
X019006Y005283D01*
X019006Y005193D02*
X019096Y005283D01*
X019141Y005283D01*
X019116Y005891D02*
X019161Y005936D01*
X019116Y005981D01*
X019026Y005981D01*
X018981Y006026D01*
X019026Y006071D01*
X019161Y006071D01*
X019116Y005891D02*
X018981Y005891D01*
X018867Y005891D02*
X018867Y006071D01*
X018867Y005891D02*
X018732Y005891D01*
X018687Y005936D01*
X018687Y006071D01*
X018580Y006071D02*
X018490Y006071D01*
X018535Y006116D02*
X018535Y005936D01*
X018580Y005891D01*
X018376Y005891D02*
X018240Y005891D01*
X018195Y005936D01*
X018240Y005981D01*
X018376Y005981D01*
X018376Y006026D02*
X018376Y005891D01*
X018376Y006026D02*
X018331Y006071D01*
X018240Y006071D01*
X018089Y006071D02*
X017999Y006071D01*
X018044Y006116D02*
X018044Y005936D01*
X018089Y005891D01*
X017885Y005936D02*
X017839Y005891D01*
X017749Y005891D01*
X017704Y005936D01*
X017749Y006026D02*
X017839Y006026D01*
X017885Y005981D01*
X017885Y005936D01*
X017749Y006026D02*
X017704Y006071D01*
X017704Y006116D01*
X017749Y006161D01*
X017839Y006161D01*
X017885Y006116D01*
X017728Y007539D02*
X017548Y007539D01*
X017458Y007629D01*
X017548Y007719D01*
X017728Y007719D01*
X017728Y007834D02*
X017728Y007969D01*
X017683Y008014D01*
X017503Y008014D01*
X017458Y007969D01*
X017458Y007834D01*
X017728Y007834D01*
X017593Y007719D02*
X017593Y007539D01*
X017503Y008129D02*
X017458Y008174D01*
X017458Y008264D01*
X017503Y008309D01*
X017593Y008423D02*
X017593Y008603D01*
X017503Y008513D02*
X017683Y008513D01*
X017683Y008309D02*
X017728Y008264D01*
X017728Y008174D01*
X017683Y008129D01*
X017503Y008129D01*
X017458Y008718D02*
X017458Y008808D01*
X017458Y008763D02*
X017728Y008763D01*
X017728Y008718D02*
X017728Y008808D01*
X017683Y008914D02*
X017728Y008959D01*
X017728Y009049D01*
X017683Y009094D01*
X017503Y009094D01*
X017458Y009049D01*
X017458Y008959D01*
X017503Y008914D01*
X017683Y008914D01*
X017458Y011058D02*
X017458Y011238D01*
X017458Y011148D02*
X017728Y011148D01*
X017683Y011353D02*
X017593Y011353D01*
X017548Y011398D01*
X017548Y011488D01*
X017593Y011533D01*
X017638Y011533D01*
X017638Y011353D01*
X017683Y011353D02*
X017728Y011398D01*
X017728Y011488D01*
X017728Y011647D02*
X017728Y011737D01*
X017728Y011692D02*
X017458Y011692D01*
X017458Y011647D01*
X017593Y011844D02*
X017548Y011889D01*
X017548Y011979D01*
X017593Y012024D01*
X017638Y012024D01*
X017638Y011844D01*
X017683Y011844D02*
X017593Y011844D01*
X017683Y011844D02*
X017728Y011889D01*
X017728Y011979D01*
X017728Y012138D02*
X017548Y012138D01*
X017548Y012183D01*
X017593Y012228D01*
X017548Y012274D01*
X017593Y012319D01*
X017728Y012319D01*
X017728Y012228D02*
X017593Y012228D01*
X017593Y012433D02*
X017548Y012478D01*
X017548Y012568D01*
X017593Y012613D01*
X017638Y012613D01*
X017638Y012433D01*
X017683Y012433D02*
X017593Y012433D01*
X017683Y012433D02*
X017728Y012478D01*
X017728Y012568D01*
X017683Y012773D02*
X017728Y012818D01*
X017683Y012773D02*
X017503Y012773D01*
X017548Y012728D02*
X017548Y012818D01*
X017548Y012924D02*
X017728Y012924D01*
X017638Y012924D02*
X017548Y013014D01*
X017548Y013059D01*
X017548Y013170D02*
X017683Y013170D01*
X017728Y013215D01*
X017728Y013350D01*
X017773Y013350D02*
X017818Y013305D01*
X017818Y013260D01*
X017773Y013350D02*
X017548Y013350D01*
X017540Y014355D02*
X017540Y014626D01*
X017360Y014626D02*
X017360Y014355D01*
X017450Y014445D01*
X017540Y014355D01*
X017655Y014400D02*
X017700Y014445D01*
X017835Y014445D01*
X017835Y014490D02*
X017835Y014355D01*
X017700Y014355D01*
X017655Y014400D01*
X017700Y014535D02*
X017790Y014535D01*
X017835Y014490D01*
X017949Y014445D02*
X018039Y014535D01*
X018084Y014535D01*
X018195Y014535D02*
X018195Y014355D01*
X018375Y014355D02*
X018375Y014490D01*
X018330Y014535D01*
X018195Y014535D01*
X017949Y014535D02*
X017949Y014355D01*
X018489Y014355D02*
X018579Y014355D01*
X018534Y014355D02*
X018534Y014535D01*
X018489Y014535D01*
X018534Y014626D02*
X018534Y014671D01*
X018686Y014535D02*
X018821Y014535D01*
X018866Y014490D01*
X018866Y014355D01*
X018980Y014400D02*
X019025Y014355D01*
X019161Y014355D01*
X019161Y014310D02*
X019161Y014535D01*
X019025Y014535D01*
X018980Y014490D01*
X018980Y014400D01*
X019070Y014265D02*
X019116Y014265D01*
X019161Y014310D01*
X018686Y014355D02*
X018686Y014535D01*
X018781Y015143D02*
X018736Y015188D01*
X018736Y015278D01*
X018781Y015323D01*
X018871Y015323D01*
X018916Y015278D01*
X018916Y015188D01*
X018871Y015143D01*
X018781Y015143D01*
X018626Y015323D02*
X018581Y015323D01*
X018491Y015233D01*
X018491Y015143D02*
X018491Y015323D01*
X018380Y015323D02*
X018335Y015323D01*
X018245Y015233D01*
X018245Y015143D02*
X018245Y015323D01*
X018131Y015413D02*
X017950Y015413D01*
X017950Y015143D01*
X018131Y015143D01*
X018041Y015278D02*
X017950Y015278D01*
X019031Y015323D02*
X019031Y015143D01*
X019031Y015233D02*
X019121Y015323D01*
X019166Y015323D01*
X004486Y018333D02*
X004486Y018397D01*
X004423Y018461D01*
X004359Y018461D01*
X004295Y018397D01*
X004295Y018333D01*
X004359Y018270D01*
X004423Y018270D01*
X004486Y018333D01*
X004310Y018157D02*
X004214Y018061D01*
X004151Y018061D01*
X004087Y018125D01*
X004087Y018189D01*
X004183Y018284D01*
X004006Y018044D02*
X003942Y018044D01*
X003879Y017980D01*
X003879Y017917D01*
X003942Y017853D01*
X004006Y017853D01*
X004070Y017917D01*
X004070Y017980D01*
X004006Y018044D01*
X003893Y017740D02*
X003766Y017613D01*
X003575Y017804D01*
X003468Y017697D02*
X003436Y017729D01*
X003532Y017633D02*
X003659Y017506D01*
X003627Y017474D02*
X003691Y017538D01*
X003532Y017633D02*
X003500Y017601D01*
X003451Y017489D02*
X003546Y017393D01*
X003451Y017489D02*
X003387Y017489D01*
X003291Y017393D01*
X003419Y017266D01*
X003338Y017185D02*
X003242Y017280D01*
X003179Y017280D01*
X003179Y017217D01*
X003274Y017121D01*
X003210Y017058D02*
X003083Y017185D01*
X003115Y017217D01*
X003179Y017217D01*
X003098Y017008D02*
X002970Y017136D01*
X002907Y017136D01*
X002843Y017072D01*
X002843Y017008D01*
X002970Y016881D01*
X003034Y016881D01*
X003098Y016945D01*
X003098Y017008D01*
X002713Y016560D02*
X002617Y016464D01*
X002554Y016464D01*
X002458Y016560D01*
X002409Y016447D02*
X002345Y016447D01*
X002250Y016352D01*
X002186Y016415D02*
X002377Y016224D01*
X002473Y016320D01*
X002473Y016383D01*
X002409Y016447D01*
X002586Y016687D02*
X002745Y016528D01*
X002745Y016464D01*
X002713Y016433D01*
X003408Y013985D02*
X003408Y013895D01*
X003408Y013940D02*
X003678Y013940D01*
X003678Y013985D02*
X003678Y013895D01*
X003633Y013789D02*
X003678Y013744D01*
X003678Y013654D01*
X003633Y013609D01*
X003588Y013609D01*
X003408Y013789D01*
X003408Y013609D01*
X003453Y013494D02*
X003408Y013449D01*
X003408Y013359D01*
X003453Y013314D01*
X003633Y013314D02*
X003678Y013359D01*
X003678Y013449D01*
X003633Y013494D01*
X003453Y013494D01*
X003408Y011648D02*
X003678Y011648D01*
X003678Y011513D01*
X003633Y011468D01*
X003543Y011468D01*
X003498Y011513D01*
X003498Y011648D01*
X003498Y011558D02*
X003408Y011468D01*
X003453Y011353D02*
X003408Y011308D01*
X003408Y011218D01*
X003453Y011173D01*
X003453Y011353D02*
X003633Y011353D01*
X003678Y011308D01*
X003678Y011218D01*
X003633Y011173D01*
X003678Y010764D02*
X003678Y010674D01*
X003678Y010719D02*
X003408Y010719D01*
X003408Y010764D02*
X003408Y010674D01*
X003408Y010567D02*
X003588Y010567D01*
X003588Y010432D01*
X003543Y010387D01*
X003408Y010387D01*
X003408Y010273D02*
X003408Y010138D01*
X003453Y010093D01*
X003543Y010093D01*
X003588Y010138D01*
X003588Y010273D01*
X003318Y010273D01*
X003453Y009978D02*
X003408Y009933D01*
X003408Y009798D01*
X003588Y009798D01*
X003588Y009684D02*
X003588Y009594D01*
X003633Y009639D02*
X003453Y009639D01*
X003408Y009594D01*
X003453Y009978D02*
X003588Y009978D01*
D21*
X010027Y019375D02*
X011110Y019375D01*
X010568Y019941D01*
X010027Y019375D01*
X010065Y019415D02*
X011071Y019415D01*
X010997Y019492D02*
X010139Y019492D01*
X010213Y019569D02*
X010923Y019569D01*
X010849Y019647D02*
X010287Y019647D01*
X010361Y019724D02*
X010775Y019724D01*
X010701Y019801D02*
X010435Y019801D01*
X010509Y019879D02*
X010627Y019879D01*
M02*
