%
M48
M72
T01C0.0140
T02C0.0197
T03C0.0400
T04C0.1181
%
T01
X5991Y6899
X5425Y8794
X5450Y9335
X5450Y9827
X4810Y10762
X4761Y11328
X5253Y11328
X6041Y10935
X6533Y10639
X7099Y10516
X7369Y8917
X6828Y8769
X8600Y8277
X8452Y7613
X9289Y7194
X9682Y6899
X10125Y6998
X10199Y7367
X10125Y6555
X11331Y7145
X12241Y7441
X12832Y6948
X13718Y6407
X14702Y7687
X15268Y7465
X15662Y7071
X15391Y8966
X15391Y9754
X14210Y10959
X15539Y11919
X15932Y11919
X17089Y11870
X15243Y14429
X13964Y13444
X13472Y13444
X13127Y13297
X12832Y13691
X12389Y13297
X11602Y13543
X11110Y13543
X11110Y14380
X9928Y13838
X9436Y14035
X9732Y14429
X10273Y15856
X10765Y16446
X11356Y16446
X11897Y15757
X12832Y15659
X13127Y16250
X13718Y16250
X14259Y16422
X12635Y14576
X13816Y12903
X14111Y12509
X12537Y11968
X11946Y11820
X12241Y11131
X12241Y10738
X11257Y11525
X10863Y11820
X10470Y11476
X9978Y11722
X9141Y11722
X8698Y12017
X7615Y13100
X7517Y12509
X6730Y11968
X6730Y13248
X5056Y13469
X5032Y12829
X4392Y12017
X4048Y11624
X3875Y12313
X3752Y12829
X4343Y13863
X6976Y16840
X7419Y16397
X7591Y17209
X7468Y18120
X8698Y17209
X9387Y17185
X9879Y17283
X9092Y16397
X9436Y16053
X8108Y14970
X8403Y13494
X10076Y12952
X8993Y10738
X10568Y9212
X10273Y8572
X9879Y9065
X9289Y9065
X11454Y8868
X11552Y9360
X11946Y9655
X12094Y8769
X12241Y8376
X13865Y5054
X19771Y5620
X19771Y14872
X18984Y14872
X18787Y15757
X13988Y19055
X10371Y18858
X4860Y8720
T02
X3949Y9089
X5106Y10147
X2104Y9655
X2005Y7834
X2989Y6407
X4958Y5669
X6533Y6358
X7419Y4685
X8403Y6702
X9549Y6112
X10174Y5472
X12340Y4832
X12241Y4340
X12709Y4340
X13127Y5251
X13127Y6259
X12512Y6210
X12143Y6604
X17261Y9360
X19082Y9261
X19082Y12608
X19082Y13198
X14800Y13543
X14161Y11919
X12389Y16004
X11799Y17234
X11799Y18612
X12340Y18907
X14062Y17578
X14062Y17037
X9928Y17874
X9904Y18366
X8477Y16816
X9289Y15511
X6779Y14921
X2104Y13395
X2104Y12854
T03
X6828Y2962
X7812Y2962
X8797Y2962
X9781Y2962
X9781Y1962
X8797Y1962
X7812Y1962
X6828Y1962
X6828Y962
X7812Y962
X8797Y962
X9781Y962
X11356Y962
X12340Y962
X13324Y962
X14308Y962
X14308Y1962
X13324Y1962
X12340Y1962
X11356Y1962
X11356Y2962
X12340Y2962
X13324Y2962
X14308Y2962
T04
X1808Y1486
X4564Y4242
X16572Y4242
X19328Y1486
X16572Y16250
X19328Y19006
X4564Y16250
X1808Y19006
M30
