G75*
G70*
%OFA0B0*%
%FSLAX24Y24*%
%IPPOS*%
%LPD*%
%AMOC8*
5,1,8,0,0,1.08239X$1,22.5*
%
%ADD10C,0.1261*%
%ADD11C,0.0079*%
%ADD12R,0.0552X0.0297*%
%ADD13R,0.0297X0.0552*%
%ADD14R,0.0356X0.0434*%
%ADD15R,0.0513X0.0474*%
%ADD16R,0.0434X0.0356*%
%ADD17R,0.0474X0.0513*%
%ADD18R,0.0631X0.0474*%
%ADD19R,0.0781X0.1458*%
%ADD20C,0.0820*%
%ADD21R,0.0690X0.0316*%
%ADD22R,0.0789X0.0552*%
%ADD23C,0.0417*%
%ADD24C,0.0360*%
D10*
X001808Y001486D03*
X004564Y004242D03*
X016572Y004242D03*
X019328Y001486D03*
X016572Y016250D03*
X019328Y019006D03*
X004564Y016250D03*
X001808Y019006D03*
D11*
X003367Y018534D02*
X003367Y018246D01*
X003748Y018208D01*
X003773Y018121D01*
X003808Y018039D01*
X003851Y017960D01*
X003609Y017663D01*
X003812Y017460D01*
X004109Y017702D01*
X004168Y017668D01*
X004229Y017640D01*
X004398Y018049D01*
X004335Y018083D01*
X004279Y018129D01*
X004233Y018185D01*
X004199Y018249D01*
X004178Y018318D01*
X004171Y018390D01*
X004178Y018462D01*
X004199Y018532D01*
X004233Y018595D01*
X004279Y018651D01*
X004335Y018697D01*
X004398Y018731D01*
X004468Y018752D01*
X004540Y018759D01*
X004612Y018752D01*
X004681Y018731D01*
X004745Y018697D01*
X004801Y018651D01*
X004847Y018595D01*
X004881Y018532D01*
X004902Y018462D01*
X004909Y018390D01*
X004902Y018318D01*
X004881Y018249D01*
X004847Y018185D01*
X004801Y018129D01*
X004745Y018083D01*
X004681Y018049D01*
X004850Y017640D01*
X004911Y017668D01*
X004970Y017702D01*
X005267Y017460D01*
X005470Y017663D01*
X005228Y017960D01*
X005271Y018039D01*
X005306Y018122D01*
X005331Y018208D01*
X005712Y018246D01*
X005712Y018534D01*
X005331Y018573D01*
X005306Y018659D01*
X005272Y018742D01*
X005228Y018821D01*
X005470Y019118D01*
X005267Y019321D01*
X004970Y019079D01*
X004891Y019122D01*
X004808Y019157D01*
X004722Y019182D01*
X004684Y019563D01*
X004396Y019563D01*
X004357Y019182D01*
X004271Y019157D01*
X004188Y019122D01*
X004109Y019079D01*
X003812Y019321D01*
X003609Y019118D01*
X003851Y018821D01*
X003808Y018742D01*
X003773Y018659D01*
X003748Y018573D01*
X003367Y018534D01*
X003367Y018487D02*
X004185Y018487D01*
X004173Y018410D02*
X003367Y018410D01*
X003367Y018333D02*
X004176Y018333D01*
X004197Y018256D02*
X003367Y018256D01*
X003667Y018565D02*
X004216Y018565D01*
X004271Y018642D02*
X003768Y018642D01*
X003798Y018719D02*
X004376Y018719D01*
X004703Y018719D02*
X005281Y018719D01*
X005311Y018642D02*
X004808Y018642D01*
X004863Y018565D02*
X005412Y018565D01*
X005241Y018797D02*
X003838Y018797D01*
X003808Y018874D02*
X005272Y018874D01*
X005335Y018951D02*
X003745Y018951D01*
X003682Y019028D02*
X005398Y019028D01*
X005461Y019106D02*
X005003Y019106D01*
X004921Y019106D02*
X004158Y019106D01*
X004076Y019106D02*
X003619Y019106D01*
X003674Y019183D02*
X003982Y019183D01*
X003887Y019260D02*
X003752Y019260D01*
X004357Y019183D02*
X004722Y019183D01*
X004714Y019260D02*
X004365Y019260D01*
X004373Y019338D02*
X004706Y019338D01*
X004699Y019415D02*
X004381Y019415D01*
X004389Y019492D02*
X004691Y019492D01*
X005098Y019183D02*
X005405Y019183D01*
X005328Y019260D02*
X005192Y019260D01*
X004894Y018487D02*
X005712Y018487D01*
X005712Y018410D02*
X004907Y018410D01*
X004903Y018333D02*
X005712Y018333D01*
X005712Y018256D02*
X004883Y018256D01*
X004841Y018178D02*
X005322Y018178D01*
X005297Y018101D02*
X004766Y018101D01*
X004692Y018024D02*
X005263Y018024D01*
X005239Y017946D02*
X004724Y017946D01*
X004756Y017869D02*
X005302Y017869D01*
X005365Y017792D02*
X004788Y017792D01*
X004820Y017715D02*
X005428Y017715D01*
X005445Y017637D02*
X005049Y017637D01*
X005144Y017560D02*
X005367Y017560D01*
X005290Y017483D02*
X005238Y017483D01*
X004324Y017869D02*
X003777Y017869D01*
X003714Y017792D02*
X004292Y017792D01*
X004260Y017715D02*
X003651Y017715D01*
X003635Y017637D02*
X004030Y017637D01*
X003936Y017560D02*
X003712Y017560D01*
X003789Y017483D02*
X003841Y017483D01*
X003840Y017946D02*
X004356Y017946D01*
X004388Y018024D02*
X003816Y018024D01*
X003782Y018101D02*
X004313Y018101D01*
X004238Y018178D02*
X003757Y018178D01*
D12*
X010745Y005895D03*
X010745Y005521D03*
X010745Y005147D03*
X011769Y005147D03*
X011769Y005895D03*
D13*
X012113Y016771D03*
X012487Y016771D03*
X012861Y016771D03*
X012861Y017795D03*
X012113Y017795D03*
D14*
X012232Y018366D03*
X012743Y018366D03*
X013167Y011525D03*
X013678Y011525D03*
X013678Y010344D03*
X013167Y010344D03*
X011710Y008474D03*
X011198Y008474D03*
X009545Y008671D03*
X009033Y008671D03*
D15*
X008954Y009458D03*
X009623Y009458D03*
X010923Y006604D03*
X011592Y006604D03*
X011592Y004439D03*
X010923Y004439D03*
X013088Y010935D03*
X013757Y010935D03*
D16*
X012340Y005777D03*
X012340Y005265D03*
X008108Y005856D03*
X008108Y006368D03*
D17*
X009510Y005118D03*
X009510Y004448D03*
X011306Y016948D03*
X011306Y017618D03*
X013570Y017618D03*
X013570Y016948D03*
D18*
X009052Y006486D03*
X009052Y005738D03*
X009919Y006112D03*
D19*
X008448Y004685D03*
X006389Y004685D03*
X007316Y006702D03*
X005257Y006702D03*
D20*
X006828Y002962D03*
X007812Y002962D03*
X008797Y002962D03*
X009781Y002962D03*
X009781Y001962D03*
X008797Y001962D03*
X007812Y001962D03*
X006828Y001962D03*
X006828Y000962D03*
X007812Y000962D03*
X008797Y000962D03*
X009781Y000962D03*
X011356Y000962D03*
X012340Y000962D03*
X013324Y000962D03*
X014308Y000962D03*
X014308Y001962D03*
X013324Y001962D03*
X012340Y001962D03*
X011356Y001962D03*
X011356Y002962D03*
X012340Y002962D03*
X013324Y002962D03*
X014308Y002962D03*
D21*
X002793Y007834D03*
X002793Y008228D03*
X002793Y008622D03*
X002793Y009015D03*
X002793Y010689D03*
X002793Y011082D03*
X002793Y011476D03*
X002793Y011870D03*
X002793Y012263D03*
X002793Y012657D03*
D22*
X001267Y013169D03*
X001267Y010177D03*
X001267Y009527D03*
X001267Y007322D03*
D23*
X002005Y007834D03*
X002989Y006407D03*
X004958Y005669D03*
X006533Y006358D03*
X007419Y004685D03*
X008403Y006702D03*
X009549Y006112D03*
X010174Y005472D03*
X012340Y004832D03*
X012241Y004340D03*
X012709Y004340D03*
X013127Y005251D03*
X013127Y006259D03*
X012512Y006210D03*
X012143Y006604D03*
X017261Y009360D03*
X019082Y009261D03*
X019082Y012608D03*
X019082Y013198D03*
X014800Y013543D03*
X014161Y011919D03*
X012389Y016004D03*
X011799Y017234D03*
X011799Y018612D03*
X012340Y018907D03*
X014062Y017578D03*
X014062Y017037D03*
X009928Y017874D03*
X009904Y018366D03*
X008477Y016816D03*
X009289Y015511D03*
X006779Y014921D03*
X002104Y013395D03*
X002104Y012854D03*
X005106Y010147D03*
X003949Y009089D03*
X002104Y009655D03*
D24*
X004048Y011624D03*
X004392Y012017D03*
X003875Y012313D03*
X003752Y012829D03*
X004343Y013863D03*
X005056Y013469D03*
X005032Y012829D03*
X005253Y011328D03*
X004761Y011328D03*
X004810Y010762D03*
X005450Y009827D03*
X005450Y009335D03*
X005425Y008794D03*
X004860Y008720D03*
X005991Y006899D03*
X006828Y008769D03*
X007369Y008917D03*
X008600Y008277D03*
X008452Y007613D03*
X009289Y007194D03*
X009682Y006899D03*
X010125Y006998D03*
X010199Y007367D03*
X010125Y006555D03*
X011331Y007145D03*
X012241Y007441D03*
X012832Y006948D03*
X013718Y006407D03*
X014702Y007687D03*
X015268Y007465D03*
X015662Y007071D03*
X015391Y008966D03*
X015391Y009754D03*
X014210Y010959D03*
X015539Y011919D03*
X015932Y011919D03*
X017089Y011870D03*
X015243Y014429D03*
X013964Y013444D03*
X013472Y013444D03*
X013127Y013297D03*
X012832Y013691D03*
X012389Y013297D03*
X011602Y013543D03*
X011110Y013543D03*
X011110Y014380D03*
X009928Y013838D03*
X009436Y014035D03*
X009732Y014429D03*
X010273Y015856D03*
X010765Y016446D03*
X011356Y016446D03*
X011897Y015757D03*
X012832Y015659D03*
X013127Y016250D03*
X013718Y016250D03*
X014259Y016422D03*
X012635Y014576D03*
X013816Y012903D03*
X014111Y012509D03*
X012537Y011968D03*
X011946Y011820D03*
X012241Y011131D03*
X012241Y010738D03*
X011257Y011525D03*
X010863Y011820D03*
X010470Y011476D03*
X009978Y011722D03*
X009141Y011722D03*
X008698Y012017D03*
X007615Y013100D03*
X007517Y012509D03*
X006730Y011968D03*
X006041Y010935D03*
X006533Y010639D03*
X007099Y010516D03*
X008993Y010738D03*
X010568Y009212D03*
X010273Y008572D03*
X009879Y009065D03*
X009289Y009065D03*
X011454Y008868D03*
X011552Y009360D03*
X011946Y009655D03*
X012094Y008769D03*
X012241Y008376D03*
X013865Y005054D03*
X019771Y005620D03*
X019771Y014872D03*
X018984Y014872D03*
X018787Y015757D03*
X013988Y019055D03*
X010371Y018858D03*
X009879Y017283D03*
X009387Y017185D03*
X008698Y017209D03*
X009092Y016397D03*
X009436Y016053D03*
X008108Y014970D03*
X008403Y013494D03*
X006730Y013248D03*
X007419Y016397D03*
X006976Y016840D03*
X007591Y017209D03*
X007468Y018120D03*
X010076Y012952D03*
M02*
